G04 PROTEUS GERBER X2 FILE*
%TF.GenerationSoftware,Labcenter,Proteus,8.16-SP3-Build36097*%
%TF.CreationDate,2024-05-04T02:13:19+00:00*%
%TF.FileFunction,Legend,Bot*%
%TF.FilePolarity,Positive*%
%TF.Part,Single*%
%TF.SameCoordinates,{03efdd39-6268-421f-b844-547f2104f690}*%
%FSLAX45Y45*%
%MOMM*%
G01*
%TA.AperFunction,Material*%
%ADD56C,0.200000*%
%ADD59C,0.600000*%
%ADD57C,0.250000*%
%ADD54C,0.101600*%
%ADD55C,0.127000*%
%TA.AperFunction,Profile*%
%ADD34C,0.101600*%
%TA.AperFunction,Material*%
%ADD53C,0.100000*%
%TD.AperFunction*%
D56*
X+463698Y+875226D02*
X+463698Y+265226D01*
X-146302Y+265226D01*
X-146302Y+875226D01*
X+463698Y+875226D01*
D59*
X-16302Y+775226D02*
X-16405Y+777715D01*
X-17247Y+782695D01*
X-19007Y+787675D01*
X-21884Y+792655D01*
X-26285Y+797571D01*
X-31265Y+801185D01*
X-36245Y+803490D01*
X-41225Y+804793D01*
X-46205Y+805226D01*
X-46302Y+805226D01*
X-76302Y+775226D02*
X-76199Y+777715D01*
X-75357Y+782695D01*
X-73597Y+787675D01*
X-70720Y+792655D01*
X-66319Y+797571D01*
X-61339Y+801185D01*
X-56359Y+803490D01*
X-51379Y+804793D01*
X-46399Y+805226D01*
X-46302Y+805226D01*
X-76302Y+775226D02*
X-76199Y+772737D01*
X-75357Y+767757D01*
X-73597Y+762777D01*
X-70720Y+757797D01*
X-66319Y+752881D01*
X-61339Y+749267D01*
X-56359Y+746962D01*
X-51379Y+745659D01*
X-46399Y+745226D01*
X-46302Y+745226D01*
X-16302Y+775226D02*
X-16405Y+772737D01*
X-17247Y+767757D01*
X-19007Y+762777D01*
X-21884Y+757797D01*
X-26285Y+752881D01*
X-31265Y+749267D01*
X-36245Y+746962D01*
X-41225Y+745659D01*
X-46205Y+745226D01*
X-46302Y+745226D01*
D57*
X-193802Y+1040226D02*
X-193845Y+1041265D01*
X-194197Y+1043344D01*
X-194934Y+1045423D01*
X-196138Y+1047502D01*
X-197979Y+1049552D01*
X-200058Y+1051055D01*
X-202137Y+1052012D01*
X-204216Y+1052551D01*
X-206295Y+1052726D01*
X-206302Y+1052726D01*
X-218802Y+1040226D02*
X-218759Y+1041265D01*
X-218407Y+1043344D01*
X-217670Y+1045423D01*
X-216466Y+1047502D01*
X-214625Y+1049552D01*
X-212546Y+1051055D01*
X-210467Y+1052012D01*
X-208388Y+1052551D01*
X-206309Y+1052726D01*
X-206302Y+1052726D01*
X-218802Y+1040226D02*
X-218759Y+1039187D01*
X-218407Y+1037108D01*
X-217670Y+1035029D01*
X-216466Y+1032950D01*
X-214625Y+1030900D01*
X-212546Y+1029397D01*
X-210467Y+1028440D01*
X-208388Y+1027901D01*
X-206309Y+1027726D01*
X-206302Y+1027726D01*
X-193802Y+1040226D02*
X-193845Y+1039187D01*
X-194197Y+1037108D01*
X-194934Y+1035029D01*
X-196138Y+1032950D01*
X-197979Y+1030900D01*
X-200058Y+1029397D01*
X-202137Y+1028440D01*
X-204216Y+1027901D01*
X-206295Y+1027726D01*
X-206302Y+1027726D01*
D54*
X-214682Y+100326D02*
X-214682Y+36826D01*
X-228017Y+24126D01*
X-281357Y+24126D01*
X-294692Y+36826D01*
X-294692Y+100326D01*
X-348032Y+74926D02*
X-374702Y+100326D01*
X-374702Y+24126D01*
X+100918Y+1285866D02*
X+55198Y+1285866D01*
X+100918Y+1204586D02*
X+55198Y+1204586D01*
X-149272Y+1202046D02*
X-135937Y+1189346D01*
X-95932Y+1189346D01*
X-69262Y+1214746D01*
X-69262Y+1240146D01*
X-95932Y+1265546D01*
X-135937Y+1265546D01*
X-149272Y+1252846D01*
X-255952Y+1214746D02*
X-175942Y+1214746D01*
X-229282Y+1265546D01*
X-229282Y+1189346D01*
X+525780Y-96676D02*
X+571500Y-96676D01*
X+525780Y-15396D02*
X+571500Y-15396D01*
X+702310Y+63344D02*
X+715645Y+50644D01*
X+755650Y+50644D01*
X+782320Y+76044D01*
X+782320Y+101444D01*
X+755650Y+126844D01*
X+715645Y+126844D01*
X+702310Y+114144D01*
X+595630Y+126844D02*
X+662305Y+126844D01*
X+662305Y+101444D01*
X+608965Y+101444D01*
X+595630Y+88744D01*
X+595630Y+63344D01*
X+608965Y+50644D01*
X+648970Y+50644D01*
X+662305Y+63344D01*
X+637540Y-434340D02*
X+637540Y-256540D01*
X+378460Y-434340D02*
X+378460Y-256540D01*
X+739140Y-297510D02*
X+815340Y-297510D01*
X+815340Y-377520D01*
X+764540Y-430860D02*
X+739140Y-457530D01*
X+815340Y-457530D01*
X+182198Y+1331586D02*
X+227918Y+1331586D01*
X+182198Y+1412866D02*
X+227918Y+1412866D01*
X+427996Y+1266083D02*
X+441331Y+1253383D01*
X+481336Y+1253383D01*
X+508006Y+1278783D01*
X+508006Y+1304183D01*
X+481336Y+1329583D01*
X+441331Y+1329583D01*
X+427996Y+1316883D01*
X+387991Y+1316883D02*
X+374656Y+1329583D01*
X+334651Y+1329583D01*
X+321316Y+1316883D01*
X+321316Y+1304183D01*
X+334651Y+1291483D01*
X+321316Y+1278783D01*
X+321316Y+1266083D01*
X+334651Y+1253383D01*
X+374656Y+1253383D01*
X+387991Y+1266083D01*
X+361321Y+1291483D02*
X+334651Y+1291483D01*
X+1143338Y+1318105D02*
X+1143338Y+1363825D01*
X+1062058Y+1318105D02*
X+1062058Y+1363825D01*
X+1237318Y+1367635D02*
X+1250018Y+1380970D01*
X+1250018Y+1420975D01*
X+1224618Y+1447645D01*
X+1199218Y+1447645D01*
X+1173818Y+1420975D01*
X+1173818Y+1380970D01*
X+1186518Y+1367635D01*
X+1199218Y+1314295D02*
X+1173818Y+1287625D01*
X+1250018Y+1287625D01*
X+1062058Y+1572105D02*
X+1062058Y+1526385D01*
X+1143338Y+1572105D02*
X+1143338Y+1526385D01*
X+1272878Y+1575915D02*
X+1285578Y+1589250D01*
X+1285578Y+1629255D01*
X+1260178Y+1655925D01*
X+1234778Y+1655925D01*
X+1209378Y+1629255D01*
X+1209378Y+1589250D01*
X+1222078Y+1575915D01*
X+1222078Y+1535910D02*
X+1209378Y+1522575D01*
X+1209378Y+1482570D01*
X+1222078Y+1469235D01*
X+1234778Y+1469235D01*
X+1247478Y+1482570D01*
X+1247478Y+1522575D01*
X+1260178Y+1535910D01*
X+1285578Y+1535910D01*
X+1285578Y+1469235D01*
D55*
X+687698Y+1612326D02*
X+727698Y+1612326D01*
X+967698Y+1612326D02*
X+1007698Y+1612326D01*
X+1007698Y+1112326D01*
X+967698Y+1112326D01*
X+727698Y+1112326D02*
X+687698Y+1112326D01*
X+687698Y+1612326D01*
X+746098Y+1387726D02*
X+949298Y+1387726D01*
X+949298Y+1336926D01*
X+746098Y+1336926D01*
X+746098Y+1387726D01*
X+720698Y+1425826D02*
X+847698Y+1425826D01*
X+974698Y+1425826D01*
X+720698Y+1298826D02*
X+847698Y+1298826D01*
X+974698Y+1298826D01*
X+847698Y+1425826D02*
X+847698Y+1476626D01*
X+847698Y+1298826D02*
X+847698Y+1248026D01*
D54*
X+640878Y+1662426D02*
X+560868Y+1586226D01*
X+640878Y+1586226D02*
X+560868Y+1662426D01*
X+507528Y+1637026D02*
X+480858Y+1662426D01*
X+480858Y+1586226D01*
X+1314505Y+1365378D02*
X+1314505Y+1284416D01*
X+1325126Y+1282334D01*
X+1333692Y+1276614D01*
X+1339411Y+1268049D01*
X+1341493Y+1257428D01*
X+1314505Y+1230440D02*
X+1325126Y+1232522D01*
X+1333692Y+1238242D01*
X+1339411Y+1246807D01*
X+1341493Y+1257428D01*
X+1314505Y+1230440D02*
X+1314505Y+1149478D01*
X+1761545Y+1289178D02*
X+1761545Y+1225678D01*
X+1347525Y+1365378D02*
X+1728525Y+1365378D01*
X+1347525Y+1149478D02*
X+1728525Y+1149478D01*
X+1347525Y+1365378D02*
X+1314505Y+1365378D01*
X+1314505Y+1149478D02*
X+1347525Y+1149478D01*
X+1761545Y+1225678D02*
X+1761545Y+1149478D01*
X+1728525Y+1149478D01*
X+1728525Y+1365378D02*
X+1761545Y+1365378D01*
X+1761545Y+1289178D01*
X+1373941Y+1329818D02*
X+1373906Y+1330663D01*
X+1373619Y+1332354D01*
X+1373020Y+1334045D01*
X+1372040Y+1335736D01*
X+1370540Y+1337404D01*
X+1368849Y+1338624D01*
X+1367158Y+1339400D01*
X+1365467Y+1339837D01*
X+1363781Y+1339978D01*
X+1353621Y+1329818D02*
X+1353656Y+1330663D01*
X+1353943Y+1332354D01*
X+1354542Y+1334045D01*
X+1355522Y+1335736D01*
X+1357022Y+1337404D01*
X+1358713Y+1338624D01*
X+1360404Y+1339400D01*
X+1362095Y+1339837D01*
X+1363781Y+1339978D01*
X+1353621Y+1329818D02*
X+1353656Y+1328973D01*
X+1353943Y+1327282D01*
X+1354542Y+1325591D01*
X+1355522Y+1323900D01*
X+1357022Y+1322232D01*
X+1358713Y+1321012D01*
X+1360404Y+1320236D01*
X+1362095Y+1319799D01*
X+1363781Y+1319658D01*
X+1373941Y+1329818D02*
X+1373906Y+1328973D01*
X+1373619Y+1327282D01*
X+1373020Y+1325591D01*
X+1372040Y+1323900D01*
X+1370540Y+1322232D01*
X+1368849Y+1321012D01*
X+1367158Y+1320236D01*
X+1365467Y+1319799D01*
X+1363781Y+1319658D01*
X+1893625Y+1364108D02*
X+1957125Y+1364108D01*
X+1969825Y+1350773D01*
X+1969825Y+1297433D01*
X+1957125Y+1284098D01*
X+1893625Y+1284098D01*
X+1906325Y+1244093D02*
X+1893625Y+1230758D01*
X+1893625Y+1190753D01*
X+1906325Y+1177418D01*
X+1919025Y+1177418D01*
X+1931725Y+1190753D01*
X+1944425Y+1177418D01*
X+1957125Y+1177418D01*
X+1969825Y+1190753D01*
X+1969825Y+1230758D01*
X+1957125Y+1244093D01*
X+1931725Y+1217423D02*
X+1931725Y+1190753D01*
D56*
X-756426Y-2249650D02*
X-756461Y-2248819D01*
X-756742Y-2247155D01*
X-757332Y-2245491D01*
X-758296Y-2243827D01*
X-759771Y-2242186D01*
X-761435Y-2240985D01*
X-763099Y-2240220D01*
X-764763Y-2239789D01*
X-766426Y-2239650D01*
X-776426Y-2249650D02*
X-776391Y-2248819D01*
X-776110Y-2247155D01*
X-775520Y-2245491D01*
X-774556Y-2243827D01*
X-773081Y-2242186D01*
X-771417Y-2240985D01*
X-769753Y-2240220D01*
X-768089Y-2239789D01*
X-766426Y-2239650D01*
X-776426Y-2249650D02*
X-776391Y-2250481D01*
X-776110Y-2252145D01*
X-775520Y-2253809D01*
X-774556Y-2255473D01*
X-773081Y-2257114D01*
X-771417Y-2258315D01*
X-769753Y-2259080D01*
X-768089Y-2259511D01*
X-766426Y-2259650D01*
X-756426Y-2249650D02*
X-756461Y-2250481D01*
X-756742Y-2252145D01*
X-757332Y-2253809D01*
X-758296Y-2255473D01*
X-759771Y-2257114D01*
X-761435Y-2258315D01*
X-763099Y-2259080D01*
X-764763Y-2259511D01*
X-766426Y-2259650D01*
D55*
X-777426Y-2473650D02*
X-777426Y-2913650D01*
X+42574Y-2473650D02*
X+42574Y-2913650D01*
D54*
X-888026Y-2424220D02*
X-824526Y-2424220D01*
X-811826Y-2437555D01*
X-811826Y-2490895D01*
X-824526Y-2504230D01*
X-888026Y-2504230D01*
X-875326Y-2544235D02*
X-888026Y-2557570D01*
X-888026Y-2597575D01*
X-875326Y-2610910D01*
X-862626Y-2610910D01*
X-849926Y-2597575D01*
X-849926Y-2557570D01*
X-837226Y-2544235D01*
X-811826Y-2544235D01*
X-811826Y-2610910D01*
X-842942Y+474825D02*
X-842942Y+429105D01*
X-761662Y+474825D02*
X-761662Y+429105D01*
X-619422Y+558645D02*
X-695622Y+558645D01*
X-695622Y+491970D01*
X-682922Y+478635D01*
X-670222Y+478635D01*
X-657522Y+491970D01*
X-657522Y+558645D01*
X-657522Y+491970D02*
X-644822Y+478635D01*
X-619422Y+478635D01*
X-670222Y+425295D02*
X-695622Y+398625D01*
X-619422Y+398625D01*
X-1454473Y+1383908D02*
X-1405980Y+1432402D01*
X-1540684Y+1470119D02*
X-1490394Y+1520408D01*
X-1586863Y+1459862D02*
X-1640744Y+1513743D01*
X-1687890Y+1466597D01*
X-1688339Y+1448187D01*
X-1679359Y+1439207D01*
X-1660950Y+1439656D01*
X-1613803Y+1486802D01*
X-1660950Y+1439656D02*
X-1661399Y+1421246D01*
X-1643438Y+1403286D01*
X-1716627Y+1419900D02*
X-1735037Y+1419451D01*
X-1763324Y+1391163D01*
X-1763773Y+1372753D01*
X-1754793Y+1363773D01*
X-1736384Y+1364222D01*
X-1708096Y+1392510D01*
X-1689686Y+1392959D01*
X-1671726Y+1374998D01*
X-1718872Y+1327852D01*
X-1128302Y+492226D02*
X-1128302Y+292226D01*
X-948302Y+492226D02*
X-948302Y+292226D01*
X-1124662Y+343786D02*
X-949402Y+343786D01*
X-1127202Y+333626D02*
X-951942Y+333626D01*
X-1031782Y+117906D02*
X-1107982Y+117906D01*
X-1107982Y+64566D01*
X-1082582Y+37896D01*
X-1057182Y+37896D01*
X-1031782Y+64566D01*
X-1031782Y+117906D01*
X-1082582Y-15444D02*
X-1107982Y-42114D01*
X-1031782Y-42114D01*
X-1382302Y+492226D02*
X-1382302Y+292226D01*
X-1202302Y+492226D02*
X-1202302Y+292226D01*
X-1378662Y+343786D02*
X-1203402Y+343786D01*
X-1381202Y+333626D02*
X-1205942Y+333626D01*
X-1438893Y+451891D02*
X-1515093Y+451891D01*
X-1515093Y+398551D01*
X-1489693Y+371881D01*
X-1464293Y+371881D01*
X-1438893Y+398551D01*
X-1438893Y+451891D01*
X-1502393Y+331876D02*
X-1515093Y+318541D01*
X-1515093Y+278536D01*
X-1502393Y+265201D01*
X-1489693Y+265201D01*
X-1476993Y+278536D01*
X-1476993Y+318541D01*
X-1464293Y+331876D01*
X-1438893Y+331876D01*
X-1438893Y+265201D01*
X-948302Y+800226D02*
X-948302Y+1000226D01*
X-1128302Y+800226D02*
X-1128302Y+1000226D01*
X-951942Y+948666D02*
X-1127202Y+948666D01*
X-949402Y+958826D02*
X-1124662Y+958826D01*
X-841622Y+1006906D02*
X-917822Y+1006906D01*
X-917822Y+953566D01*
X-892422Y+926896D01*
X-867022Y+926896D01*
X-841622Y+953566D01*
X-841622Y+1006906D01*
X-905122Y+886891D02*
X-917822Y+873556D01*
X-917822Y+833551D01*
X-905122Y+820216D01*
X-892422Y+820216D01*
X-879722Y+833551D01*
X-867022Y+820216D01*
X-854322Y+820216D01*
X-841622Y+833551D01*
X-841622Y+873556D01*
X-854322Y+886891D01*
X-879722Y+860221D02*
X-879722Y+833551D01*
X-1202302Y+800226D02*
X-1202302Y+1000226D01*
X-1382302Y+800226D02*
X-1382302Y+1000226D01*
X-1205942Y+948666D02*
X-1381202Y+948666D01*
X-1203402Y+958826D02*
X-1378662Y+958826D01*
X-1408042Y+1116126D02*
X-1408042Y+1192326D01*
X-1461382Y+1192326D01*
X-1488052Y+1166926D01*
X-1488052Y+1141526D01*
X-1461382Y+1116126D01*
X-1408042Y+1116126D01*
X-1594732Y+1141526D02*
X-1514722Y+1141526D01*
X-1568062Y+1192326D01*
X-1568062Y+1116126D01*
X-722889Y+1311158D02*
X-722889Y+1265438D01*
X-641609Y+1311158D02*
X-641609Y+1265438D01*
X-512069Y+1403868D02*
X-499369Y+1417203D01*
X-499369Y+1457208D01*
X-524769Y+1483878D01*
X-550169Y+1483878D01*
X-575569Y+1457208D01*
X-575569Y+1417203D01*
X-562869Y+1403868D01*
X-550169Y+1350528D02*
X-575569Y+1323858D01*
X-499369Y+1323858D01*
X-524769Y+1190508D02*
X-524769Y+1270518D01*
X-575569Y+1217178D01*
X-499369Y+1217178D01*
X+1213534Y+2090243D02*
X+1181205Y+2122572D01*
X+1156060Y+2032769D02*
X+1123731Y+2065098D01*
X+1171183Y+1959136D02*
X+1117302Y+1905255D01*
X+1164448Y+1858109D01*
X+1182858Y+1857660D01*
X+1191838Y+1866640D01*
X+1191389Y+1885049D01*
X+1144243Y+1932196D01*
X+1191389Y+1885049D02*
X+1209799Y+1884600D01*
X+1227759Y+1902561D01*
X+1211145Y+1829372D02*
X+1211594Y+1810962D01*
X+1239882Y+1782675D01*
X+1258292Y+1782226D01*
X+1267272Y+1791206D01*
X+1266823Y+1809615D01*
X+1238535Y+1837903D01*
X+1238086Y+1856313D01*
X+1256047Y+1874273D01*
X+1303193Y+1827127D01*
X+1277599Y+1744958D02*
X+1324746Y+1697811D01*
X+1333726Y+1706792D01*
X+1331481Y+1798839D01*
X+173058Y+2887825D02*
X+173058Y+2842105D01*
X+254338Y+2887825D02*
X+254338Y+2842105D01*
X+269578Y+2590645D02*
X+193378Y+2590645D01*
X+193378Y+2523970D01*
X+206078Y+2510635D01*
X+218778Y+2510635D01*
X+231478Y+2523970D01*
X+231478Y+2590645D01*
X+231478Y+2523970D02*
X+244178Y+2510635D01*
X+269578Y+2510635D01*
X+193378Y+2403955D02*
X+193378Y+2470630D01*
X+218778Y+2470630D01*
X+218778Y+2417290D01*
X+231478Y+2403955D01*
X+256878Y+2403955D01*
X+269578Y+2417290D01*
X+269578Y+2457295D01*
X+256878Y+2470630D01*
X+1541783Y+2459038D02*
X+1541783Y+2413318D01*
X+1623063Y+2459038D02*
X+1623063Y+2413318D01*
X+1638303Y+2850198D02*
X+1562103Y+2850198D01*
X+1562103Y+2783523D01*
X+1574803Y+2770188D01*
X+1587503Y+2770188D01*
X+1600203Y+2783523D01*
X+1600203Y+2850198D01*
X+1600203Y+2783523D02*
X+1612903Y+2770188D01*
X+1638303Y+2770188D01*
X+1574803Y+2730183D02*
X+1562103Y+2716848D01*
X+1562103Y+2676843D01*
X+1574803Y+2663508D01*
X+1587503Y+2663508D01*
X+1600203Y+2676843D01*
X+1600203Y+2716848D01*
X+1612903Y+2730183D01*
X+1638303Y+2730183D01*
X+1638303Y+2663508D01*
X+1600203Y+2610168D02*
X+1587503Y+2623503D01*
X+1574803Y+2623503D01*
X+1562103Y+2610168D01*
X+1562103Y+2570163D01*
X+1574803Y+2556828D01*
X+1587503Y+2556828D01*
X+1600203Y+2570163D01*
X+1600203Y+2610168D01*
X+1612903Y+2623503D01*
X+1625603Y+2623503D01*
X+1638303Y+2610168D01*
X+1638303Y+2570163D01*
X+1625603Y+2556828D01*
X+1612903Y+2556828D01*
X+1600203Y+2570163D01*
X-621940Y+1746441D02*
X-654269Y+1714112D01*
X-564466Y+1688967D02*
X-596795Y+1656638D01*
X-546506Y+1864980D02*
X-600387Y+1918861D01*
X-647533Y+1871715D01*
X-647982Y+1853305D01*
X-639002Y+1844325D01*
X-620593Y+1844774D01*
X-573446Y+1891920D01*
X-620593Y+1844774D02*
X-621042Y+1826364D01*
X-603081Y+1808404D01*
X-676270Y+1825018D02*
X-694680Y+1824569D01*
X-722967Y+1796281D01*
X-723416Y+1777871D01*
X-714436Y+1768891D01*
X-696027Y+1769340D01*
X-667739Y+1797628D01*
X-649329Y+1798077D01*
X-631369Y+1780116D01*
X-678515Y+1732970D01*
X-751704Y+1749584D02*
X-770114Y+1749135D01*
X-798401Y+1720847D01*
X-798850Y+1702437D01*
X-789870Y+1693457D01*
X-771461Y+1693906D01*
X-771910Y+1675496D01*
X-762929Y+1666516D01*
X-744520Y+1666965D01*
X-716232Y+1695253D01*
X-715783Y+1713662D01*
X-752602Y+1712764D02*
X-771461Y+1693906D01*
X-372808Y+1741573D02*
X-405137Y+1709244D01*
X-315334Y+1684099D02*
X-347663Y+1651770D01*
X-297374Y+1860112D02*
X-351255Y+1913993D01*
X-398401Y+1866847D01*
X-398850Y+1848437D01*
X-389870Y+1839457D01*
X-371461Y+1839906D01*
X-324314Y+1887052D01*
X-371461Y+1839906D02*
X-371910Y+1821496D01*
X-353949Y+1803536D01*
X-427138Y+1820150D02*
X-445548Y+1819701D01*
X-473835Y+1791413D01*
X-474284Y+1773003D01*
X-465304Y+1764023D01*
X-446895Y+1764472D01*
X-418607Y+1792760D01*
X-400197Y+1793209D01*
X-382237Y+1775248D01*
X-429383Y+1728102D01*
X-522778Y+1670628D02*
X-466202Y+1727204D01*
X-539840Y+1725408D01*
X-485959Y+1671526D01*
X-113940Y+1746441D02*
X-146269Y+1714112D01*
X-56466Y+1688967D02*
X-88795Y+1656638D01*
X-3072Y+1608494D02*
X-56953Y+1662375D01*
X-104099Y+1615229D01*
X-104548Y+1596819D01*
X-95568Y+1587839D01*
X-77159Y+1588288D01*
X-30012Y+1635434D01*
X-77159Y+1588288D02*
X-77608Y+1569878D01*
X-59647Y+1551918D01*
X-132836Y+1568532D02*
X-151246Y+1568083D01*
X-179533Y+1539795D01*
X-179982Y+1521385D01*
X-171002Y+1512405D01*
X-152593Y+1512854D01*
X-124305Y+1541142D01*
X-105895Y+1541591D01*
X-87935Y+1523630D01*
X-135081Y+1476484D01*
X-264397Y+1454931D02*
X-217250Y+1502078D01*
X-199290Y+1484117D01*
X-237007Y+1446400D01*
X-237456Y+1427991D01*
X-219495Y+1410030D01*
X-201086Y+1410479D01*
X-172798Y+1438767D01*
X-172349Y+1457176D01*
X+140060Y+1746441D02*
X+107731Y+1714112D01*
X+197534Y+1688967D02*
X+165205Y+1656638D01*
X+392271Y+1688204D02*
X+338390Y+1742085D01*
X+291244Y+1694939D01*
X+290795Y+1676529D01*
X+299775Y+1667549D01*
X+318184Y+1667998D01*
X+365331Y+1715144D01*
X+318184Y+1667998D02*
X+317735Y+1649588D01*
X+335696Y+1631628D01*
X+262507Y+1648242D02*
X+244097Y+1647793D01*
X+215810Y+1619505D01*
X+215361Y+1601095D01*
X+224341Y+1592115D01*
X+242750Y+1592564D01*
X+271038Y+1620852D01*
X+289448Y+1621301D01*
X+307408Y+1603340D01*
X+260262Y+1556194D01*
X+139927Y+1525661D02*
X+140376Y+1544071D01*
X+168663Y+1572359D01*
X+187073Y+1572808D01*
X+222994Y+1536886D01*
X+222545Y+1518477D01*
X+194257Y+1490189D01*
X+175848Y+1489740D01*
X+166867Y+1498720D01*
X+167316Y+1517130D01*
X+205033Y+1554847D01*
X-180002Y+3065625D02*
X-260964Y+3065625D01*
X-263046Y+3055004D01*
X-268766Y+3046438D01*
X-277331Y+3040719D01*
X-287952Y+3038637D01*
X-314940Y+3065625D02*
X-312858Y+3055004D01*
X-307138Y+3046438D01*
X-298573Y+3040719D01*
X-287952Y+3038637D01*
X-314940Y+3065625D02*
X-395902Y+3065625D01*
X-256202Y+2237585D02*
X-319702Y+2237585D01*
X-180002Y+3032605D02*
X-180002Y+2270605D01*
X-395902Y+3032605D02*
X-395902Y+2270605D01*
X-180002Y+3032605D02*
X-180002Y+3065625D01*
X-395902Y+3065625D02*
X-395902Y+3032605D01*
X-319702Y+2237585D02*
X-395902Y+2237585D01*
X-395902Y+2270605D01*
X-180002Y+2270605D02*
X-180002Y+2237585D01*
X-256202Y+2237585D01*
X-205402Y+3016349D02*
X-205437Y+3017194D01*
X-205724Y+3018885D01*
X-206323Y+3020576D01*
X-207303Y+3022267D01*
X-208803Y+3023935D01*
X-210494Y+3025155D01*
X-212185Y+3025931D01*
X-213876Y+3026368D01*
X-215562Y+3026509D01*
X-225722Y+3016349D02*
X-225687Y+3017194D01*
X-225400Y+3018885D01*
X-224801Y+3020576D01*
X-223821Y+3022267D01*
X-222321Y+3023935D01*
X-220630Y+3025155D01*
X-218939Y+3025931D01*
X-217248Y+3026368D01*
X-215562Y+3026509D01*
X-225722Y+3016349D02*
X-225687Y+3015504D01*
X-225400Y+3013813D01*
X-224801Y+3012122D01*
X-223821Y+3010431D01*
X-222321Y+3008763D01*
X-220630Y+3007543D01*
X-218939Y+3006767D01*
X-217248Y+3006330D01*
X-215562Y+3006189D01*
X-205402Y+3016349D02*
X-205437Y+3015504D01*
X-205724Y+3013813D01*
X-206323Y+3012122D01*
X-207303Y+3010431D01*
X-208803Y+3008763D01*
X-210494Y+3007543D01*
X-212185Y+3006767D01*
X-213876Y+3006330D01*
X-215562Y+3006189D01*
X-181272Y+2125505D02*
X-181272Y+2062005D01*
X-194607Y+2049305D01*
X-247947Y+2049305D01*
X-261282Y+2062005D01*
X-261282Y+2125505D01*
X-367962Y+2112805D02*
X-354627Y+2125505D01*
X-314622Y+2125505D01*
X-301287Y+2112805D01*
X-301287Y+2062005D01*
X-314622Y+2049305D01*
X-354627Y+2049305D01*
X-367962Y+2062005D01*
X-367962Y+2074705D01*
X-354627Y+2087405D01*
X-301287Y+2087405D01*
X+1516718Y+2524605D02*
X+1516718Y+2605567D01*
X+1506097Y+2607649D01*
X+1497531Y+2613368D01*
X+1491812Y+2621934D01*
X+1489730Y+2632555D01*
X+1516718Y+2659543D02*
X+1506097Y+2657461D01*
X+1497531Y+2651742D01*
X+1491812Y+2643176D01*
X+1489730Y+2632555D01*
X+1516718Y+2659543D02*
X+1516718Y+2740505D01*
X+688678Y+2600805D02*
X+688678Y+2664305D01*
X+1483698Y+2524605D02*
X+721698Y+2524605D01*
X+1483698Y+2740505D02*
X+721698Y+2740505D01*
X+1483698Y+2524605D02*
X+1516718Y+2524605D01*
X+1516718Y+2740505D02*
X+1483698Y+2740505D01*
X+688678Y+2664305D02*
X+688678Y+2740505D01*
X+721698Y+2740505D01*
X+721698Y+2524605D02*
X+688678Y+2524605D01*
X+688678Y+2600805D01*
X+1477602Y+2560165D02*
X+1477567Y+2561010D01*
X+1477280Y+2562701D01*
X+1476681Y+2564392D01*
X+1475701Y+2566083D01*
X+1474201Y+2567751D01*
X+1472510Y+2568971D01*
X+1470819Y+2569747D01*
X+1469128Y+2570184D01*
X+1467442Y+2570325D01*
X+1457282Y+2560165D02*
X+1457317Y+2561010D01*
X+1457604Y+2562701D01*
X+1458203Y+2564392D01*
X+1459183Y+2566083D01*
X+1460683Y+2567751D01*
X+1462374Y+2568971D01*
X+1464065Y+2569747D01*
X+1465756Y+2570184D01*
X+1467442Y+2570325D01*
X+1457282Y+2560165D02*
X+1457317Y+2559320D01*
X+1457604Y+2557629D01*
X+1458203Y+2555938D01*
X+1459183Y+2554247D01*
X+1460683Y+2552579D01*
X+1462374Y+2551359D01*
X+1464065Y+2550583D01*
X+1465756Y+2550146D01*
X+1467442Y+2550005D01*
X+1477602Y+2560165D02*
X+1477567Y+2559320D01*
X+1477280Y+2557629D01*
X+1476681Y+2555938D01*
X+1475701Y+2554247D01*
X+1474201Y+2552579D01*
X+1472510Y+2551359D01*
X+1470819Y+2550583D01*
X+1469128Y+2550146D01*
X+1467442Y+2550005D01*
X+480398Y+2612235D02*
X+543898Y+2612235D01*
X+556598Y+2598900D01*
X+556598Y+2545560D01*
X+543898Y+2532225D01*
X+480398Y+2532225D01*
X+480398Y+2492220D02*
X+480398Y+2425545D01*
X+493098Y+2425545D01*
X+556598Y+2492220D01*
X+935058Y+3141825D02*
X+935058Y+3096105D01*
X+1016338Y+3141825D02*
X+1016338Y+3096105D01*
X+914874Y+3055797D02*
X+914874Y+3131997D01*
X+848199Y+3131997D01*
X+834864Y+3119297D01*
X+834864Y+3106597D01*
X+848199Y+3093897D01*
X+914874Y+3093897D01*
X+848199Y+3093897D02*
X+834864Y+3081197D01*
X+834864Y+3055797D01*
X+794859Y+3119297D02*
X+781524Y+3131997D01*
X+741519Y+3131997D01*
X+728184Y+3119297D01*
X+728184Y+3106597D01*
X+741519Y+3093897D01*
X+781524Y+3093897D01*
X+794859Y+3081197D01*
X+794859Y+3055797D01*
X+728184Y+3055797D01*
X+674844Y+3106597D02*
X+648174Y+3131997D01*
X+648174Y+3055797D01*
X+1189058Y+3141825D02*
X+1189058Y+3096105D01*
X+1270338Y+3141825D02*
X+1270338Y+3096105D01*
X+1132839Y+3359239D02*
X+1056639Y+3359239D01*
X+1056639Y+3292564D01*
X+1069339Y+3279229D01*
X+1082039Y+3279229D01*
X+1094739Y+3292564D01*
X+1094739Y+3359239D01*
X+1094739Y+3292564D02*
X+1107439Y+3279229D01*
X+1132839Y+3279229D01*
X+1069339Y+3239224D02*
X+1056639Y+3225889D01*
X+1056639Y+3185884D01*
X+1069339Y+3172549D01*
X+1082039Y+3172549D01*
X+1094739Y+3185884D01*
X+1094739Y+3225889D01*
X+1107439Y+3239224D01*
X+1132839Y+3239224D01*
X+1132839Y+3172549D01*
X+1069339Y+3132544D02*
X+1056639Y+3119209D01*
X+1056639Y+3079204D01*
X+1069339Y+3065869D01*
X+1082039Y+3065869D01*
X+1094739Y+3079204D01*
X+1094739Y+3119209D01*
X+1107439Y+3132544D01*
X+1132839Y+3132544D01*
X+1132839Y+3065869D01*
X+1719918Y+2946245D02*
X+1674198Y+2946245D01*
X+1719918Y+2864965D02*
X+1674198Y+2864965D01*
X+1976458Y+2967835D02*
X+1989158Y+2981170D01*
X+1989158Y+3021175D01*
X+1963758Y+3047845D01*
X+1938358Y+3047845D01*
X+1912958Y+3021175D01*
X+1912958Y+2981170D01*
X+1925658Y+2967835D01*
X+1938358Y+2914495D02*
X+1912958Y+2887825D01*
X+1989158Y+2887825D01*
X+1912958Y+2754475D02*
X+1912958Y+2821150D01*
X+1938358Y+2821150D01*
X+1938358Y+2767810D01*
X+1951058Y+2754475D01*
X+1976458Y+2754475D01*
X+1989158Y+2767810D01*
X+1989158Y+2807815D01*
X+1976458Y+2821150D01*
X-70082Y+3172245D02*
X-115802Y+3172245D01*
X-70082Y+3090965D02*
X-115802Y+3090965D01*
X+114068Y+2961425D02*
X+127403Y+2948725D01*
X+167408Y+2948725D01*
X+194078Y+2974125D01*
X+194078Y+2999525D01*
X+167408Y+3024925D01*
X+127403Y+3024925D01*
X+114068Y+3012225D01*
X+60728Y+2999525D02*
X+34058Y+3024925D01*
X+34058Y+2948725D01*
X-99292Y+3012225D02*
X-85957Y+3024925D01*
X-45952Y+3024925D01*
X-32617Y+3012225D01*
X-32617Y+2961425D01*
X-45952Y+2948725D01*
X-85957Y+2948725D01*
X-99292Y+2961425D01*
X-99292Y+2974125D01*
X-85957Y+2986825D01*
X-32617Y+2986825D01*
X-744220Y+2245360D02*
X-698500Y+2245360D01*
X-744220Y+2326640D02*
X-698500Y+2326640D01*
X-622429Y+2123309D02*
X-622429Y+2199509D01*
X-689104Y+2199509D01*
X-702439Y+2186809D01*
X-702439Y+2174109D01*
X-689104Y+2161409D01*
X-622429Y+2161409D01*
X-689104Y+2161409D02*
X-702439Y+2148709D01*
X-702439Y+2123309D01*
X-755779Y+2174109D02*
X-782449Y+2199509D01*
X-782449Y+2123309D01*
X-849124Y+2199509D02*
X-915799Y+2199509D01*
X-915799Y+2186809D01*
X-849124Y+2123309D01*
X-421640Y+3284220D02*
X-421640Y+3238500D01*
X-340360Y+3284220D02*
X-340360Y+3238500D01*
X-452090Y+3091150D02*
X-452090Y+3167350D01*
X-518765Y+3167350D01*
X-532100Y+3154650D01*
X-532100Y+3141950D01*
X-518765Y+3129250D01*
X-452090Y+3129250D01*
X-518765Y+3129250D02*
X-532100Y+3116550D01*
X-532100Y+3091150D01*
X-585440Y+3141950D02*
X-612110Y+3167350D01*
X-612110Y+3091150D01*
X-692120Y+3129250D02*
X-678785Y+3141950D01*
X-678785Y+3154650D01*
X-692120Y+3167350D01*
X-732125Y+3167350D01*
X-745460Y+3154650D01*
X-745460Y+3141950D01*
X-732125Y+3129250D01*
X-692120Y+3129250D01*
X-678785Y+3116550D01*
X-678785Y+3103850D01*
X-692120Y+3091150D01*
X-732125Y+3091150D01*
X-745460Y+3103850D01*
X-745460Y+3116550D01*
X-732125Y+3129250D01*
X+300058Y+3030220D02*
X+300058Y+2984500D01*
X+381338Y+3030220D02*
X+381338Y+2984500D01*
X+396578Y+2866299D02*
X+320378Y+2866299D01*
X+320378Y+2799624D01*
X+333078Y+2786289D01*
X+345778Y+2786289D01*
X+358478Y+2799624D01*
X+358478Y+2866299D01*
X+358478Y+2799624D02*
X+371178Y+2786289D01*
X+396578Y+2786289D01*
X+345778Y+2732949D02*
X+320378Y+2706279D01*
X+396578Y+2706279D01*
X+345778Y+2572929D02*
X+358478Y+2586264D01*
X+358478Y+2626269D01*
X+345778Y+2639604D01*
X+333078Y+2639604D01*
X+320378Y+2626269D01*
X+320378Y+2586264D01*
X+333078Y+2572929D01*
X+383878Y+2572929D01*
X+396578Y+2586264D01*
X+396578Y+2626269D01*
X+554058Y+3096105D02*
X+554058Y+3050385D01*
X+635338Y+3096105D02*
X+635338Y+3050385D01*
X+523578Y+3106265D02*
X+447378Y+3106265D01*
X+447378Y+3039590D01*
X+460078Y+3026255D01*
X+472778Y+3026255D01*
X+485478Y+3039590D01*
X+485478Y+3106265D01*
X+485478Y+3039590D02*
X+498178Y+3026255D01*
X+523578Y+3026255D01*
X+460078Y+2986250D02*
X+447378Y+2972915D01*
X+447378Y+2932910D01*
X+460078Y+2919575D01*
X+472778Y+2919575D01*
X+485478Y+2932910D01*
X+485478Y+2972915D01*
X+498178Y+2986250D01*
X+523578Y+2986250D01*
X+523578Y+2919575D01*
X+510878Y+2892905D02*
X+460078Y+2892905D01*
X+447378Y+2879570D01*
X+447378Y+2826230D01*
X+460078Y+2812895D01*
X+510878Y+2812895D01*
X+523578Y+2826230D01*
X+523578Y+2879570D01*
X+510878Y+2892905D01*
X+523578Y+2892905D02*
X+447378Y+2812895D01*
X-1199302Y+1164605D02*
X-999302Y+1164605D01*
X-1199302Y+1344605D02*
X-999302Y+1344605D01*
X-1050862Y+1168245D02*
X-1050862Y+1343505D01*
X-1040702Y+1165705D02*
X-1040702Y+1340965D01*
X-992622Y+1384699D02*
X-992622Y+1460899D01*
X-1045962Y+1460899D01*
X-1072632Y+1435499D01*
X-1072632Y+1410099D01*
X-1045962Y+1384699D01*
X-992622Y+1384699D01*
X-1179312Y+1460899D02*
X-1112637Y+1460899D01*
X-1112637Y+1435499D01*
X-1165977Y+1435499D01*
X-1179312Y+1422799D01*
X-1179312Y+1397399D01*
X-1165977Y+1384699D01*
X-1125972Y+1384699D01*
X-1112637Y+1397399D01*
X-738802Y+2946245D02*
X-784522Y+2946245D01*
X-738802Y+2864965D02*
X-784522Y+2864965D01*
X-781982Y+2976725D02*
X-781982Y+3052925D01*
X-848657Y+3052925D01*
X-861992Y+3040225D01*
X-861992Y+3027525D01*
X-848657Y+3014825D01*
X-781982Y+3014825D01*
X-848657Y+3014825D02*
X-861992Y+3002125D01*
X-861992Y+2976725D01*
X-968672Y+3002125D02*
X-888662Y+3002125D01*
X-942002Y+3052925D01*
X-942002Y+2976725D01*
X-240962Y-1369215D02*
X-240962Y-1521615D01*
X-93642Y-1371755D02*
X-93642Y-1521615D01*
X-271442Y-1282855D02*
X-347642Y-1282855D01*
X-347642Y-1349530D01*
X-334942Y-1362865D01*
X-322242Y-1362865D01*
X-309542Y-1349530D01*
X-309542Y-1282855D01*
X-309542Y-1349530D02*
X-296842Y-1362865D01*
X-271442Y-1362865D01*
X-347642Y-1389535D02*
X-347642Y-1469545D01*
X-347642Y-1429540D02*
X-271442Y-1429540D01*
X-334942Y-1509550D02*
X-347642Y-1522885D01*
X-347642Y-1562890D01*
X-334942Y-1576225D01*
X-322242Y-1576225D01*
X-309542Y-1562890D01*
X-296842Y-1576225D01*
X-284142Y-1576225D01*
X-271442Y-1562890D01*
X-271442Y-1522885D01*
X-284142Y-1509550D01*
X-309542Y-1536220D02*
X-309542Y-1562890D01*
X-652442Y-1867055D02*
X-500042Y-1867055D01*
X-649902Y-1719735D02*
X-500042Y-1719735D01*
X-418762Y-1973735D02*
X-418762Y-1897535D01*
X-485437Y-1897535D01*
X-498772Y-1910235D01*
X-498772Y-1922935D01*
X-485437Y-1935635D01*
X-418762Y-1935635D01*
X-485437Y-1935635D02*
X-498772Y-1948335D01*
X-498772Y-1973735D01*
X-525442Y-1897535D02*
X-605452Y-1897535D01*
X-565447Y-1897535D02*
X-565447Y-1973735D01*
X-712132Y-1897535D02*
X-645457Y-1897535D01*
X-645457Y-1922935D01*
X-698797Y-1922935D01*
X-712132Y-1935635D01*
X-712132Y-1961035D01*
X-698797Y-1973735D01*
X-658792Y-1973735D01*
X-645457Y-1961035D01*
X+414358Y-1770535D02*
X+414358Y-1618135D01*
X+267038Y-1767995D02*
X+267038Y-1618135D01*
X+521038Y-1536855D02*
X+444838Y-1536855D01*
X+444838Y-1603530D01*
X+457538Y-1616865D01*
X+470238Y-1616865D01*
X+482938Y-1603530D01*
X+482938Y-1536855D01*
X+482938Y-1603530D02*
X+495638Y-1616865D01*
X+521038Y-1616865D01*
X+444838Y-1643535D02*
X+444838Y-1723545D01*
X+444838Y-1683540D02*
X+521038Y-1683540D01*
X+457538Y-1830225D02*
X+444838Y-1816890D01*
X+444838Y-1776885D01*
X+457538Y-1763550D01*
X+508338Y-1763550D01*
X+521038Y-1776885D01*
X+521038Y-1816890D01*
X+508338Y-1830225D01*
X+495638Y-1830225D01*
X+482938Y-1816890D01*
X+482938Y-1763550D01*
X+1557358Y-1709575D02*
X+1557358Y-1557175D01*
X+1410038Y-1707035D02*
X+1410038Y-1557175D01*
X+1664038Y-1475895D02*
X+1587838Y-1475895D01*
X+1587838Y-1542570D01*
X+1600538Y-1555905D01*
X+1613238Y-1555905D01*
X+1625938Y-1542570D01*
X+1625938Y-1475895D01*
X+1625938Y-1542570D02*
X+1638638Y-1555905D01*
X+1664038Y-1555905D01*
X+1587838Y-1582575D02*
X+1587838Y-1662585D01*
X+1587838Y-1622580D02*
X+1664038Y-1622580D01*
X+1587838Y-1702590D02*
X+1587838Y-1769265D01*
X+1600538Y-1769265D01*
X+1664038Y-1702590D01*
X-287118Y-4190750D02*
X-179355Y-4298513D01*
X-181151Y-4088375D02*
X-75184Y-4194342D01*
X+11263Y-4055526D02*
X-42618Y-4109407D01*
X+4528Y-4156553D01*
X+22938Y-4157002D01*
X+31918Y-4148022D01*
X+31469Y-4129613D01*
X-15677Y-4082466D01*
X+31469Y-4129613D02*
X+49879Y-4130062D01*
X+67839Y-4112101D01*
X+32816Y-4184841D02*
X+89392Y-4241417D01*
X+61104Y-4213129D02*
X+114985Y-4159247D01*
X+182786Y-4298890D02*
X+182337Y-4280481D01*
X+154049Y-4252193D01*
X+135640Y-4251744D01*
X+126659Y-4260724D01*
X+127108Y-4279134D01*
X+155396Y-4307421D01*
X+173806Y-4307870D01*
X+209727Y-4271949D01*
X+209278Y-4253540D01*
X+180990Y-4225252D01*
X-1430118Y-4190750D02*
X-1322355Y-4298513D01*
X-1324151Y-4088375D02*
X-1218184Y-4194342D01*
X-1184284Y-4032639D02*
X-1238165Y-4086520D01*
X-1191019Y-4133666D01*
X-1172609Y-4134115D01*
X-1163629Y-4125135D01*
X-1164078Y-4106726D01*
X-1211224Y-4059579D01*
X-1164078Y-4106726D02*
X-1145668Y-4107175D01*
X-1127708Y-4089214D01*
X-1162731Y-4161954D02*
X-1106155Y-4218530D01*
X-1134443Y-4190242D02*
X-1080562Y-4136360D01*
X-1050478Y-4238286D02*
X-1049580Y-4275105D01*
X-995698Y-4221224D01*
X-966962Y-4267921D02*
X-1002883Y-4303842D01*
X-1002434Y-4322251D01*
X-964717Y-4359968D01*
X-946307Y-4360417D01*
X-910386Y-4324496D01*
X-910835Y-4306087D01*
X-948552Y-4268370D01*
X-966962Y-4267921D01*
X-957982Y-4258941D02*
X-955287Y-4369398D01*
X+855882Y-4190750D02*
X+963645Y-4298513D01*
X+961849Y-4088375D02*
X+1067816Y-4194342D01*
X+1169696Y-4055525D02*
X+1115815Y-4109406D01*
X+1162961Y-4156552D01*
X+1181371Y-4157001D01*
X+1190351Y-4148021D01*
X+1189902Y-4129612D01*
X+1142756Y-4082465D01*
X+1189902Y-4129612D02*
X+1208312Y-4130061D01*
X+1226272Y-4112100D01*
X+1191249Y-4184840D02*
X+1247825Y-4241416D01*
X+1219537Y-4213128D02*
X+1273418Y-4159246D01*
X+1312482Y-4252192D02*
X+1294073Y-4251743D01*
X+1285092Y-4260723D01*
X+1285541Y-4279133D01*
X+1313829Y-4307420D01*
X+1332239Y-4307869D01*
X+1341219Y-4298889D01*
X+1340770Y-4280480D01*
X+1312482Y-4252192D01*
X+1312033Y-4233782D01*
X+1321014Y-4224802D01*
X+1339423Y-4225251D01*
X+1367711Y-4253539D01*
X+1368160Y-4271948D01*
X+1359180Y-4280929D01*
X+1340770Y-4280480D01*
X-1015662Y-3045615D02*
X-1015662Y-2999895D01*
X-1096942Y-3045615D02*
X-1096942Y-2999895D01*
X-870974Y-2960851D02*
X-858274Y-2947516D01*
X-858274Y-2907511D01*
X-883674Y-2880841D01*
X-909074Y-2880841D01*
X-934474Y-2907511D01*
X-934474Y-2947516D01*
X-921774Y-2960851D01*
X-909074Y-3014191D02*
X-934474Y-3040861D01*
X-858274Y-3040861D01*
X-934474Y-3107536D02*
X-934474Y-3174211D01*
X-921774Y-3174211D01*
X-858274Y-3107536D01*
X-880414Y-108664D02*
X-928908Y-60171D01*
X-966625Y-194875D02*
X-1016914Y-144585D01*
X-903764Y+65552D02*
X-957645Y+11671D01*
X-910499Y-35475D01*
X-892089Y-35924D01*
X-883109Y-26944D01*
X-883558Y-8535D01*
X-930704Y+38612D01*
X-883558Y-8535D02*
X-865148Y-8984D01*
X-847188Y+8977D01*
X-816655Y-111358D02*
X-835065Y-110909D01*
X-863353Y-82622D01*
X-863802Y-64212D01*
X-827880Y-28291D01*
X-809471Y-28740D01*
X-781183Y-57028D01*
X-780734Y-75437D01*
X-789714Y-84418D01*
X-808124Y-83969D01*
X-845841Y-46252D01*
X-662210Y-72869D02*
X-710704Y-24376D01*
X-748421Y-159080D02*
X-798710Y-108790D01*
X-685559Y+101347D02*
X-739440Y+47466D01*
X-692294Y+320D01*
X-673884Y-129D01*
X-664904Y+8851D01*
X-665353Y+27260D01*
X-712499Y+74407D01*
X-665353Y+27260D02*
X-646943Y+26811D01*
X-628983Y+44772D01*
X-654577Y-37397D02*
X-607430Y-84544D01*
X-598450Y-75563D01*
X-600695Y+16484D01*
X+254339Y-251615D02*
X+254339Y-205895D01*
X+173059Y-251615D02*
X+173059Y-205895D01*
X+107018Y-68734D02*
X+30818Y-68734D01*
X+30818Y-135409D01*
X+43518Y-148744D01*
X+56218Y-148744D01*
X+68918Y-135409D01*
X+68918Y-68734D01*
X+68918Y-135409D02*
X+81618Y-148744D01*
X+107018Y-148744D01*
X+43518Y-188749D02*
X+30818Y-202084D01*
X+30818Y-242089D01*
X+43518Y-255424D01*
X+56218Y-255424D01*
X+68918Y-242089D01*
X+68918Y-202084D01*
X+81618Y-188749D01*
X+107018Y-188749D01*
X+107018Y-255424D01*
X+56218Y-362104D02*
X+68918Y-348769D01*
X+68918Y-308764D01*
X+56218Y-295429D01*
X+43518Y-295429D01*
X+30818Y-308764D01*
X+30818Y-348769D01*
X+43518Y-362104D01*
X+94318Y-362104D01*
X+107018Y-348769D01*
X+107018Y-308764D01*
X-469796Y-883362D02*
X-437467Y-851033D01*
X-527270Y-825888D02*
X-494941Y-793559D01*
X-519046Y-702480D02*
X-572927Y-648599D01*
X-620073Y-695745D01*
X-620522Y-714155D01*
X-611542Y-723135D01*
X-593133Y-722686D01*
X-545986Y-675540D01*
X-593133Y-722686D02*
X-593582Y-741096D01*
X-575621Y-759056D01*
X-648810Y-742442D02*
X-667220Y-742891D01*
X-695507Y-771179D01*
X-695956Y-789589D01*
X-686976Y-798569D01*
X-668567Y-798120D01*
X-669016Y-816530D01*
X-660035Y-825510D01*
X-641626Y-825061D01*
X-613338Y-796773D01*
X-612889Y-778364D01*
X-649708Y-779262D02*
X-668567Y-798120D01*
X-678894Y-844368D02*
X-714815Y-808447D01*
X-733224Y-808896D01*
X-770941Y-846613D01*
X-771390Y-865023D01*
X-735469Y-900944D01*
X-717060Y-900495D01*
X-679343Y-862778D01*
X-678894Y-844368D01*
X-669914Y-853348D02*
X-780371Y-856043D01*
X-215795Y-502362D02*
X-183466Y-470033D01*
X-273269Y-444888D02*
X-240940Y-412559D01*
X-74545Y-511980D02*
X-128426Y-458099D01*
X-175572Y-505245D01*
X-176021Y-523655D01*
X-167041Y-532635D01*
X-148632Y-532186D01*
X-101485Y-485040D01*
X-148632Y-532186D02*
X-149081Y-550596D01*
X-131120Y-568556D01*
X-204309Y-551942D02*
X-222719Y-552391D01*
X-251006Y-580679D01*
X-251455Y-599089D01*
X-242475Y-608069D01*
X-224066Y-607620D01*
X-224515Y-626030D01*
X-215534Y-635010D01*
X-197125Y-634561D01*
X-168837Y-606273D01*
X-168388Y-587864D01*
X-205207Y-588762D02*
X-224066Y-607620D01*
X-280192Y-645786D02*
X-317011Y-646684D01*
X-263130Y-700566D01*
X-469795Y-502362D02*
X-437466Y-470033D01*
X-527269Y-444888D02*
X-494940Y-412559D01*
X-519045Y-321480D02*
X-572926Y-267599D01*
X-620072Y-314745D01*
X-620521Y-333155D01*
X-611541Y-342135D01*
X-593132Y-341686D01*
X-545985Y-294540D01*
X-593132Y-341686D02*
X-593581Y-360096D01*
X-575620Y-378056D01*
X-648809Y-361442D02*
X-667219Y-361891D01*
X-695506Y-390179D01*
X-695955Y-408589D01*
X-686975Y-417569D01*
X-668566Y-417120D01*
X-669015Y-435530D01*
X-660034Y-444510D01*
X-641625Y-444061D01*
X-613337Y-415773D01*
X-612888Y-397364D01*
X-649707Y-398262D02*
X-668566Y-417120D01*
X-724243Y-436876D02*
X-742653Y-437325D01*
X-770940Y-465613D01*
X-771389Y-484023D01*
X-762409Y-493003D01*
X-744000Y-492554D01*
X-715712Y-464266D01*
X-697302Y-463817D01*
X-679342Y-481778D01*
X-726488Y-528924D01*
X-850795Y-756363D02*
X-818466Y-724034D01*
X-908269Y-698889D02*
X-875940Y-666560D01*
X-646045Y-702480D02*
X-699926Y-648599D01*
X-747072Y-695745D01*
X-747521Y-714155D01*
X-738541Y-723135D01*
X-720132Y-722686D01*
X-672985Y-675540D01*
X-720132Y-722686D02*
X-720581Y-741096D01*
X-702620Y-759056D01*
X-775809Y-742442D02*
X-794219Y-742891D01*
X-822506Y-771179D01*
X-822955Y-789589D01*
X-813975Y-798569D01*
X-795566Y-798120D01*
X-796015Y-816530D01*
X-787034Y-825510D01*
X-768625Y-825061D01*
X-740337Y-796773D01*
X-739888Y-778364D01*
X-776707Y-779262D02*
X-795566Y-798120D01*
X-851243Y-817876D02*
X-869653Y-818325D01*
X-897940Y-846613D01*
X-898389Y-865023D01*
X-889409Y-874003D01*
X-871000Y-873554D01*
X-871449Y-891964D01*
X-862468Y-900944D01*
X-844059Y-900495D01*
X-815771Y-872207D01*
X-815322Y-853798D01*
X-852141Y-854696D02*
X-871000Y-873554D01*
X-1318493Y-867968D02*
X-1286164Y-835639D01*
X-1375967Y-810494D02*
X-1343638Y-778165D01*
X-1113743Y-814085D02*
X-1167624Y-760204D01*
X-1214770Y-807350D01*
X-1215219Y-825760D01*
X-1206239Y-834740D01*
X-1187830Y-834291D01*
X-1140683Y-787145D01*
X-1187830Y-834291D02*
X-1188279Y-852701D01*
X-1170318Y-870661D01*
X-1243507Y-854047D02*
X-1261917Y-854496D01*
X-1290204Y-882784D01*
X-1290653Y-901194D01*
X-1281673Y-910174D01*
X-1263264Y-909725D01*
X-1263713Y-928135D01*
X-1254732Y-937115D01*
X-1236323Y-936666D01*
X-1208035Y-908378D01*
X-1207586Y-889969D01*
X-1244405Y-890867D02*
X-1263264Y-909725D01*
X-1339147Y-1003569D02*
X-1282571Y-946993D01*
X-1356209Y-948789D01*
X-1302328Y-1002671D01*
X-888662Y-2745895D02*
X-888662Y-2700175D01*
X-969942Y-2745895D02*
X-969942Y-2700175D01*
X-1035982Y-2563015D02*
X-1112182Y-2563015D01*
X-1112182Y-2629690D01*
X-1099482Y-2643025D01*
X-1086782Y-2643025D01*
X-1074082Y-2629690D01*
X-1074082Y-2563015D01*
X-1074082Y-2629690D02*
X-1061382Y-2643025D01*
X-1035982Y-2643025D01*
X-1086782Y-2696365D02*
X-1112182Y-2723035D01*
X-1035982Y-2723035D01*
X-1099482Y-2856385D02*
X-1112182Y-2843050D01*
X-1112182Y-2803045D01*
X-1099482Y-2789710D01*
X-1048682Y-2789710D01*
X-1035982Y-2803045D01*
X-1035982Y-2843050D01*
X-1048682Y-2856385D01*
X-1061382Y-2856385D01*
X-1074082Y-2843050D01*
X-1074082Y-2789710D01*
X+1270338Y+1064105D02*
X+1270338Y+1109825D01*
X+1189058Y+1064105D02*
X+1189058Y+1109825D01*
X+1454543Y+1047723D02*
X+1378343Y+1047723D01*
X+1378343Y+981048D01*
X+1391043Y+967713D01*
X+1403743Y+967713D01*
X+1416443Y+981048D01*
X+1416443Y+1047723D01*
X+1416443Y+981048D02*
X+1429143Y+967713D01*
X+1454543Y+967713D01*
X+1416443Y+914373D02*
X+1403743Y+927708D01*
X+1391043Y+927708D01*
X+1378343Y+914373D01*
X+1378343Y+874368D01*
X+1391043Y+861033D01*
X+1403743Y+861033D01*
X+1416443Y+874368D01*
X+1416443Y+914373D01*
X+1429143Y+927708D01*
X+1441843Y+927708D01*
X+1454543Y+914373D01*
X+1454543Y+874368D01*
X+1441843Y+861033D01*
X+1429143Y+861033D01*
X+1416443Y+874368D01*
X-810494Y-1375968D02*
X-778165Y-1343639D01*
X-867968Y-1318494D02*
X-835639Y-1286165D01*
X-859744Y-1195085D02*
X-913625Y-1141204D01*
X-960771Y-1188350D01*
X-961220Y-1206760D01*
X-952240Y-1215740D01*
X-933831Y-1215291D01*
X-886684Y-1168145D01*
X-933831Y-1215291D02*
X-934280Y-1233701D01*
X-916319Y-1251661D01*
X-989957Y-1253457D02*
X-1026776Y-1254355D01*
X-972895Y-1308237D01*
X-1019592Y-1336973D02*
X-1055513Y-1301052D01*
X-1073922Y-1301501D01*
X-1111639Y-1339218D01*
X-1112088Y-1357628D01*
X-1076167Y-1393549D01*
X-1057758Y-1393100D01*
X-1020041Y-1355383D01*
X-1019592Y-1336973D01*
X-1010612Y-1345953D02*
X-1121069Y-1348648D01*
X-1650662Y-4000500D02*
X-1650662Y-3954780D01*
X-1731942Y-4000500D02*
X-1731942Y-3954780D01*
X-1797982Y-3870960D02*
X-1874182Y-3870960D01*
X-1874182Y-3937635D01*
X-1861482Y-3950970D01*
X-1848782Y-3950970D01*
X-1836082Y-3937635D01*
X-1836082Y-3870960D01*
X-1836082Y-3937635D02*
X-1823382Y-3950970D01*
X-1797982Y-3950970D01*
X-1848782Y-4057650D02*
X-1836082Y-4044315D01*
X-1836082Y-4004310D01*
X-1848782Y-3990975D01*
X-1861482Y-3990975D01*
X-1874182Y-4004310D01*
X-1874182Y-4044315D01*
X-1861482Y-4057650D01*
X-1810682Y-4057650D01*
X-1797982Y-4044315D01*
X-1797982Y-4004310D01*
D34*
X-2077000Y-4450000D02*
X+2123000Y-4450000D01*
X+2123000Y+3750000D01*
X-2077000Y+3750000D01*
X-2077000Y-4450000D01*
D53*
X+1680000Y+2105000D02*
X+1680000Y+2105000D01*
X+1680000Y+2130000D01*
X+1680000Y+2130000D01*
X+1680000Y+2105000D01*
X+1880000Y+2105000D01*
X+1880000Y+2105000D01*
X+1680000Y+2105000D01*
X+1680000Y+2105000D01*
X+1880000Y+2105000D02*
X+1880000Y+2105000D01*
X+1880000Y+2130000D01*
X+1880000Y+2130000D01*
X+1880000Y+2105000D01*
D56*
X+1900000Y+1700000D02*
X+1905000Y+1695000D01*
X+1900000Y+1690000D01*
X+1895000Y+1695000D01*
X+1900000Y+1700000D01*
D54*
X+1986400Y+2595680D02*
X+2062600Y+2515670D01*
X+2062600Y+2595680D02*
X+1986400Y+2515670D01*
X+1999100Y+2475665D02*
X+1986400Y+2462330D01*
X+1986400Y+2422325D01*
X+1999100Y+2408990D01*
X+2011800Y+2408990D01*
X+2024500Y+2422325D01*
X+2024500Y+2462330D01*
X+2037200Y+2475665D01*
X+2062600Y+2475665D01*
X+2062600Y+2408990D01*
X-1813560Y+238760D02*
X-1813560Y+149860D01*
X-1925320Y+132080D02*
X-1925320Y+60960D01*
X-1813560Y+238760D02*
X-1905000Y+238760D01*
X-1907540Y-50800D02*
X-1813560Y-50800D01*
X-1813560Y+35560D01*
X-1585821Y-12139D02*
X-1612491Y+13261D01*
X-1639161Y+13261D01*
X-1665831Y-12139D01*
X-1665831Y-37539D01*
X-1639161Y-62939D01*
X-1612491Y-62939D01*
X-1585821Y-37539D01*
X-1585821Y-12139D01*
X-1639161Y-37539D02*
X-1665831Y-62939D01*
X-1719171Y-12139D02*
X-1745841Y+13261D01*
X-1745841Y-62939D01*
X-1685240Y-142240D02*
X-1685240Y-231140D01*
X-1797000Y-248920D02*
X-1797000Y-320040D01*
X-1685240Y-142240D02*
X-1776680Y-142240D01*
X-1779220Y-431800D02*
X-1685240Y-431800D01*
X-1685240Y-345440D01*
X-1451298Y-420631D02*
X-1477968Y-395231D01*
X-1504638Y-395231D01*
X-1531308Y-420631D01*
X-1531308Y-446031D01*
X-1504638Y-471431D01*
X-1477968Y-471431D01*
X-1451298Y-446031D01*
X-1451298Y-420631D01*
X-1504638Y-446031D02*
X-1531308Y-471431D01*
X-1571313Y-407931D02*
X-1584648Y-395231D01*
X-1624653Y-395231D01*
X-1637988Y-407931D01*
X-1637988Y-420631D01*
X-1624653Y-433331D01*
X-1584648Y-433331D01*
X-1571313Y-446031D01*
X-1571313Y-471431D01*
X-1637988Y-471431D01*
X-1788776Y+347395D02*
X-1837270Y+395888D01*
X-1874987Y+261184D02*
X-1925276Y+311474D01*
X-1848046Y+532389D02*
X-1901927Y+478508D01*
X-1854781Y+431362D01*
X-1836371Y+430913D01*
X-1827391Y+439893D01*
X-1827840Y+458302D01*
X-1874986Y+505449D01*
X-1827840Y+458302D02*
X-1809430Y+457853D01*
X-1791470Y+475814D01*
X-1789674Y+402176D02*
X-1788776Y+365357D01*
X-1734894Y+419238D01*
X-1714240Y+326742D02*
X-1713342Y+289923D01*
X-1659460Y+343804D01*
X-1824016Y-646459D02*
X-1791687Y-678788D01*
X-1766542Y-588985D02*
X-1734213Y-621314D01*
X-1615413Y-497883D02*
X-1669294Y-551764D01*
X-1622148Y-598910D01*
X-1603738Y-599359D01*
X-1594758Y-590379D01*
X-1595207Y-571970D01*
X-1642353Y-524823D01*
X-1595207Y-571970D02*
X-1576797Y-572419D01*
X-1558837Y-554458D01*
X-1557041Y-628096D02*
X-1556143Y-664915D01*
X-1502261Y-611034D01*
X-1461850Y-759208D02*
X-1508997Y-712061D01*
X-1491036Y-694101D01*
X-1453319Y-731818D01*
X-1434910Y-732267D01*
X-1416949Y-714306D01*
X-1417398Y-695897D01*
X-1445686Y-667609D01*
X-1464095Y-667160D01*
X-1821133Y-1084627D02*
X-1752553Y-1084627D01*
X-1821133Y-962707D02*
X-1750013Y-962707D01*
X-1628093Y-1191307D02*
X-1628093Y-1115107D01*
X-1694768Y-1115107D01*
X-1708103Y-1127807D01*
X-1708103Y-1140507D01*
X-1694768Y-1153207D01*
X-1628093Y-1153207D01*
X-1694768Y-1153207D02*
X-1708103Y-1165907D01*
X-1708103Y-1191307D01*
X-1761443Y-1140507D02*
X-1788113Y-1115107D01*
X-1788113Y-1191307D01*
X-1854788Y-1127807D02*
X-1868123Y-1115107D01*
X-1908128Y-1115107D01*
X-1921463Y-1127807D01*
X-1921463Y-1140507D01*
X-1908128Y-1153207D01*
X-1921463Y-1165907D01*
X-1921463Y-1178607D01*
X-1908128Y-1191307D01*
X-1868123Y-1191307D01*
X-1854788Y-1178607D01*
X-1881458Y-1153207D02*
X-1908128Y-1153207D01*
X-1945640Y-825500D02*
X-1945640Y-871220D01*
X-1864360Y-825500D02*
X-1864360Y-871220D01*
X-1735310Y-688340D02*
X-1811510Y-688340D01*
X-1811510Y-755015D01*
X-1798810Y-768350D01*
X-1786110Y-768350D01*
X-1773410Y-755015D01*
X-1773410Y-688340D01*
X-1773410Y-755015D02*
X-1760710Y-768350D01*
X-1735310Y-768350D01*
X-1786110Y-821690D02*
X-1811510Y-848360D01*
X-1735310Y-848360D01*
X-1798810Y-915035D02*
X-1811510Y-928370D01*
X-1811510Y-968375D01*
X-1798810Y-981710D01*
X-1786110Y-981710D01*
X-1773410Y-968375D01*
X-1773410Y-928370D01*
X-1760710Y-915035D01*
X-1735310Y-915035D01*
X-1735310Y-981710D01*
X-1465580Y+33020D02*
X-1465580Y+101600D01*
X-1587500Y+33020D02*
X-1587500Y+104140D01*
X-1376680Y+205740D02*
X-1452880Y+205740D01*
X-1452880Y+139065D01*
X-1440180Y+125730D01*
X-1427480Y+125730D01*
X-1414780Y+139065D01*
X-1414780Y+205740D01*
X-1414780Y+139065D02*
X-1402080Y+125730D01*
X-1376680Y+125730D01*
X-1427480Y+72390D02*
X-1452880Y+45720D01*
X-1376680Y+45720D01*
X-1402080Y-87630D02*
X-1402080Y-7620D01*
X-1452880Y-60960D01*
X-1376680Y-60960D01*
X-1465581Y+876300D02*
X-1465581Y+944880D01*
X-1587501Y+876300D02*
X-1587501Y+947420D01*
X-1652268Y+981709D02*
X-1728468Y+981709D01*
X-1728468Y+915034D01*
X-1715768Y+901699D01*
X-1703068Y+901699D01*
X-1690368Y+915034D01*
X-1690368Y+981709D01*
X-1690368Y+915034D02*
X-1677668Y+901699D01*
X-1652268Y+901699D01*
X-1715768Y+861694D02*
X-1728468Y+848359D01*
X-1728468Y+808354D01*
X-1715768Y+795019D01*
X-1703068Y+795019D01*
X-1690368Y+808354D01*
X-1677668Y+795019D01*
X-1664968Y+795019D01*
X-1652268Y+808354D01*
X-1652268Y+848359D01*
X-1664968Y+861694D01*
X-1690368Y+835024D02*
X-1690368Y+808354D01*
M02*
