G04 PROTEUS GERBER X2 FILE*
%TF.GenerationSoftware,Labcenter,Proteus,8.16-SP3-Build36097*%
%TF.CreationDate,2024-05-04T02:13:19+00:00*%
%TF.FileFunction,Copper,L1,Top*%
%TF.FilePolarity,Positive*%
%TF.Part,Single*%
%TF.SameCoordinates,{03efdd39-6268-421f-b844-547f2104f690}*%
%FSLAX45Y45*%
%MOMM*%
G01*
%TA.AperFunction,Conductor*%
%ADD10C,0.762000*%
%ADD11C,0.381000*%
%ADD12C,0.635000*%
%TA.AperFunction,ViaPad*%
%ADD13C,1.270000*%
%TA.AperFunction,Conductor*%
%ADD14C,0.254000*%
%TA.AperFunction,ComponentPad*%
%ADD15C,1.524000*%
%ADD16R,1.117220X1.117220*%
%ADD17C,1.580000*%
%TA.AperFunction,SMDPad,CuDef*%
%ADD18R,1.016000X1.524000*%
%ADD19R,2.032000X2.540000*%
%ADD70R,1.016000X0.889000*%
%TA.AperFunction,SMDPad,CuDef*%
%ADD71R,6.985000X6.985000*%
%ADD20R,1.524000X2.540000*%
%TA.AperFunction,SMDPad,CuDef*%
%ADD21R,0.406400X0.457200*%
%ADD22R,1.016000X1.270000*%
%ADD23R,2.032000X2.032000*%
%ADD24R,0.889000X0.889000*%
%ADD25R,1.600200X3.149600*%
%ADD26R,1.651000X2.895600*%
%ADD27R,1.524000X1.016000*%
%TA.AperFunction,ComponentPad*%
%ADD28R,0.924960X0.924960*%
%ADD29C,1.308100*%
%TA.AperFunction,ComponentPad*%
%ADD72R,1.060660X1.060660*%
%ADD73C,1.500000*%
%TA.AperFunction,ComponentPad*%
%ADD30R,2.032000X2.032000*%
%TA.AperFunction,WasherPad*%
%ADD31R,0.919230X0.919230*%
%TA.AperFunction,ComponentPad*%
%ADD32C,1.300000*%
%TA.AperFunction,OtherPad,Unknown*%
%ADD33C,4.572000*%
%TA.AperFunction,Profile*%
%ADD34C,0.101600*%
%TD.AperFunction*%
%TA.AperFunction,Conductor*%
G36*
X+2060770Y-4387770D02*
X-2014770Y-4387770D01*
X-2014770Y-3581972D01*
X-1892153Y-3704589D01*
X-1663847Y-3704589D01*
X-1502411Y-3543153D01*
X-1502411Y-3314847D01*
X-1663847Y-3153411D01*
X-1892153Y-3153411D01*
X-2014770Y-3276028D01*
X-2014770Y+3149028D01*
X-1892153Y+3026411D01*
X-1667509Y+3026411D01*
X-1667509Y+2523491D01*
X-1380491Y+2523491D01*
X-1380491Y+3064509D01*
X-1625749Y+3064509D01*
X-1502411Y+3187847D01*
X-1502411Y+3416153D01*
X-1663847Y+3577589D01*
X-1892153Y+3577589D01*
X-2014770Y+3454972D01*
X-2014770Y+3687770D01*
X-16509Y+3687770D01*
X-16509Y+3572509D01*
X-491491Y+3572509D01*
X-491491Y+3684114D01*
X-778509Y+3684114D01*
X-778509Y+3143096D01*
X-491491Y+3143096D01*
X-491491Y+3285491D01*
X-16509Y+3285491D01*
X-16509Y+3158491D01*
X+270509Y+3158491D01*
X+270509Y+3687770D01*
X+364491Y+3687770D01*
X+364491Y+3158491D01*
X+624059Y+3158491D01*
X+624059Y+3056261D01*
X+436623Y+2868825D01*
X+436623Y+1474373D01*
X+415952Y+1453702D01*
X+378904Y+1453702D01*
X+378904Y+1583689D01*
X+129986Y+1583689D01*
X+129986Y+1385689D01*
X+19597Y+1275300D01*
X+19597Y+1416489D01*
X-153121Y+1416489D01*
X-153121Y+1251080D01*
X-153123Y+1251078D01*
X-153123Y+1416489D01*
X-266413Y+1416489D01*
X-266413Y+1427539D01*
X-451831Y+1427539D01*
X-451831Y+1259583D01*
X-479773Y+1287525D01*
X-479773Y+1427539D01*
X-665191Y+1427539D01*
X-665191Y+1216721D01*
X-581385Y+1216721D01*
X-561051Y+1196387D01*
X-561051Y+1148139D01*
X-831563Y+1148139D01*
X-831563Y+1267519D01*
X-1075401Y+1267519D01*
X-1075401Y+1148139D01*
X-1317973Y+1148139D01*
X-1317973Y+1211639D01*
X-1604991Y+1211639D01*
X-1604991Y+1131564D01*
X-1629073Y+1131564D01*
X-1629073Y+1135374D01*
X-1753531Y+1135374D01*
X-1753531Y+935836D01*
X-1706924Y+935836D01*
X-1746970Y+895790D01*
X-1746970Y+531409D01*
X-1746971Y+531409D01*
X-1746971Y+473148D01*
X-1731790Y+457967D01*
X-1731790Y+360297D01*
X-1495572Y+360297D01*
X-1495572Y+502981D01*
X-1317973Y+502981D01*
X-1317973Y+789999D01*
X-1586954Y+789999D01*
X-1586954Y+829510D01*
X-1491843Y+924621D01*
X-1317973Y+924621D01*
X-1317973Y+988121D01*
X-1075401Y+988121D01*
X-1075401Y+868741D01*
X-831563Y+868741D01*
X-831563Y+988121D01*
X-593811Y+988121D01*
X-593811Y+584639D01*
X-636991Y+584639D01*
X-636991Y+309730D01*
X-726055Y+309730D01*
X-756535Y+340210D01*
X-848067Y+340210D01*
X-912790Y+275487D01*
X-912790Y+183955D01*
X-875960Y+147125D01*
X-875960Y-333110D01*
X-896402Y-353552D01*
X-948489Y-353552D01*
X-1013212Y-418275D01*
X-1013212Y-509807D01*
X-948489Y-574530D01*
X-856957Y-574530D01*
X-792234Y-509807D01*
X-792234Y-457720D01*
X-728642Y-394128D01*
X-728642Y+147125D01*
X-726055Y+149712D01*
X-250112Y+149712D01*
X-102203Y+297621D01*
X-38097Y+297621D01*
X-22373Y+281898D01*
X-22373Y-374940D01*
X+163013Y-560326D01*
X+163013Y-603433D01*
X+227736Y-668156D01*
X+319268Y-668156D01*
X+383991Y-603433D01*
X+383991Y-511901D01*
X+319268Y-447178D01*
X+276161Y-447178D01*
X+137645Y-308662D01*
X+137645Y+348176D01*
X+71667Y+414154D01*
X+71667Y+584639D01*
X-53743Y+584639D01*
X-53743Y+1008441D01*
X-20966Y+1008441D01*
X+180904Y+1210311D01*
X+378904Y+1210311D01*
X+378904Y+1293684D01*
X+415952Y+1293684D01*
X+446432Y+1263204D01*
X+537964Y+1263204D01*
X+602687Y+1327927D01*
X+602687Y+1419459D01*
X+596641Y+1425505D01*
X+596641Y+2802547D01*
X+737207Y+2943113D01*
X+737209Y+2943113D01*
X+784077Y+2989981D01*
X+784077Y+3143096D01*
X+1030161Y+3143096D01*
X+1030161Y+3684114D01*
X+743143Y+3684114D01*
X+743143Y+3554767D01*
X+670929Y+3482553D01*
X+670927Y+3482553D01*
X+651509Y+3463135D01*
X+651509Y+3687770D01*
X+1126491Y+3687770D01*
X+1126491Y+3158491D01*
X+1413509Y+3158491D01*
X+1413509Y+3687770D01*
X+2060770Y+3687770D01*
X+2060770Y-4387770D01*
G37*
%TD.AperFunction*%
%LPC*%
G36*
X+1024891Y-289922D02*
X+1024891Y-192078D01*
X+1094078Y-122891D01*
X+1191922Y-122891D01*
X+1261109Y-192078D01*
X+1261109Y-289922D01*
X+1191922Y-359109D01*
X+1094078Y-359109D01*
X+1024891Y-289922D01*
G37*
G36*
X+1024891Y-1064922D02*
X+1024891Y-967078D01*
X+1094078Y-897891D01*
X+1191922Y-897891D01*
X+1261109Y-967078D01*
X+1261109Y-1064922D01*
X+1191922Y-1134109D01*
X+1094078Y-1134109D01*
X+1024891Y-1064922D01*
G37*
G36*
X-1072813Y+30371D02*
X-1072813Y-39676D01*
X-1056082Y-56406D01*
X-1020373Y-92115D01*
X-1020373Y-534098D01*
X-836691Y-717780D01*
X+695105Y-717780D01*
X+865209Y-547676D01*
X+865209Y-477629D01*
X+929932Y-412906D01*
X+1021464Y-412906D01*
X+1086187Y-477629D01*
X+1086187Y-569161D01*
X+1021464Y-633884D01*
X+951417Y-633884D01*
X+745603Y-839698D01*
X-887189Y-839698D01*
X-1142291Y-584596D01*
X-1142291Y-367165D01*
X-1281072Y-367165D01*
X-1281072Y-171625D01*
X-1142291Y-171625D01*
X-1142291Y-142614D01*
X-1159021Y-125884D01*
X-1229068Y-125884D01*
X-1293791Y-61161D01*
X-1293791Y+30371D01*
X-1229068Y+95094D01*
X-1137536Y+95094D01*
X-1072813Y+30371D01*
G37*
G36*
X-1495572Y+45337D02*
X-1507886Y+45337D01*
X-1400163Y-62386D01*
X-1400161Y-62386D01*
X-1353293Y-109254D01*
X-1353293Y-178413D01*
X-1312393Y-219313D01*
X-1312393Y-319477D01*
X-1383220Y-390304D01*
X-1483384Y-390304D01*
X-1554211Y-319477D01*
X-1554211Y-219313D01*
X-1513311Y-178413D01*
X-1513311Y-175534D01*
X-1693690Y+4845D01*
X-1693690Y+45337D01*
X-1731790Y+45337D01*
X-1731790Y+230755D01*
X-1495572Y+230755D01*
X-1495572Y+45337D01*
G37*
G36*
X-1281072Y-2838625D02*
X-1085532Y-2838625D01*
X-1085532Y-3034165D01*
X-1281072Y-3034165D01*
X-1281072Y-2838625D01*
G37*
G36*
X-1278553Y-2546504D02*
X-1353293Y-2546504D01*
X-1353293Y-2845413D01*
X-1312393Y-2886313D01*
X-1312393Y-2986477D01*
X-1383220Y-3057304D01*
X-1483384Y-3057304D01*
X-1554211Y-2986477D01*
X-1554211Y-2886313D01*
X-1513311Y-2845413D01*
X-1513311Y-2457296D01*
X-1463971Y-2407956D01*
X-1463971Y-2310286D01*
X-1278553Y-2310286D01*
X-1278553Y-2546504D01*
G37*
G36*
X+1050857Y-3708554D02*
X+268539Y-3708554D01*
X+268539Y-2926236D01*
X+1050857Y-2926236D01*
X+1050857Y-3708554D01*
G37*
G36*
X+1449407Y+2350614D02*
X+1770837Y+2350614D01*
X+1944707Y+2176744D01*
X+1944707Y-2145534D01*
X+1848187Y-2242054D01*
X+1848187Y-2285161D01*
X+1783464Y-2349884D01*
X+1740357Y-2349884D01*
X+1543617Y-2546624D01*
X+1543617Y-2754784D01*
X+1412697Y-2754784D01*
X+1348329Y-2819152D01*
X+1348329Y-2846006D01*
X+1543617Y-2846006D01*
X+1543617Y-3244784D01*
X+1348329Y-3244784D01*
X+1348329Y-3408498D01*
X+1378809Y-3438978D01*
X+1378809Y-3530510D01*
X+1314086Y-3595233D01*
X+1222554Y-3595233D01*
X+1157831Y-3530510D01*
X+1157831Y-3438978D01*
X+1188311Y-3408498D01*
X+1188311Y-2752874D01*
X+1234661Y-2706524D01*
X+1006407Y-2706524D01*
X+1006407Y-2795424D01*
X+770189Y-2795424D01*
X+770189Y-2583264D01*
X+707829Y-2583264D01*
X+707829Y-2296246D01*
X+994847Y-2296246D01*
X+994847Y-2342036D01*
X+1062057Y-2342036D01*
X+1062057Y-2514754D01*
X+1006407Y-2514754D01*
X+1006407Y-2546506D01*
X+1299779Y-2546506D01*
X+1299779Y-2356006D01*
X+1507939Y-2356006D01*
X+1627209Y-2236736D01*
X+1627209Y-2193629D01*
X+1691932Y-2128906D01*
X+1735039Y-2128906D01*
X+1784689Y-2079256D01*
X+1784689Y-54612D01*
X+365947Y-1473354D01*
X-539704Y-1473354D01*
X-589234Y-1522884D01*
X-680766Y-1522884D01*
X-745489Y-1458161D01*
X-745489Y-1366629D01*
X-680766Y-1301906D01*
X-589234Y-1301906D01*
X-539704Y-1351436D01*
X+315449Y-1351436D01*
X+1715871Y+48986D01*
X+1715871Y+837634D01*
X+1536427Y+1017078D01*
X+1246207Y+1017078D01*
X+1246207Y+730096D01*
X+705189Y+730096D01*
X+705189Y+997908D01*
X+705121Y+997840D01*
X+705121Y+954641D01*
X+640398Y+889918D01*
X+548866Y+889918D01*
X+484143Y+954641D01*
X+484143Y+1046173D01*
X+548866Y+1110896D01*
X+640398Y+1110896D01*
X+643079Y+1108214D01*
X+1319415Y+1784550D01*
X+1529071Y+1784550D01*
X+1529071Y+1853834D01*
X+1527149Y+1851912D01*
X+1438247Y+1851912D01*
X+1382698Y+1907461D01*
X+1327149Y+1851912D01*
X+1238247Y+1851912D01*
X+1182698Y+1907461D01*
X+1127149Y+1851912D01*
X+1038247Y+1851912D01*
X+975384Y+1914775D01*
X+975384Y+1953392D01*
X+970855Y+1957921D01*
X+970855Y+1871069D01*
X+794541Y+1871069D01*
X+794541Y+2047383D01*
X+961729Y+2047383D01*
X+961729Y+2152496D01*
X+949029Y+2152496D01*
X+949029Y+2388714D01*
X+1134447Y+2388714D01*
X+1134447Y+2152496D01*
X+1121747Y+2152496D01*
X+1121747Y+2066540D01*
X+1127149Y+2066540D01*
X+1182698Y+2010991D01*
X+1238247Y+2066540D01*
X+1327149Y+2066540D01*
X+1382698Y+2010991D01*
X+1420288Y+2048581D01*
X+1378918Y+2089952D01*
X+1378918Y+2152496D01*
X+1263989Y+2152496D01*
X+1263989Y+2388714D01*
X+1449407Y+2388714D01*
X+1449407Y+2350614D01*
G37*
G36*
X+573207Y-2583264D02*
X+549207Y-2583264D01*
X+549207Y-2795424D01*
X+312989Y-2795424D01*
X+312989Y-2706524D01*
X+19617Y-2706524D01*
X+19617Y-2754784D01*
X-224221Y-2754784D01*
X-224221Y-2635404D01*
X-466793Y-2635404D01*
X-466793Y-2698904D01*
X-753811Y-2698904D01*
X-753811Y-2690164D01*
X-864531Y-2690164D01*
X-864531Y-2508404D01*
X-963593Y-2508404D01*
X-963593Y-2546504D01*
X-1149011Y-2546504D01*
X-1149011Y-2310286D01*
X-963593Y-2310286D01*
X-963593Y-2348386D01*
X-704163Y-2348386D01*
X-640663Y-2411886D01*
X-466793Y-2411886D01*
X-466793Y-2475386D01*
X-224221Y-2475386D01*
X-224221Y-2356006D01*
X+19617Y-2356006D01*
X+19617Y-2546506D01*
X+286189Y-2546506D01*
X+286189Y-2545164D01*
X+250629Y-2545164D01*
X+250629Y-2334346D01*
X+286189Y-2334346D01*
X+286189Y-2296246D01*
X+573207Y-2296246D01*
X+573207Y-2583264D01*
G37*
G36*
X-753811Y-3120544D02*
X-753811Y-2833526D01*
X-466793Y-2833526D01*
X-466793Y-3120544D01*
X-753811Y-3120544D01*
G37*
G36*
X+1062059Y-2342036D02*
X+1234777Y-2342036D01*
X+1234777Y-2514754D01*
X+1062059Y-2514754D01*
X+1062059Y-2342036D01*
G37*
G36*
X+222687Y-2545164D02*
X+37269Y-2545164D01*
X+37269Y-2334346D01*
X+222687Y-2334346D01*
X+222687Y-2545164D01*
G37*
G36*
X-224221Y-2846006D02*
X+19617Y-2846006D01*
X+19617Y-3244784D01*
X-224221Y-3244784D01*
X-224221Y-2846006D01*
G37*
G36*
X-1075401Y+777519D02*
X-831563Y+777519D01*
X-831563Y+378741D01*
X-1075401Y+378741D01*
X-1075401Y+777519D01*
G37*
G36*
X+129986Y+1153689D02*
X+378904Y+1153689D01*
X+378904Y+780311D01*
X+129986Y+780311D01*
X+129986Y+1153689D01*
G37*
G36*
X-588145Y+1871069D02*
X-764459Y+1871069D01*
X-764459Y+2047383D01*
X-588145Y+2047383D01*
X-588145Y+1871069D01*
G37*
G36*
X+431012Y+2003677D02*
X+431012Y+1914775D01*
X+384657Y+1868420D01*
X+384657Y+1730938D01*
X+238948Y+1585228D01*
X-632524Y+1585228D01*
X-684866Y+1532886D01*
X-684866Y+1462839D01*
X-749589Y+1398116D01*
X-841121Y+1398116D01*
X-905844Y+1462839D01*
X-905844Y+1554371D01*
X-841121Y+1619094D01*
X-771074Y+1619094D01*
X-683023Y+1707146D01*
X+188449Y+1707146D01*
X+262739Y+1781436D01*
X+262739Y+1868420D01*
X+223698Y+1907461D01*
X+168149Y+1851912D01*
X+79247Y+1851912D01*
X+23698Y+1907461D01*
X-31851Y+1851912D01*
X-120753Y+1851912D01*
X-176302Y+1907461D01*
X-231851Y+1851912D01*
X-320753Y+1851912D01*
X-376302Y+1907461D01*
X-431851Y+1851912D01*
X-520753Y+1851912D01*
X-583616Y+1914775D01*
X-583616Y+2003677D01*
X-520753Y+2066540D01*
X-431851Y+2066540D01*
X-376302Y+2010991D01*
X-320753Y+2066540D01*
X-231851Y+2066540D01*
X-176302Y+2010991D01*
X-120753Y+2066540D01*
X-31851Y+2066540D01*
X+23698Y+2010991D01*
X+79247Y+2066540D01*
X+168149Y+2066540D01*
X+223698Y+2010991D01*
X+279247Y+2066540D01*
X+368149Y+2066540D01*
X+431012Y+2003677D01*
G37*
G36*
X-128459Y-943238D02*
X+47855Y-943238D01*
X+47855Y-1119552D01*
X-128459Y-1119552D01*
X-128459Y-943238D01*
G37*
G36*
X-132988Y-986944D02*
X-132988Y-1075846D01*
X-195851Y-1138709D01*
X-284753Y-1138709D01*
X-340302Y-1083160D01*
X-395851Y-1138709D01*
X-484753Y-1138709D01*
X-540302Y-1083160D01*
X-595851Y-1138709D01*
X-684753Y-1138709D01*
X-740302Y-1083160D01*
X-795851Y-1138709D01*
X-884753Y-1138709D01*
X-940302Y-1083160D01*
X-995851Y-1138709D01*
X-1084753Y-1138709D01*
X-1140302Y-1083160D01*
X-1195851Y-1138709D01*
X-1284753Y-1138709D01*
X-1340302Y-1083160D01*
X-1395851Y-1138709D01*
X-1484753Y-1138709D01*
X-1547616Y-1075846D01*
X-1547616Y-986944D01*
X-1484753Y-924081D01*
X-1395851Y-924081D01*
X-1340302Y-979630D01*
X-1284753Y-924081D01*
X-1195851Y-924081D01*
X-1140302Y-979630D01*
X-1084753Y-924081D01*
X-995851Y-924081D01*
X-940302Y-979630D01*
X-884753Y-924081D01*
X-795851Y-924081D01*
X-740302Y-979630D01*
X-684753Y-924081D01*
X-595851Y-924081D01*
X-540302Y-979630D01*
X-484753Y-924081D01*
X-395851Y-924081D01*
X-340302Y-979630D01*
X-284753Y-924081D01*
X-195851Y-924081D01*
X-132988Y-986944D01*
G37*
G36*
X-1341177Y-2069297D02*
X-1517491Y-2069297D01*
X-1517491Y-1892983D01*
X-1341177Y-1892983D01*
X-1341177Y-2069297D01*
G37*
G36*
X-722020Y-1936689D02*
X-722020Y-2025591D01*
X-784883Y-2088454D01*
X-873785Y-2088454D01*
X-929334Y-2032905D01*
X-984883Y-2088454D01*
X-1073785Y-2088454D01*
X-1129334Y-2032905D01*
X-1184883Y-2088454D01*
X-1273785Y-2088454D01*
X-1336648Y-2025591D01*
X-1336648Y-1936689D01*
X-1273785Y-1873826D01*
X-1184883Y-1873826D01*
X-1129334Y-1929375D01*
X-1073785Y-1873826D01*
X-984883Y-1873826D01*
X-929334Y-1929375D01*
X-873785Y-1873826D01*
X-784883Y-1873826D01*
X-722020Y-1936689D01*
G37*
G36*
X-198269Y-2074807D02*
X-374583Y-2074807D01*
X-374583Y-1898493D01*
X-198269Y-1898493D01*
X-198269Y-2074807D01*
G37*
G36*
X+420888Y-1942199D02*
X+420888Y-2031101D01*
X+358025Y-2093964D01*
X+269123Y-2093964D01*
X+213574Y-2038415D01*
X+158025Y-2093964D01*
X+69123Y-2093964D01*
X+13574Y-2038415D01*
X-41975Y-2093964D01*
X-130877Y-2093964D01*
X-193740Y-2031101D01*
X-193740Y-1942199D01*
X-130877Y-1879336D01*
X-41975Y-1879336D01*
X+13574Y-1934885D01*
X+69123Y-1879336D01*
X+158025Y-1879336D01*
X+213574Y-1934885D01*
X+269123Y-1879336D01*
X+358025Y-1879336D01*
X+420888Y-1942199D01*
G37*
G36*
X+944731Y-2074807D02*
X+768417Y-2074807D01*
X+768417Y-1898493D01*
X+944731Y-1898493D01*
X+944731Y-2074807D01*
G37*
G36*
X+1563888Y-1942199D02*
X+1563888Y-2031101D01*
X+1501025Y-2093964D01*
X+1412123Y-2093964D01*
X+1356574Y-2038415D01*
X+1301025Y-2093964D01*
X+1212123Y-2093964D01*
X+1156574Y-2038415D01*
X+1101025Y-2093964D01*
X+1012123Y-2093964D01*
X+949260Y-2031101D01*
X+949260Y-1942199D01*
X+1012123Y-1879336D01*
X+1101025Y-1879336D01*
X+1156574Y-1934885D01*
X+1212123Y-1879336D01*
X+1301025Y-1879336D01*
X+1356574Y-1934885D01*
X+1412123Y-1879336D01*
X+1501025Y-1879336D01*
X+1563888Y-1942199D01*
G37*
G36*
X+1368417Y-3820493D02*
X+1544731Y-3820493D01*
X+1544731Y-3996807D01*
X+1368417Y-3996807D01*
X+1368417Y-3820493D01*
G37*
G36*
X+1363888Y-3864199D02*
X+1363888Y-3953101D01*
X+1301025Y-4015964D01*
X+1212123Y-4015964D01*
X+1156574Y-3960415D01*
X+1101025Y-4015964D01*
X+1012123Y-4015964D01*
X+956574Y-3960415D01*
X+901025Y-4015964D01*
X+812123Y-4015964D01*
X+749260Y-3953101D01*
X+749260Y-3864199D01*
X+812123Y-3801336D01*
X+901025Y-3801336D01*
X+956574Y-3856885D01*
X+1012123Y-3801336D01*
X+1101025Y-3801336D01*
X+1156574Y-3856885D01*
X+1212123Y-3801336D01*
X+1301025Y-3801336D01*
X+1363888Y-3864199D01*
G37*
G36*
X+225417Y-3820493D02*
X+401731Y-3820493D01*
X+401731Y-3996807D01*
X+225417Y-3996807D01*
X+225417Y-3820493D01*
G37*
G36*
X+220888Y-3864199D02*
X+220888Y-3953101D01*
X+158025Y-4015964D01*
X+69123Y-4015964D01*
X+13574Y-3960415D01*
X-41975Y-4015964D01*
X-130877Y-4015964D01*
X-186426Y-3960415D01*
X-241975Y-4015964D01*
X-330877Y-4015964D01*
X-393740Y-3953101D01*
X-393740Y-3864199D01*
X-330877Y-3801336D01*
X-241975Y-3801336D01*
X-186426Y-3856885D01*
X-130877Y-3801336D01*
X-41975Y-3801336D01*
X+13574Y-3856885D01*
X+69123Y-3801336D01*
X+158025Y-3801336D01*
X+220888Y-3864199D01*
G37*
G36*
X-917583Y-3820493D02*
X-741269Y-3820493D01*
X-741269Y-3996807D01*
X-917583Y-3996807D01*
X-917583Y-3820493D01*
G37*
G36*
X-922112Y-3864199D02*
X-922112Y-3953101D01*
X-984975Y-4015964D01*
X-1073877Y-4015964D01*
X-1129426Y-3960415D01*
X-1184975Y-4015964D01*
X-1273877Y-4015964D01*
X-1329426Y-3960415D01*
X-1384975Y-4015964D01*
X-1473877Y-4015964D01*
X-1536740Y-3953101D01*
X-1536740Y-3864199D01*
X-1473877Y-3801336D01*
X-1384975Y-3801336D01*
X-1329426Y-3856885D01*
X-1273877Y-3801336D01*
X-1184975Y-3801336D01*
X-1129426Y-3856885D01*
X-1073877Y-3801336D01*
X-984975Y-3801336D01*
X-922112Y-3864199D01*
G37*
G36*
X-1019360Y+2365547D02*
X-1019360Y+2175663D01*
X-1209244Y+2175663D01*
X-1209244Y+2365547D01*
X-1019360Y+2365547D01*
G37*
G36*
X-1162727Y+1737514D02*
X-1065877Y+1737514D01*
X-997393Y+1669030D01*
X-997393Y+1572180D01*
X-1065877Y+1503696D01*
X-1162727Y+1503696D01*
X-1231211Y+1572180D01*
X-1231211Y+1669030D01*
X-1162727Y+1737514D01*
G37*
G36*
X-1612727Y+2387514D02*
X-1515877Y+2387514D01*
X-1447393Y+2319030D01*
X-1447393Y+2222180D01*
X-1515877Y+2153696D01*
X-1612727Y+2153696D01*
X-1681211Y+2222180D01*
X-1681211Y+2319030D01*
X-1612727Y+2387514D01*
G37*
G36*
X-1612727Y+1737514D02*
X-1515877Y+1737514D01*
X-1447393Y+1669030D01*
X-1447393Y+1572180D01*
X-1515877Y+1503696D01*
X-1612727Y+1503696D01*
X-1681211Y+1572180D01*
X-1681211Y+1669030D01*
X-1612727Y+1737514D01*
G37*
G36*
X+976870Y+39130D02*
X+801130Y+39130D01*
X+801130Y+214870D01*
X+976870Y+214870D01*
X+976870Y+39130D01*
G37*
G36*
X+782091Y+336717D02*
X+782091Y+425283D01*
X+844717Y+487909D01*
X+933283Y+487909D01*
X+995909Y+425283D01*
X+995909Y+336717D01*
X+933283Y+274091D01*
X+844717Y+274091D01*
X+782091Y+336717D01*
G37*
G36*
X+1036091Y+82717D02*
X+1036091Y+171283D01*
X+1098717Y+233909D01*
X+1187283Y+233909D01*
X+1249909Y+171283D01*
X+1249909Y+82717D01*
X+1187283Y+20091D01*
X+1098717Y+20091D01*
X+1036091Y+82717D01*
G37*
G36*
X+1036091Y+336717D02*
X+1036091Y+425283D01*
X+1098717Y+487909D01*
X+1187283Y+487909D01*
X+1249909Y+425283D01*
X+1249909Y+336717D01*
X+1187283Y+274091D01*
X+1098717Y+274091D01*
X+1036091Y+336717D01*
G37*
G36*
X+1290091Y+82717D02*
X+1290091Y+171283D01*
X+1352717Y+233909D01*
X+1441283Y+233909D01*
X+1503909Y+171283D01*
X+1503909Y+82717D01*
X+1441283Y+20091D01*
X+1352717Y+20091D01*
X+1290091Y+82717D01*
G37*
G36*
X+1290091Y+336717D02*
X+1290091Y+425283D01*
X+1352717Y+487909D01*
X+1441283Y+487909D01*
X+1503909Y+425283D01*
X+1503909Y+336717D01*
X+1441283Y+274091D01*
X+1352717Y+274091D01*
X+1290091Y+336717D01*
G37*
G36*
X-872491Y-1667509D02*
X-1413509Y-1667509D01*
X-1413509Y-1380491D01*
X-872491Y-1380491D01*
X-872491Y-1667509D01*
G37*
G36*
X-872491Y-3572509D02*
X-1413509Y-3572509D01*
X-1413509Y-3285491D01*
X-872491Y-3285491D01*
X-872491Y-3572509D01*
G37*
G36*
X+1502411Y+3187847D02*
X+1502411Y+3416153D01*
X+1663847Y+3577589D01*
X+1892153Y+3577589D01*
X+2053589Y+3416153D01*
X+2053589Y+3187847D01*
X+1892153Y+3026411D01*
X+1663847Y+3026411D01*
X+1502411Y+3187847D01*
G37*
G36*
X+1502411Y-3543153D02*
X+1502411Y-3314847D01*
X+1663847Y-3153411D01*
X+1892153Y-3153411D01*
X+2053589Y-3314847D01*
X+2053589Y-3543153D01*
X+1892153Y-3704589D01*
X+1663847Y-3704589D01*
X+1502411Y-3543153D01*
G37*
G36*
X-999491Y+2777491D02*
X-999491Y+2523491D01*
X-1286509Y+2523491D01*
X-1286509Y+3064509D01*
X-999491Y+3064509D01*
X-999491Y+2777491D01*
G37*
%LPD*%
%TA.AperFunction,Conductor*%
G36*
X-197642Y+1206559D02*
X-407383Y+1206559D01*
X-407383Y+1215135D01*
X-408969Y+1216721D01*
X-266413Y+1216721D01*
X-266413Y+1243771D01*
X-160430Y+1243771D01*
X-197642Y+1206559D01*
G37*
%TD.AperFunction*%
%TA.AperFunction,Conductor*%
G36*
X-213761Y+584639D02*
X-215351Y+584639D01*
X-215351Y+410769D01*
X-316390Y+309730D01*
X-349973Y+309730D01*
X-349973Y+582991D01*
X-225773Y+582991D01*
X-225773Y+645221D01*
X-213761Y+645221D01*
X-213761Y+584639D01*
G37*
%TD.AperFunction*%
D10*
X-1461482Y+1068130D02*
X-953482Y+1068130D01*
D11*
X-468342Y+1088450D02*
X-468342Y+1189886D01*
X-572482Y+1294026D01*
X-572482Y+1322130D01*
X-468342Y+1088450D02*
X-488662Y+1068130D01*
D10*
X-953482Y+1068130D02*
X-488662Y+1068130D01*
X-513802Y+1042990D01*
X-513802Y+468807D01*
X-493482Y+441130D01*
D11*
X-795355Y+1508605D02*
X-657773Y+1646187D01*
X+213698Y+1646187D02*
X+323698Y+1756187D01*
X+323698Y+1959226D01*
X+213698Y+1646187D02*
X-657773Y+1646187D01*
D10*
X+1041738Y+2270605D02*
X+1041738Y+2000186D01*
X+1082698Y+1959226D01*
X-1461482Y+1068130D02*
X-1666962Y+862650D01*
X-1666962Y+531409D01*
X-1666962Y+506287D01*
X-1613681Y+453006D01*
D11*
X-1691302Y+1070605D02*
X-1463957Y+1070605D01*
X-1461482Y+1068130D01*
D10*
X-102302Y-2626515D02*
X+431098Y-2626515D01*
X-102302Y-2555395D02*
X-102302Y-2626515D01*
D11*
X+343338Y-2439755D02*
X+429698Y-2439755D01*
X+431098Y-2441155D01*
X+431098Y-2626515D01*
X+851338Y-2589555D02*
X+888298Y-2626515D01*
X+851338Y-2589555D02*
X+851338Y-2439755D01*
D10*
X-610302Y-2555395D02*
X-102302Y-2555395D01*
X-1433302Y-2936395D02*
X-1433302Y-2490435D01*
X-1371262Y-2428395D01*
X-1056302Y-2428395D02*
X-737302Y-2428395D01*
X-610302Y-2555395D01*
D11*
X-802302Y-2555395D02*
X-610302Y-2555395D01*
X+975698Y-2428395D02*
X+862698Y-2428395D01*
X+851338Y-2439755D01*
X+1350578Y-2626515D02*
X+1421698Y-2555395D01*
D10*
X+888298Y-2626515D02*
X+1350578Y-2626515D01*
X+1737698Y-2239395D02*
X+1421698Y-2555395D01*
X-802301Y+229721D02*
X-283251Y+229721D01*
X-71842Y+441130D01*
X-1613681Y+138046D02*
X-1613681Y+37984D01*
X-1433302Y-142395D01*
X-168622Y+1088450D02*
X-133752Y+1053580D01*
X-133752Y+503040D01*
X-71842Y+441130D01*
D12*
X-802301Y+229721D02*
X-802301Y-363619D01*
X-902723Y-464041D01*
D10*
X-1433302Y-142395D02*
X-1433302Y-269395D01*
X+273502Y-557667D02*
X+57636Y-341801D01*
X+57636Y+315037D01*
X-68457Y+441130D01*
X-71842Y+441130D01*
D11*
X-1081332Y-117365D02*
X-1119802Y-78895D01*
X-1183302Y-15395D01*
X-1081332Y-117365D02*
X-1119802Y-78895D01*
X-1183302Y-15395D01*
X+975698Y-523395D02*
X+720354Y-778739D01*
X-861940Y-778739D01*
X-1081332Y-559347D01*
X-1081332Y-117365D01*
X+1101063Y+1067627D02*
X+1090653Y+1078037D01*
X+594632Y+1000407D02*
X+621480Y+1000407D01*
X+1344664Y+1723591D01*
X+1590030Y+1723591D01*
X+1590030Y+2035095D01*
X+1489407Y+2135718D01*
X+1776830Y+23737D02*
X+1776830Y+862883D01*
X+1561676Y+1078037D01*
X+1090653Y+1078037D01*
X-635000Y-1412395D02*
X+340698Y-1412395D01*
X+1776830Y+23737D01*
D10*
X+1427818Y-2626515D02*
X+1350578Y-2626515D01*
X+1268320Y-3484744D02*
X+1268320Y-2786013D01*
X+1427818Y-2626515D01*
D11*
X+842129Y+3540605D02*
X+886652Y+3540605D01*
D10*
X+704626Y+3403102D02*
X+842129Y+3540605D01*
D11*
X+704068Y+3402544D02*
X+704626Y+3403102D01*
X+704068Y+3403660D02*
X+704068Y+3403102D01*
X+704068Y+3402544D01*
D10*
X+704068Y+3023122D01*
X+681973Y+3001027D01*
X+618473Y+2937527D01*
X+681973Y+3001027D01*
X+704068Y+3023122D01*
D11*
X+704626Y+3403102D02*
X+704068Y+3403102D01*
X+703510Y+3403102D01*
X+704068Y+3403660D01*
X+841013Y+3540605D01*
X+842129Y+3540605D01*
D10*
X+1737698Y-2239395D02*
X+1864698Y-2112395D01*
X+1864698Y+2143605D01*
X+1737698Y+2270605D01*
X+1356698Y+2270605D01*
X+492198Y+1373693D02*
X+516632Y+1398127D01*
X+516632Y+2835686D01*
X+618473Y+2937527D01*
X+492198Y+1373693D02*
X+277752Y+1373693D01*
X+254445Y+1397000D01*
D11*
X-66762Y+1330130D02*
X-66762Y+1251231D01*
X-168622Y+1149371D01*
X-168622Y+1088450D01*
D10*
X-54105Y+1088450D01*
X+254445Y+1397000D01*
D13*
X-795355Y+1508605D03*
X-802301Y+229721D03*
X+975698Y-523395D03*
X-902723Y-464041D03*
X-1183302Y-15395D03*
X+273502Y-557667D03*
X+594632Y+1000407D03*
X+1090653Y+1078037D03*
X+1489407Y+2135718D03*
X-635000Y-1412395D03*
X+1268320Y-3484744D03*
X+492198Y+1373693D03*
X+1737698Y-2239395D03*
D11*
X+2060770Y-4387770D02*
X-2014770Y-4387770D01*
X-2014770Y-3581972D01*
X-1892153Y-3704589D01*
X-1663847Y-3704589D01*
X-1502411Y-3543153D01*
X-1502411Y-3314847D01*
X-1663847Y-3153411D01*
X-1892153Y-3153411D01*
X-2014770Y-3276028D01*
X-2014770Y+3149028D01*
X-1892153Y+3026411D01*
X-1667509Y+3026411D01*
X-1667509Y+2523491D01*
X-1380491Y+2523491D01*
X-1380491Y+3064509D01*
X-1625749Y+3064509D01*
X-1502411Y+3187847D01*
X-1502411Y+3416153D01*
X-1663847Y+3577589D01*
X-1892153Y+3577589D01*
X-2014770Y+3454972D01*
X-2014770Y+3687770D01*
X-16509Y+3687770D01*
X-16509Y+3572509D01*
X-491491Y+3572509D01*
X-491491Y+3684114D01*
X-778509Y+3684114D01*
X-778509Y+3143096D01*
X-491491Y+3143096D01*
X-491491Y+3285491D01*
X-16509Y+3285491D01*
X-16509Y+3158491D01*
X+270509Y+3158491D01*
X+270509Y+3687770D01*
X+364491Y+3687770D01*
X+364491Y+3158491D01*
X+624059Y+3158491D01*
X+624059Y+3056261D01*
X+436623Y+2868825D01*
X+436623Y+1474373D01*
X+415952Y+1453702D01*
X+378904Y+1453702D01*
X+378904Y+1583689D01*
X+129986Y+1583689D01*
X+129986Y+1385689D01*
X+19597Y+1275300D01*
X+19597Y+1416489D01*
X-153121Y+1416489D01*
X-153121Y+1251080D01*
X-153123Y+1251078D01*
X-153123Y+1416489D01*
X-266413Y+1416489D01*
X-266413Y+1427539D01*
X-451831Y+1427539D01*
X-451831Y+1259583D01*
X-479773Y+1287525D01*
X-479773Y+1427539D01*
X-665191Y+1427539D01*
X-665191Y+1216721D01*
X-581385Y+1216721D01*
X-561051Y+1196387D01*
X-561051Y+1148139D01*
X-831563Y+1148139D01*
X-831563Y+1267519D01*
X-1075401Y+1267519D01*
X-1075401Y+1148139D01*
X-1317973Y+1148139D01*
X-1317973Y+1211639D01*
X-1604991Y+1211639D01*
X-1604991Y+1131564D01*
X-1629073Y+1131564D01*
X-1629073Y+1135374D01*
X-1753531Y+1135374D01*
X-1753531Y+935836D01*
X-1706924Y+935836D01*
X-1746970Y+895790D01*
X-1746970Y+531409D01*
X-1746971Y+531409D01*
X-1746971Y+473148D01*
X-1731790Y+457967D01*
X-1731790Y+360297D01*
X-1495572Y+360297D01*
X-1495572Y+502981D01*
X-1317973Y+502981D01*
X-1317973Y+789999D01*
X-1586954Y+789999D01*
X-1586954Y+829510D01*
X-1491843Y+924621D01*
X-1317973Y+924621D01*
X-1317973Y+988121D01*
X-1075401Y+988121D01*
X-1075401Y+868741D01*
X-831563Y+868741D01*
X-831563Y+988121D01*
X-593811Y+988121D01*
X-593811Y+584639D01*
X-636991Y+584639D01*
X-636991Y+309730D01*
X-726055Y+309730D01*
X-756535Y+340210D01*
X-848067Y+340210D01*
X-912790Y+275487D01*
X-912790Y+183955D01*
X-875960Y+147125D01*
X-875960Y-333110D01*
X-896402Y-353552D01*
X-948489Y-353552D01*
X-1013212Y-418275D01*
X-1013212Y-509807D01*
X-948489Y-574530D01*
X-856957Y-574530D01*
X-792234Y-509807D01*
X-792234Y-457720D01*
X-728642Y-394128D01*
X-728642Y+147125D01*
X-726055Y+149712D01*
X-250112Y+149712D01*
X-102203Y+297621D01*
X-38097Y+297621D01*
X-22373Y+281898D01*
X-22373Y-374940D01*
X+163013Y-560326D01*
X+163013Y-603433D01*
X+227736Y-668156D01*
X+319268Y-668156D01*
X+383991Y-603433D01*
X+383991Y-511901D01*
X+319268Y-447178D01*
X+276161Y-447178D01*
X+137645Y-308662D01*
X+137645Y+348176D01*
X+71667Y+414154D01*
X+71667Y+584639D01*
X-53743Y+584639D01*
X-53743Y+1008441D01*
X-20966Y+1008441D01*
X+180904Y+1210311D01*
X+378904Y+1210311D01*
X+378904Y+1293684D01*
X+415952Y+1293684D01*
X+446432Y+1263204D01*
X+537964Y+1263204D01*
X+602687Y+1327927D01*
X+602687Y+1419459D01*
X+596641Y+1425505D01*
X+596641Y+2802547D01*
X+737207Y+2943113D01*
X+737209Y+2943113D01*
X+784077Y+2989981D01*
X+784077Y+3143096D01*
X+1030161Y+3143096D01*
X+1030161Y+3684114D01*
X+743143Y+3684114D01*
X+743143Y+3554767D01*
X+670929Y+3482553D01*
X+670927Y+3482553D01*
X+651509Y+3463135D01*
X+651509Y+3687770D01*
X+1126491Y+3687770D01*
X+1126491Y+3158491D01*
X+1413509Y+3158491D01*
X+1413509Y+3687770D01*
X+2060770Y+3687770D01*
X+2060770Y-4387770D01*
X+1024891Y-289922D02*
X+1024891Y-192078D01*
X+1094078Y-122891D01*
X+1191922Y-122891D01*
X+1261109Y-192078D01*
X+1261109Y-289922D01*
X+1191922Y-359109D01*
X+1094078Y-359109D01*
X+1024891Y-289922D01*
X+1024891Y-1064922D02*
X+1024891Y-967078D01*
X+1094078Y-897891D01*
X+1191922Y-897891D01*
X+1261109Y-967078D01*
X+1261109Y-1064922D01*
X+1191922Y-1134109D01*
X+1094078Y-1134109D01*
X+1024891Y-1064922D01*
X-1072813Y+30371D02*
X-1072813Y-39676D01*
X-1056082Y-56406D01*
X-1020373Y-92115D01*
X-1020373Y-534098D01*
X-836691Y-717780D01*
X+695105Y-717780D01*
X+865209Y-547676D01*
X+865209Y-477629D01*
X+929932Y-412906D01*
X+1021464Y-412906D01*
X+1086187Y-477629D01*
X+1086187Y-569161D01*
X+1021464Y-633884D01*
X+951417Y-633884D01*
X+745603Y-839698D01*
X-887189Y-839698D01*
X-1142291Y-584596D01*
X-1142291Y-367165D01*
X-1281072Y-367165D01*
X-1281072Y-171625D01*
X-1142291Y-171625D01*
X-1142291Y-142614D01*
X-1159021Y-125884D01*
X-1229068Y-125884D01*
X-1293791Y-61161D01*
X-1293791Y+30371D01*
X-1229068Y+95094D01*
X-1137536Y+95094D01*
X-1072813Y+30371D01*
X-1495572Y+45337D02*
X-1507886Y+45337D01*
X-1400163Y-62386D01*
X-1400161Y-62386D01*
X-1353293Y-109254D01*
X-1353293Y-178413D01*
X-1312393Y-219313D01*
X-1312393Y-319477D01*
X-1383220Y-390304D01*
X-1483384Y-390304D01*
X-1554211Y-319477D01*
X-1554211Y-219313D01*
X-1513311Y-178413D01*
X-1513311Y-175534D01*
X-1693690Y+4845D01*
X-1693690Y+45337D01*
X-1731790Y+45337D01*
X-1731790Y+230755D01*
X-1495572Y+230755D01*
X-1495572Y+45337D01*
X-1281072Y-2838625D02*
X-1085532Y-2838625D01*
X-1085532Y-3034165D01*
X-1281072Y-3034165D01*
X-1281072Y-2838625D01*
X-1278553Y-2546504D02*
X-1353293Y-2546504D01*
X-1353293Y-2845413D01*
X-1312393Y-2886313D01*
X-1312393Y-2986477D01*
X-1383220Y-3057304D01*
X-1483384Y-3057304D01*
X-1554211Y-2986477D01*
X-1554211Y-2886313D01*
X-1513311Y-2845413D01*
X-1513311Y-2457296D01*
X-1463971Y-2407956D01*
X-1463971Y-2310286D01*
X-1278553Y-2310286D01*
X-1278553Y-2546504D01*
X+1050857Y-3708554D02*
X+268539Y-3708554D01*
X+268539Y-2926236D01*
X+1050857Y-2926236D01*
X+1050857Y-3708554D01*
X+1449407Y+2350614D02*
X+1770837Y+2350614D01*
X+1944707Y+2176744D01*
X+1944707Y-2145534D01*
X+1848187Y-2242054D01*
X+1848187Y-2285161D01*
X+1783464Y-2349884D01*
X+1740357Y-2349884D01*
X+1543617Y-2546624D01*
X+1543617Y-2754784D01*
X+1412697Y-2754784D01*
X+1348329Y-2819152D01*
X+1348329Y-2846006D01*
X+1543617Y-2846006D01*
X+1543617Y-3244784D01*
X+1348329Y-3244784D01*
X+1348329Y-3408498D01*
X+1378809Y-3438978D01*
X+1378809Y-3530510D01*
X+1314086Y-3595233D01*
X+1222554Y-3595233D01*
X+1157831Y-3530510D01*
X+1157831Y-3438978D01*
X+1188311Y-3408498D01*
X+1188311Y-2752874D01*
X+1234661Y-2706524D01*
X+1006407Y-2706524D01*
X+1006407Y-2795424D01*
X+770189Y-2795424D01*
X+770189Y-2583264D01*
X+707829Y-2583264D01*
X+707829Y-2296246D01*
X+994847Y-2296246D01*
X+994847Y-2342036D01*
X+1062057Y-2342036D01*
X+1062057Y-2514754D01*
X+1006407Y-2514754D01*
X+1006407Y-2546506D01*
X+1299779Y-2546506D01*
X+1299779Y-2356006D01*
X+1507939Y-2356006D01*
X+1627209Y-2236736D01*
X+1627209Y-2193629D01*
X+1691932Y-2128906D01*
X+1735039Y-2128906D01*
X+1784689Y-2079256D01*
X+1784689Y-54612D01*
X+365947Y-1473354D01*
X-539704Y-1473354D01*
X-589234Y-1522884D01*
X-680766Y-1522884D01*
X-745489Y-1458161D01*
X-745489Y-1366629D01*
X-680766Y-1301906D01*
X-589234Y-1301906D01*
X-539704Y-1351436D01*
X+315449Y-1351436D01*
X+1715871Y+48986D01*
X+1715871Y+837634D01*
X+1536427Y+1017078D01*
X+1246207Y+1017078D01*
X+1246207Y+730096D01*
X+705189Y+730096D01*
X+705189Y+997908D01*
X+705121Y+997840D01*
X+705121Y+954641D01*
X+640398Y+889918D01*
X+548866Y+889918D01*
X+484143Y+954641D01*
X+484143Y+1046173D01*
X+548866Y+1110896D01*
X+640398Y+1110896D01*
X+643079Y+1108214D01*
X+1319415Y+1784550D01*
X+1529071Y+1784550D01*
X+1529071Y+1853834D01*
X+1527149Y+1851912D01*
X+1438247Y+1851912D01*
X+1382698Y+1907461D01*
X+1327149Y+1851912D01*
X+1238247Y+1851912D01*
X+1182698Y+1907461D01*
X+1127149Y+1851912D01*
X+1038247Y+1851912D01*
X+975384Y+1914775D01*
X+975384Y+1953392D01*
X+970855Y+1957921D01*
X+970855Y+1871069D01*
X+794541Y+1871069D01*
X+794541Y+2047383D01*
X+961729Y+2047383D01*
X+961729Y+2152496D01*
X+949029Y+2152496D01*
X+949029Y+2388714D01*
X+1134447Y+2388714D01*
X+1134447Y+2152496D01*
X+1121747Y+2152496D01*
X+1121747Y+2066540D01*
X+1127149Y+2066540D01*
X+1182698Y+2010991D01*
X+1238247Y+2066540D01*
X+1327149Y+2066540D01*
X+1382698Y+2010991D01*
X+1420288Y+2048581D01*
X+1378918Y+2089952D01*
X+1378918Y+2152496D01*
X+1263989Y+2152496D01*
X+1263989Y+2388714D01*
X+1449407Y+2388714D01*
X+1449407Y+2350614D01*
X+573207Y-2583264D02*
X+549207Y-2583264D01*
X+549207Y-2795424D01*
X+312989Y-2795424D01*
X+312989Y-2706524D01*
X+19617Y-2706524D01*
X+19617Y-2754784D01*
X-224221Y-2754784D01*
X-224221Y-2635404D01*
X-466793Y-2635404D01*
X-466793Y-2698904D01*
X-753811Y-2698904D01*
X-753811Y-2690164D01*
X-864531Y-2690164D01*
X-864531Y-2508404D01*
X-963593Y-2508404D01*
X-963593Y-2546504D01*
X-1149011Y-2546504D01*
X-1149011Y-2310286D01*
X-963593Y-2310286D01*
X-963593Y-2348386D01*
X-704163Y-2348386D01*
X-640663Y-2411886D01*
X-466793Y-2411886D01*
X-466793Y-2475386D01*
X-224221Y-2475386D01*
X-224221Y-2356006D01*
X+19617Y-2356006D01*
X+19617Y-2546506D01*
X+286189Y-2546506D01*
X+286189Y-2545164D01*
X+250629Y-2545164D01*
X+250629Y-2334346D01*
X+286189Y-2334346D01*
X+286189Y-2296246D01*
X+573207Y-2296246D01*
X+573207Y-2583264D01*
X-753811Y-3120544D02*
X-753811Y-2833526D01*
X-466793Y-2833526D01*
X-466793Y-3120544D01*
X-753811Y-3120544D01*
X+1062059Y-2342036D02*
X+1234777Y-2342036D01*
X+1234777Y-2514754D01*
X+1062059Y-2514754D01*
X+1062059Y-2342036D01*
X+222687Y-2545164D02*
X+37269Y-2545164D01*
X+37269Y-2334346D01*
X+222687Y-2334346D01*
X+222687Y-2545164D01*
X-224221Y-2846006D02*
X+19617Y-2846006D01*
X+19617Y-3244784D01*
X-224221Y-3244784D01*
X-224221Y-2846006D01*
X-1075401Y+777519D02*
X-831563Y+777519D01*
X-831563Y+378741D01*
X-1075401Y+378741D01*
X-1075401Y+777519D01*
X+129986Y+1153689D02*
X+378904Y+1153689D01*
X+378904Y+780311D01*
X+129986Y+780311D01*
X+129986Y+1153689D01*
X-588145Y+1871069D02*
X-764459Y+1871069D01*
X-764459Y+2047383D01*
X-588145Y+2047383D01*
X-588145Y+1871069D01*
X+431012Y+2003677D02*
X+431012Y+1914775D01*
X+384657Y+1868420D01*
X+384657Y+1730938D01*
X+238948Y+1585228D01*
X-632524Y+1585228D01*
X-684866Y+1532886D01*
X-684866Y+1462839D01*
X-749589Y+1398116D01*
X-841121Y+1398116D01*
X-905844Y+1462839D01*
X-905844Y+1554371D01*
X-841121Y+1619094D01*
X-771074Y+1619094D01*
X-683023Y+1707146D01*
X+188449Y+1707146D01*
X+262739Y+1781436D01*
X+262739Y+1868420D01*
X+223698Y+1907461D01*
X+168149Y+1851912D01*
X+79247Y+1851912D01*
X+23698Y+1907461D01*
X-31851Y+1851912D01*
X-120753Y+1851912D01*
X-176302Y+1907461D01*
X-231851Y+1851912D01*
X-320753Y+1851912D01*
X-376302Y+1907461D01*
X-431851Y+1851912D01*
X-520753Y+1851912D01*
X-583616Y+1914775D01*
X-583616Y+2003677D01*
X-520753Y+2066540D01*
X-431851Y+2066540D01*
X-376302Y+2010991D01*
X-320753Y+2066540D01*
X-231851Y+2066540D01*
X-176302Y+2010991D01*
X-120753Y+2066540D01*
X-31851Y+2066540D01*
X+23698Y+2010991D01*
X+79247Y+2066540D01*
X+168149Y+2066540D01*
X+223698Y+2010991D01*
X+279247Y+2066540D01*
X+368149Y+2066540D01*
X+431012Y+2003677D01*
X-128459Y-943238D02*
X+47855Y-943238D01*
X+47855Y-1119552D01*
X-128459Y-1119552D01*
X-128459Y-943238D01*
X-132988Y-986944D02*
X-132988Y-1075846D01*
X-195851Y-1138709D01*
X-284753Y-1138709D01*
X-340302Y-1083160D01*
X-395851Y-1138709D01*
X-484753Y-1138709D01*
X-540302Y-1083160D01*
X-595851Y-1138709D01*
X-684753Y-1138709D01*
X-740302Y-1083160D01*
X-795851Y-1138709D01*
X-884753Y-1138709D01*
X-940302Y-1083160D01*
X-995851Y-1138709D01*
X-1084753Y-1138709D01*
X-1140302Y-1083160D01*
X-1195851Y-1138709D01*
X-1284753Y-1138709D01*
X-1340302Y-1083160D01*
X-1395851Y-1138709D01*
X-1484753Y-1138709D01*
X-1547616Y-1075846D01*
X-1547616Y-986944D01*
X-1484753Y-924081D01*
X-1395851Y-924081D01*
X-1340302Y-979630D01*
X-1284753Y-924081D01*
X-1195851Y-924081D01*
X-1140302Y-979630D01*
X-1084753Y-924081D01*
X-995851Y-924081D01*
X-940302Y-979630D01*
X-884753Y-924081D01*
X-795851Y-924081D01*
X-740302Y-979630D01*
X-684753Y-924081D01*
X-595851Y-924081D01*
X-540302Y-979630D01*
X-484753Y-924081D01*
X-395851Y-924081D01*
X-340302Y-979630D01*
X-284753Y-924081D01*
X-195851Y-924081D01*
X-132988Y-986944D01*
X-1341177Y-2069297D02*
X-1517491Y-2069297D01*
X-1517491Y-1892983D01*
X-1341177Y-1892983D01*
X-1341177Y-2069297D01*
X-722020Y-1936689D02*
X-722020Y-2025591D01*
X-784883Y-2088454D01*
X-873785Y-2088454D01*
X-929334Y-2032905D01*
X-984883Y-2088454D01*
X-1073785Y-2088454D01*
X-1129334Y-2032905D01*
X-1184883Y-2088454D01*
X-1273785Y-2088454D01*
X-1336648Y-2025591D01*
X-1336648Y-1936689D01*
X-1273785Y-1873826D01*
X-1184883Y-1873826D01*
X-1129334Y-1929375D01*
X-1073785Y-1873826D01*
X-984883Y-1873826D01*
X-929334Y-1929375D01*
X-873785Y-1873826D01*
X-784883Y-1873826D01*
X-722020Y-1936689D01*
X-198269Y-2074807D02*
X-374583Y-2074807D01*
X-374583Y-1898493D01*
X-198269Y-1898493D01*
X-198269Y-2074807D01*
X+420888Y-1942199D02*
X+420888Y-2031101D01*
X+358025Y-2093964D01*
X+269123Y-2093964D01*
X+213574Y-2038415D01*
X+158025Y-2093964D01*
X+69123Y-2093964D01*
X+13574Y-2038415D01*
X-41975Y-2093964D01*
X-130877Y-2093964D01*
X-193740Y-2031101D01*
X-193740Y-1942199D01*
X-130877Y-1879336D01*
X-41975Y-1879336D01*
X+13574Y-1934885D01*
X+69123Y-1879336D01*
X+158025Y-1879336D01*
X+213574Y-1934885D01*
X+269123Y-1879336D01*
X+358025Y-1879336D01*
X+420888Y-1942199D01*
X+944731Y-2074807D02*
X+768417Y-2074807D01*
X+768417Y-1898493D01*
X+944731Y-1898493D01*
X+944731Y-2074807D01*
X+1563888Y-1942199D02*
X+1563888Y-2031101D01*
X+1501025Y-2093964D01*
X+1412123Y-2093964D01*
X+1356574Y-2038415D01*
X+1301025Y-2093964D01*
X+1212123Y-2093964D01*
X+1156574Y-2038415D01*
X+1101025Y-2093964D01*
X+1012123Y-2093964D01*
X+949260Y-2031101D01*
X+949260Y-1942199D01*
X+1012123Y-1879336D01*
X+1101025Y-1879336D01*
X+1156574Y-1934885D01*
X+1212123Y-1879336D01*
X+1301025Y-1879336D01*
X+1356574Y-1934885D01*
X+1412123Y-1879336D01*
X+1501025Y-1879336D01*
X+1563888Y-1942199D01*
X+1368417Y-3820493D02*
X+1544731Y-3820493D01*
X+1544731Y-3996807D01*
X+1368417Y-3996807D01*
X+1368417Y-3820493D01*
X+1363888Y-3864199D02*
X+1363888Y-3953101D01*
X+1301025Y-4015964D01*
X+1212123Y-4015964D01*
X+1156574Y-3960415D01*
X+1101025Y-4015964D01*
X+1012123Y-4015964D01*
X+956574Y-3960415D01*
X+901025Y-4015964D01*
X+812123Y-4015964D01*
X+749260Y-3953101D01*
X+749260Y-3864199D01*
X+812123Y-3801336D01*
X+901025Y-3801336D01*
X+956574Y-3856885D01*
X+1012123Y-3801336D01*
X+1101025Y-3801336D01*
X+1156574Y-3856885D01*
X+1212123Y-3801336D01*
X+1301025Y-3801336D01*
X+1363888Y-3864199D01*
X+225417Y-3820493D02*
X+401731Y-3820493D01*
X+401731Y-3996807D01*
X+225417Y-3996807D01*
X+225417Y-3820493D01*
X+220888Y-3864199D02*
X+220888Y-3953101D01*
X+158025Y-4015964D01*
X+69123Y-4015964D01*
X+13574Y-3960415D01*
X-41975Y-4015964D01*
X-130877Y-4015964D01*
X-186426Y-3960415D01*
X-241975Y-4015964D01*
X-330877Y-4015964D01*
X-393740Y-3953101D01*
X-393740Y-3864199D01*
X-330877Y-3801336D01*
X-241975Y-3801336D01*
X-186426Y-3856885D01*
X-130877Y-3801336D01*
X-41975Y-3801336D01*
X+13574Y-3856885D01*
X+69123Y-3801336D01*
X+158025Y-3801336D01*
X+220888Y-3864199D01*
X-917583Y-3820493D02*
X-741269Y-3820493D01*
X-741269Y-3996807D01*
X-917583Y-3996807D01*
X-917583Y-3820493D01*
X-922112Y-3864199D02*
X-922112Y-3953101D01*
X-984975Y-4015964D01*
X-1073877Y-4015964D01*
X-1129426Y-3960415D01*
X-1184975Y-4015964D01*
X-1273877Y-4015964D01*
X-1329426Y-3960415D01*
X-1384975Y-4015964D01*
X-1473877Y-4015964D01*
X-1536740Y-3953101D01*
X-1536740Y-3864199D01*
X-1473877Y-3801336D01*
X-1384975Y-3801336D01*
X-1329426Y-3856885D01*
X-1273877Y-3801336D01*
X-1184975Y-3801336D01*
X-1129426Y-3856885D01*
X-1073877Y-3801336D01*
X-984975Y-3801336D01*
X-922112Y-3864199D01*
X-1019360Y+2365547D02*
X-1019360Y+2175663D01*
X-1209244Y+2175663D01*
X-1209244Y+2365547D01*
X-1019360Y+2365547D01*
X-1162727Y+1737514D02*
X-1065877Y+1737514D01*
X-997393Y+1669030D01*
X-997393Y+1572180D01*
X-1065877Y+1503696D01*
X-1162727Y+1503696D01*
X-1231211Y+1572180D01*
X-1231211Y+1669030D01*
X-1162727Y+1737514D01*
X-1612727Y+2387514D02*
X-1515877Y+2387514D01*
X-1447393Y+2319030D01*
X-1447393Y+2222180D01*
X-1515877Y+2153696D01*
X-1612727Y+2153696D01*
X-1681211Y+2222180D01*
X-1681211Y+2319030D01*
X-1612727Y+2387514D01*
X-1612727Y+1737514D02*
X-1515877Y+1737514D01*
X-1447393Y+1669030D01*
X-1447393Y+1572180D01*
X-1515877Y+1503696D01*
X-1612727Y+1503696D01*
X-1681211Y+1572180D01*
X-1681211Y+1669030D01*
X-1612727Y+1737514D01*
X+976870Y+39130D02*
X+801130Y+39130D01*
X+801130Y+214870D01*
X+976870Y+214870D01*
X+976870Y+39130D01*
X+782091Y+336717D02*
X+782091Y+425283D01*
X+844717Y+487909D01*
X+933283Y+487909D01*
X+995909Y+425283D01*
X+995909Y+336717D01*
X+933283Y+274091D01*
X+844717Y+274091D01*
X+782091Y+336717D01*
X+1036091Y+82717D02*
X+1036091Y+171283D01*
X+1098717Y+233909D01*
X+1187283Y+233909D01*
X+1249909Y+171283D01*
X+1249909Y+82717D01*
X+1187283Y+20091D01*
X+1098717Y+20091D01*
X+1036091Y+82717D01*
X+1036091Y+336717D02*
X+1036091Y+425283D01*
X+1098717Y+487909D01*
X+1187283Y+487909D01*
X+1249909Y+425283D01*
X+1249909Y+336717D01*
X+1187283Y+274091D01*
X+1098717Y+274091D01*
X+1036091Y+336717D01*
X+1290091Y+82717D02*
X+1290091Y+171283D01*
X+1352717Y+233909D01*
X+1441283Y+233909D01*
X+1503909Y+171283D01*
X+1503909Y+82717D01*
X+1441283Y+20091D01*
X+1352717Y+20091D01*
X+1290091Y+82717D01*
X+1290091Y+336717D02*
X+1290091Y+425283D01*
X+1352717Y+487909D01*
X+1441283Y+487909D01*
X+1503909Y+425283D01*
X+1503909Y+336717D01*
X+1441283Y+274091D01*
X+1352717Y+274091D01*
X+1290091Y+336717D01*
X-872491Y-1667509D02*
X-1413509Y-1667509D01*
X-1413509Y-1380491D01*
X-872491Y-1380491D01*
X-872491Y-1667509D01*
X-872491Y-3572509D02*
X-1413509Y-3572509D01*
X-1413509Y-3285491D01*
X-872491Y-3285491D01*
X-872491Y-3572509D01*
X+1502411Y+3187847D02*
X+1502411Y+3416153D01*
X+1663847Y+3577589D01*
X+1892153Y+3577589D01*
X+2053589Y+3416153D01*
X+2053589Y+3187847D01*
X+1892153Y+3026411D01*
X+1663847Y+3026411D01*
X+1502411Y+3187847D01*
X+1502411Y-3543153D02*
X+1502411Y-3314847D01*
X+1663847Y-3153411D01*
X+1892153Y-3153411D01*
X+2053589Y-3314847D01*
X+2053589Y-3543153D01*
X+1892153Y-3704589D01*
X+1663847Y-3704589D01*
X+1502411Y-3543153D01*
X-999491Y+2777491D02*
X-999491Y+2523491D01*
X-1286509Y+2523491D01*
X-1286509Y+3064509D01*
X-999491Y+3064509D01*
X-999491Y+2777491D01*
X-197642Y+1206559D02*
X-407383Y+1206559D01*
X-407383Y+1215135D01*
X-408969Y+1216721D01*
X-266413Y+1216721D01*
X-266413Y+1243771D01*
X-160430Y+1243771D01*
X-197642Y+1206559D01*
X-213761Y+584639D02*
X-215351Y+584639D01*
X-215351Y+410769D01*
X-316390Y+309730D01*
X-349973Y+309730D01*
X-349973Y+582991D01*
X-225773Y+582991D01*
X-225773Y+645221D01*
X-213761Y+645221D01*
X-213761Y+584639D01*
D14*
X+1043941Y-1016000D02*
X+1143000Y-1016000D01*
X+1242059Y-1016000D02*
X+1143000Y-1016000D01*
X+1143000Y-1115059D02*
X+1143000Y-1016000D01*
X+1143000Y-916941D02*
X+1143000Y-1016000D01*
X-1183302Y-348115D02*
X-1183302Y-269395D01*
X-1183302Y-190675D02*
X-1183302Y-269395D01*
X-1262022Y-269395D02*
X-1183302Y-269395D01*
X-1183302Y-3015115D02*
X-1183302Y-2936395D01*
X-1104582Y-2936395D02*
X-1183302Y-2936395D01*
X-1183302Y-2857675D02*
X-1183302Y-2936395D01*
X-1262022Y-2936395D02*
X-1183302Y-2936395D01*
X-318482Y+1187509D02*
X-318482Y+1088450D01*
X-318482Y+602041D02*
X-318482Y+669350D01*
X+659698Y-2945286D02*
X+659698Y-3317395D01*
X+287589Y-3317395D02*
X+659698Y-3317395D01*
X+659698Y-3689504D02*
X+659698Y-3317395D01*
X+1031807Y-3317395D02*
X+659698Y-3317395D01*
X-1734481Y+1000605D02*
X-1691302Y+1000605D01*
X-802302Y-2671114D02*
X-802302Y-2625395D01*
X-845481Y-2625395D02*
X-802302Y-2625395D01*
X-359122Y+1235771D02*
X-359122Y+1322130D01*
X-359122Y+1408489D02*
X-359122Y+1322130D01*
X-432781Y+1322130D02*
X-359122Y+1322130D01*
X-1337023Y+646490D02*
X-1461482Y+646490D01*
X-1461482Y+770949D02*
X-1461482Y+646490D01*
X-1461482Y+522031D02*
X-1461482Y+646490D01*
X-485843Y-2977035D02*
X-610302Y-2977035D01*
X-610302Y-2852576D02*
X-610302Y-2977035D01*
X-734761Y-2977035D02*
X-610302Y-2977035D01*
X-610302Y-3101494D02*
X-610302Y-2977035D01*
X+1148418Y-2495704D02*
X+1148418Y-2428395D01*
X+1215727Y-2428395D02*
X+1148418Y-2428395D01*
X+1148418Y-2361086D02*
X+1148418Y-2428395D01*
X+1081109Y-2428395D02*
X+1148418Y-2428395D01*
X+129978Y-2353396D02*
X+129978Y-2439755D01*
X+56319Y-2439755D02*
X+129978Y-2439755D01*
X+129978Y-2526114D02*
X+129978Y-2439755D01*
X+203637Y-2439755D02*
X+129978Y-2439755D01*
X-102302Y-3225734D02*
X-102302Y-3045395D01*
X+567Y-3045395D02*
X-102302Y-3045395D01*
X-102302Y-2865056D02*
X-102302Y-3045395D01*
X-205171Y-3045395D02*
X-102302Y-3045395D01*
X+1421698Y-3225734D02*
X+1421698Y-3045395D01*
X+1524567Y-3045395D02*
X+1421698Y-3045395D01*
X+1421698Y-2865056D02*
X+1421698Y-3045395D01*
X-953482Y+397791D02*
X-953482Y+578130D01*
X-850613Y+578130D02*
X-953482Y+578130D01*
X-953482Y+758469D02*
X-953482Y+578130D01*
X-1056351Y+578130D02*
X-953482Y+578130D01*
X+254445Y+799361D02*
X+254445Y+967000D01*
X+359854Y+967000D02*
X+254445Y+967000D01*
X+254445Y+1134639D02*
X+254445Y+967000D01*
X+149036Y+967000D02*
X+254445Y+967000D01*
X-676302Y+2028333D02*
X-676302Y+1959226D01*
X-745409Y+1959226D02*
X-676302Y+1959226D01*
X-676302Y+1890119D02*
X-676302Y+1959226D01*
X-607195Y+1959226D02*
X-676302Y+1959226D01*
X+882698Y+2028333D02*
X+882698Y+1959226D01*
X+813591Y+1959226D02*
X+882698Y+1959226D01*
X+882698Y+1890119D02*
X+882698Y+1959226D01*
X+951805Y+1959226D02*
X+882698Y+1959226D01*
X-40302Y-1100502D02*
X-40302Y-1031395D01*
X+28805Y-1031395D02*
X-40302Y-1031395D01*
X-40302Y-962288D02*
X-40302Y-1031395D01*
X-109409Y-1031395D02*
X-40302Y-1031395D01*
X-1429334Y-1912033D02*
X-1429334Y-1981140D01*
X-1498441Y-1981140D02*
X-1429334Y-1981140D01*
X-1429334Y-2050247D02*
X-1429334Y-1981140D01*
X-1360227Y-1981140D02*
X-1429334Y-1981140D01*
X-286426Y-1917543D02*
X-286426Y-1986650D01*
X-355533Y-1986650D02*
X-286426Y-1986650D01*
X-286426Y-2055757D02*
X-286426Y-1986650D01*
X-217319Y-1986650D02*
X-286426Y-1986650D01*
X+856574Y-1917543D02*
X+856574Y-1986650D01*
X+787467Y-1986650D02*
X+856574Y-1986650D01*
X+856574Y-2055757D02*
X+856574Y-1986650D01*
X+925681Y-1986650D02*
X+856574Y-1986650D01*
X+1456574Y-3977757D02*
X+1456574Y-3908650D01*
X+1525681Y-3908650D02*
X+1456574Y-3908650D01*
X+1456574Y-3839543D02*
X+1456574Y-3908650D01*
X+1387467Y-3908650D02*
X+1456574Y-3908650D01*
X+313574Y-3977757D02*
X+313574Y-3908650D01*
X+382681Y-3908650D02*
X+313574Y-3908650D01*
X+313574Y-3839543D02*
X+313574Y-3908650D01*
X+244467Y-3908650D02*
X+313574Y-3908650D01*
X-829426Y-3977757D02*
X-829426Y-3908650D01*
X-760319Y-3908650D02*
X-829426Y-3908650D01*
X-829426Y-3839543D02*
X-829426Y-3908650D01*
X-898533Y-3908650D02*
X-829426Y-3908650D01*
X-1564302Y+2368464D02*
X-1564302Y+2270605D01*
X-1564302Y+2172746D02*
X-1564302Y+2270605D01*
X-1662161Y+2270605D02*
X-1564302Y+2270605D01*
X-1466443Y+2270605D02*
X-1564302Y+2270605D01*
X-1564302Y+1718464D02*
X-1564302Y+1620605D01*
X-1564302Y+1522746D02*
X-1564302Y+1620605D01*
X-1662161Y+1620605D02*
X-1564302Y+1620605D01*
X-1466443Y+1620605D02*
X-1564302Y+1620605D01*
X-239482Y+1397439D02*
X-239482Y+1330130D01*
X-239482Y+1262821D02*
X-239482Y+1330130D01*
X-172173Y+1330130D02*
X-239482Y+1330130D01*
X-635000Y+3665064D02*
X-635000Y+3540605D01*
X-759459Y+3540605D02*
X-635000Y+3540605D01*
X-127000Y+3304541D02*
X-127000Y+3429000D01*
X-127000Y+3553459D02*
X-127000Y+3429000D01*
X+251459Y+3556000D02*
X+127000Y+3556000D01*
X+127000Y+3680459D02*
X+127000Y+3556000D01*
X+632459Y+3556000D02*
X+508000Y+3556000D01*
X+508000Y+3680459D02*
X+508000Y+3556000D01*
X+383541Y+3556000D02*
X+508000Y+3556000D01*
X+1309141Y+381000D02*
X+1397000Y+381000D01*
X+1484859Y+381000D02*
X+1397000Y+381000D01*
X+1397000Y+293141D02*
X+1397000Y+381000D01*
X+1397000Y+468859D02*
X+1397000Y+381000D01*
X-1016000Y-3553459D02*
X-1016000Y-3429000D01*
X-891541Y-3429000D02*
X-1016000Y-3429000D01*
X-1016000Y-3304541D02*
X-1016000Y-3429000D01*
X-1399541Y+2921000D02*
X-1524000Y+2921000D01*
X-1524000Y+3045459D02*
X-1524000Y+2921000D01*
X-1648459Y+2921000D02*
X-1524000Y+2921000D01*
X-1018541Y+2921000D02*
X-1143000Y+2921000D01*
X-1143000Y+3045459D02*
X-1143000Y+2921000D01*
X-1267459Y+2921000D02*
X-1143000Y+2921000D01*
D15*
X+1143000Y-241000D03*
X+1143000Y-1016000D03*
D16*
X-1183302Y-269395D03*
D17*
X-1433302Y-269395D03*
D16*
X-1183302Y-2936395D03*
D17*
X-1433302Y-2936395D03*
D18*
X-168622Y+1088450D03*
X-318482Y+1088450D03*
D19*
X-318482Y+814130D03*
D70*
X-318482Y+669350D03*
X-318482Y+984310D03*
D18*
X-468342Y+1088450D03*
D71*
X+659698Y-3317395D03*
D20*
X+888298Y-2626515D03*
X+431098Y-2626515D03*
D21*
X-1691302Y+1070605D03*
X-1691302Y+1000605D03*
X-802302Y-2555395D03*
X-802302Y-2625395D03*
D22*
X-572482Y+1322130D03*
X-359122Y+1322130D03*
D18*
X-1371262Y-2428395D03*
X-1056302Y-2428395D03*
D23*
X-71842Y+441130D03*
X-493482Y+441130D03*
X-1461482Y+646490D03*
X-1461482Y+1068130D03*
X+851338Y-2439755D03*
X+429698Y-2439755D03*
X-610302Y-2977035D03*
X-610302Y-2555395D03*
D24*
X+975698Y-2428395D03*
X+1148418Y-2428395D03*
D22*
X+343338Y-2439755D03*
X+129978Y-2439755D03*
D25*
X-102302Y-2555395D03*
X-102302Y-3045395D03*
X+1421698Y-2555395D03*
X+1421698Y-3045395D03*
X-953482Y+1068130D03*
X-953482Y+578130D03*
D26*
X+254445Y+1397000D03*
X+254445Y+967000D03*
D27*
X-1613681Y+138046D03*
X-1613681Y+453006D03*
D28*
X-676302Y+1959226D03*
D29*
X-476302Y+1959226D03*
X-276302Y+1959226D03*
X-76302Y+1959226D03*
X+123698Y+1959226D03*
X+323698Y+1959226D03*
D28*
X+882698Y+1959226D03*
D29*
X+1082698Y+1959226D03*
X+1282698Y+1959226D03*
X+1482698Y+1959226D03*
D28*
X-40302Y-1031395D03*
D29*
X-240302Y-1031395D03*
X-440302Y-1031395D03*
X-640302Y-1031395D03*
X-840302Y-1031395D03*
X-1040302Y-1031395D03*
X-1240302Y-1031395D03*
X-1440302Y-1031395D03*
D28*
X-1429334Y-1981140D03*
D29*
X-1229334Y-1981140D03*
X-1029334Y-1981140D03*
X-829334Y-1981140D03*
D28*
X-286426Y-1986650D03*
D29*
X-86426Y-1986650D03*
X+113574Y-1986650D03*
X+313574Y-1986650D03*
D28*
X+856574Y-1986650D03*
D29*
X+1056574Y-1986650D03*
X+1256574Y-1986650D03*
X+1456574Y-1986650D03*
D28*
X+1456574Y-3908650D03*
D29*
X+1256574Y-3908650D03*
X+1056574Y-3908650D03*
X+856574Y-3908650D03*
D28*
X+313574Y-3908650D03*
D29*
X+113574Y-3908650D03*
X-86426Y-3908650D03*
X-286426Y-3908650D03*
D28*
X-829426Y-3908650D03*
D29*
X-1029426Y-3908650D03*
X-1229426Y-3908650D03*
X-1429426Y-3908650D03*
D72*
X-1114302Y+2270605D03*
D73*
X-1114302Y+1620605D03*
X-1564302Y+2270605D03*
X-1564302Y+1620605D03*
D30*
X+886652Y+3540605D03*
X+886652Y+3286605D03*
X+1270000Y+3556000D03*
X+1270000Y+3302000D03*
D24*
X-66762Y+1330130D03*
X-239482Y+1330130D03*
D30*
X-635000Y+3286605D03*
X-635000Y+3540605D03*
X-381000Y+3429000D03*
X-127000Y+3429000D03*
X+127000Y+3302000D03*
X+127000Y+3556000D03*
X+508000Y+3302000D03*
X+508000Y+3556000D03*
D18*
X+1041738Y+2270605D03*
X+1356698Y+2270605D03*
D31*
X+889000Y+127000D03*
D32*
X+889000Y+381000D03*
X+1143000Y+127000D03*
X+1143000Y+381000D03*
X+1397000Y+127000D03*
X+1397000Y+381000D03*
D30*
X+848698Y+873605D03*
X+1102698Y+873605D03*
X-1270000Y-1524000D03*
X-1016000Y-1524000D03*
X-1270000Y-3429000D03*
X-1016000Y-3429000D03*
D33*
X-1778000Y+3302000D03*
X+1778000Y+3302000D03*
X-1778000Y-3429000D03*
X+1778000Y-3429000D03*
D30*
X-1524000Y+2667000D03*
X-1524000Y+2921000D03*
X-1143000Y+2667000D03*
X-1143000Y+2921000D03*
D34*
X-2077000Y-4450000D02*
X+2123000Y-4450000D01*
X+2123000Y+3750000D01*
X-2077000Y+3750000D01*
X-2077000Y-4450000D01*
M02*
