G04 PROTEUS GERBER X2 FILE*
%TF.GenerationSoftware,Labcenter,Proteus,8.16-SP3-Build36097*%
%TF.CreationDate,2024-05-04T02:13:19+00:00*%
%TF.FileFunction,Soldermask,Bot*%
%TF.FilePolarity,Negative*%
%TF.Part,Single*%
%TF.SameCoordinates,{03efdd39-6268-421f-b844-547f2104f690}*%
%FSLAX45Y45*%
%MOMM*%
G01*
%TA.AperFunction,Material*%
%ADD60C,1.778000*%
%AMPPAD055*
4,1,36,
-0.558610,0.603610,
0.558610,0.603610,
0.567680,0.602700,
0.576120,0.600070,
0.583760,0.595920,
0.590420,0.590420,
0.595920,0.583760,
0.600070,0.576120,
0.602700,0.567680,
0.603610,0.558610,
0.603610,-0.558610,
0.602700,-0.567680,
0.600070,-0.576120,
0.595920,-0.583760,
0.590420,-0.590420,
0.583760,-0.595920,
0.576120,-0.600070,
0.567680,-0.602700,
0.558610,-0.603610,
-0.558610,-0.603610,
-0.567680,-0.602700,
-0.576120,-0.600070,
-0.583760,-0.595920,
-0.590420,-0.590420,
-0.595920,-0.583760,
-0.600070,-0.576120,
-0.602700,-0.567680,
-0.603610,-0.558610,
-0.603610,0.558610,
-0.602700,0.567680,
-0.600070,0.576120,
-0.595920,0.583760,
-0.590420,0.590420,
-0.583760,0.595920,
-0.576120,0.600070,
-0.567680,0.602700,
-0.558610,0.603610,
0*%
%ADD61PPAD055*%
%ADD62C,1.670000*%
%AMPPAD076*
4,1,4,
0.279400,0.749300,
-0.279400,0.749300,
-0.279400,-0.749300,
0.279400,-0.749300,
0.279400,0.749300,
0*%
%TA.AperFunction,Material*%
%ADD86PPAD076*%
%AMPPAD077*
4,1,4,
-0.749300,0.279400,
-0.749300,-0.279400,
0.749300,-0.279400,
0.749300,0.279400,
-0.749300,0.279400,
0*%
%ADD87PPAD077*%
%AMPPAD078*
4,1,36,
0.444500,0.571500,
-0.444500,0.571500,
-0.470090,0.568920,
-0.493930,0.561520,
-0.515500,0.549810,
-0.534300,0.534300,
-0.549810,0.515500,
-0.561520,0.493930,
-0.568920,0.470090,
-0.571500,0.444500,
-0.571500,-0.444500,
-0.568920,-0.470090,
-0.561520,-0.493930,
-0.549810,-0.515500,
-0.534300,-0.534300,
-0.515500,-0.549810,
-0.493930,-0.561520,
-0.470090,-0.568920,
-0.444500,-0.571500,
0.444500,-0.571500,
0.470090,-0.568920,
0.493930,-0.561520,
0.515500,-0.549810,
0.534300,-0.534300,
0.549810,-0.515500,
0.561520,-0.493930,
0.568920,-0.470090,
0.571500,-0.444500,
0.571500,0.444500,
0.568920,0.470090,
0.561520,0.493930,
0.549810,0.515500,
0.534300,0.534300,
0.515500,0.549810,
0.493930,0.561520,
0.470090,0.568920,
0.444500,0.571500,
0*%
%TA.AperFunction,Material*%
%ADD88PPAD078*%
%AMPPAD079*
4,1,36,
1.473200,-0.571500,
1.473200,0.571500,
1.470620,0.597090,
1.463220,0.620930,
1.451510,0.642500,
1.436000,0.661300,
1.417200,0.676810,
1.395630,0.688520,
1.371790,0.695920,
1.346200,0.698500,
-1.346200,0.698500,
-1.371790,0.695920,
-1.395630,0.688520,
-1.417200,0.676810,
-1.436000,0.661300,
-1.451510,0.642500,
-1.463220,0.620930,
-1.470620,0.597090,
-1.473200,0.571500,
-1.473200,-0.571500,
-1.470620,-0.597090,
-1.463220,-0.620930,
-1.451510,-0.642500,
-1.436000,-0.661300,
-1.417200,-0.676810,
-1.395630,-0.688520,
-1.371790,-0.695920,
-1.346200,-0.698500,
1.346200,-0.698500,
1.371790,-0.695920,
1.395630,-0.688520,
1.417200,-0.676810,
1.436000,-0.661300,
1.451510,-0.642500,
1.463220,-0.620930,
1.470620,-0.597090,
1.473200,-0.571500,
0*%
%ADD89PPAD079*%
%AMPPAD080*
4,1,4,
-1.016000,0.889000,
-1.016000,-0.889000,
1.016000,-0.889000,
1.016000,0.889000,
-1.016000,0.889000,
0*%
%ADD90PPAD080*%
%AMPPAD081*
4,1,36,
0.317500,1.143000,
-0.317500,1.143000,
-0.343090,1.140420,
-0.366930,1.133020,
-0.388500,1.121310,
-0.407300,1.105800,
-0.422810,1.087000,
-0.434520,1.065430,
-0.441920,1.041590,
-0.444500,1.016000,
-0.444500,-1.016000,
-0.441920,-1.041590,
-0.434520,-1.065430,
-0.422810,-1.087000,
-0.407300,-1.105800,
-0.388500,-1.121310,
-0.366930,-1.133020,
-0.343090,-1.140420,
-0.317500,-1.143000,
0.317500,-1.143000,
0.343090,-1.140420,
0.366930,-1.133020,
0.388500,-1.121310,
0.407300,-1.105800,
0.422810,-1.087000,
0.434520,-1.065430,
0.441920,-1.041590,
0.444500,-1.016000,
0.444500,1.016000,
0.441920,1.041590,
0.434520,1.065430,
0.422810,1.087000,
0.407300,1.105800,
0.388500,1.121310,
0.366930,1.133020,
0.343090,1.140420,
0.317500,1.143000,
0*%
%TA.AperFunction,Material*%
%ADD91PPAD081*%
%AMPPAD069*
4,1,36,
0.462480,-0.513430,
-0.462480,-0.513430,
-0.472750,-0.512390,
-0.482310,-0.509420,
-0.490960,-0.504730,
-0.498500,-0.498500,
-0.504720,-0.490960,
-0.509420,-0.482310,
-0.512390,-0.472750,
-0.513430,-0.462480,
-0.513430,0.462480,
-0.512390,0.472750,
-0.509420,0.482310,
-0.504720,0.490960,
-0.498500,0.498500,
-0.490960,0.504730,
-0.482310,0.509420,
-0.472750,0.512390,
-0.462480,0.513430,
0.462480,0.513430,
0.472750,0.512390,
0.482310,0.509420,
0.490960,0.504730,
0.498500,0.498500,
0.504720,0.490960,
0.509420,0.482310,
0.512390,0.472750,
0.513430,0.462480,
0.513430,-0.462480,
0.512390,-0.472750,
0.509420,-0.482310,
0.504720,-0.490960,
0.498500,-0.498500,
0.490960,-0.504730,
0.482310,-0.509420,
0.472750,-0.512390,
0.462480,-0.513430,
0*%
%TA.AperFunction,Material*%
%ADD79PPAD069*%
%ADD80C,1.410000*%
%AMPPAD082*
4,1,36,
-0.205000,0.735000,
-0.205000,-0.735000,
-0.203980,-0.745080,
-0.201070,-0.754460,
-0.196460,-0.762950,
-0.190350,-0.770350,
-0.182950,-0.776460,
-0.174460,-0.781070,
-0.165080,-0.783980,
-0.155000,-0.785000,
0.155000,-0.785000,
0.165080,-0.783980,
0.174460,-0.781070,
0.182950,-0.776460,
0.190350,-0.770350,
0.196460,-0.762950,
0.201070,-0.754460,
0.203980,-0.745080,
0.205000,-0.735000,
0.205000,0.735000,
0.203980,0.745080,
0.201070,0.754460,
0.196460,0.762950,
0.190350,0.770350,
0.182950,0.776460,
0.174460,0.781070,
0.165080,0.783980,
0.155000,0.785000,
-0.155000,0.785000,
-0.165080,0.783980,
-0.174460,0.781070,
-0.182950,0.776460,
-0.190350,0.770350,
-0.196460,0.762950,
-0.201070,0.754460,
-0.203980,0.745080,
-0.205000,0.735000,
0*%
%TA.AperFunction,Material*%
%ADD92PPAD082*%
%AMPPAD083*
4,1,36,
0.179610,-0.898030,
0.898030,-0.179610,
0.914300,-0.159690,
0.925920,-0.137600,
0.932890,-0.114060,
0.935220,-0.089800,
0.932890,-0.065540,
0.925920,-0.042010,
0.914300,-0.019920,
0.898030,0.000000,
0.000000,0.898030,
-0.019920,0.914300,
-0.042010,0.925920,
-0.065540,0.932890,
-0.089800,0.935220,
-0.114060,0.932890,
-0.137600,0.925920,
-0.159690,0.914300,
-0.179610,0.898030,
-0.898030,0.179610,
-0.914300,0.159690,
-0.925920,0.137600,
-0.932890,0.114060,
-0.935220,0.089800,
-0.932890,0.065540,
-0.925920,0.042010,
-0.914300,0.019920,
-0.898030,0.000000,
0.000000,-0.898030,
0.019920,-0.914300,
0.042010,-0.925920,
0.065540,-0.932890,
0.089800,-0.935220,
0.114060,-0.932890,
0.137600,-0.925920,
0.159690,-0.914300,
0.179610,-0.898030,
0*%
%TA.AperFunction,Material*%
%ADD93PPAD083*%
%AMPPAD084*
4,1,36,
-1.016000,0.698500,
-1.016000,-0.698500,
-1.013420,-0.724090,
-1.006020,-0.747930,
-0.994310,-0.769500,
-0.978800,-0.788300,
-0.960000,-0.803810,
-0.938430,-0.815520,
-0.914590,-0.822920,
-0.889000,-0.825500,
0.889000,-0.825500,
0.914590,-0.822920,
0.938430,-0.815520,
0.960000,-0.803810,
0.978800,-0.788300,
0.994310,-0.769500,
1.006020,-0.747930,
1.013420,-0.724090,
1.016000,-0.698500,
1.016000,0.698500,
1.013420,0.724090,
1.006020,0.747930,
0.994310,0.769500,
0.978800,0.788300,
0.960000,0.803810,
0.938430,0.815520,
0.914590,0.822920,
0.889000,0.825500,
-0.889000,0.825500,
-0.914590,0.822920,
-0.938430,0.815520,
-0.960000,0.803810,
-0.978800,0.788300,
-0.994310,0.769500,
-1.006020,0.747930,
-1.013420,0.724090,
-1.016000,0.698500,
0*%
%ADD94PPAD084*%
%AMPPAD071*
4,1,36,
0.580330,0.530330,
0.580330,-0.530330,
0.579310,-0.540410,
0.576400,-0.549790,
0.571790,-0.558280,
0.565680,-0.565680,
0.558280,-0.571790,
0.549790,-0.576400,
0.540410,-0.579310,
0.530330,-0.580330,
-0.530330,-0.580330,
-0.540410,-0.579310,
-0.549790,-0.576400,
-0.558280,-0.571790,
-0.565680,-0.565680,
-0.571790,-0.558280,
-0.576400,-0.549790,
-0.579310,-0.540410,
-0.580330,-0.530330,
-0.580330,0.530330,
-0.579310,0.540410,
-0.576400,0.549790,
-0.571790,0.558280,
-0.565680,0.565680,
-0.558280,0.571790,
-0.549790,0.576400,
-0.540410,0.579310,
-0.530330,0.580330,
0.530330,0.580330,
0.540410,0.579310,
0.549790,0.576400,
0.558280,0.571790,
0.565680,0.565680,
0.571790,0.558280,
0.576400,0.549790,
0.579310,0.540410,
0.580330,0.530330,
0*%
%TA.AperFunction,Material*%
%ADD81PPAD071*%
%ADD82C,1.600000*%
%AMPPAD085*
4,1,36,
0.718420,0.089800,
0.089800,0.718420,
0.069880,0.734690,
0.047790,0.746320,
0.024260,0.753290,
0.000000,0.755610,
-0.024260,0.753290,
-0.047790,0.746320,
-0.069880,0.734690,
-0.089800,0.718420,
-0.718420,0.089800,
-0.734690,0.069880,
-0.746320,0.047790,
-0.753290,0.024260,
-0.755610,0.000000,
-0.753290,-0.024260,
-0.746320,-0.047790,
-0.734690,-0.069880,
-0.718420,-0.089800,
-0.089800,-0.718420,
-0.069880,-0.734690,
-0.047790,-0.746320,
-0.024260,-0.753290,
0.000000,-0.755610,
0.024260,-0.753290,
0.047790,-0.746320,
0.069880,-0.734690,
0.089800,-0.718420,
0.718420,-0.089800,
0.734690,-0.069880,
0.746320,-0.047790,
0.753290,-0.024260,
0.755610,0.000000,
0.753290,0.024260,
0.746320,0.047790,
0.734690,0.069880,
0.718420,0.089800,
0*%
%TA.AperFunction,Material*%
%ADD95PPAD085*%
%AMPPAD086*
4,1,36,
1.143000,-0.317500,
1.143000,0.317500,
1.140420,0.343090,
1.133020,0.366930,
1.121310,0.388500,
1.105800,0.407300,
1.087000,0.422810,
1.065430,0.434520,
1.041590,0.441920,
1.016000,0.444500,
-1.016000,0.444500,
-1.041590,0.441920,
-1.065430,0.434520,
-1.087000,0.422810,
-1.105800,0.407300,
-1.121310,0.388500,
-1.133020,0.366930,
-1.140420,0.343090,
-1.143000,0.317500,
-1.143000,-0.317500,
-1.140420,-0.343090,
-1.133020,-0.366930,
-1.121310,-0.388500,
-1.105800,-0.407300,
-1.087000,-0.422810,
-1.065430,-0.434520,
-1.041590,-0.441920,
-1.016000,-0.444500,
1.016000,-0.444500,
1.041590,-0.441920,
1.065430,-0.434520,
1.087000,-0.422810,
1.105800,-0.407300,
1.121310,-0.388500,
1.133020,-0.366930,
1.140420,-0.343090,
1.143000,-0.317500,
0*%
%TA.AperFunction,Material*%
%ADD96PPAD086*%
%AMPPAD064*
4,1,36,
1.143000,1.016000,
1.143000,-1.016000,
1.140420,-1.041590,
1.133020,-1.065430,
1.121310,-1.087000,
1.105800,-1.105800,
1.087000,-1.121310,
1.065430,-1.133020,
1.041590,-1.140420,
1.016000,-1.143000,
-1.016000,-1.143000,
-1.041590,-1.140420,
-1.065430,-1.133020,
-1.087000,-1.121310,
-1.105800,-1.105800,
-1.121310,-1.087000,
-1.133020,-1.065430,
-1.140420,-1.041590,
-1.143000,-1.016000,
-1.143000,1.016000,
-1.140420,1.041590,
-1.133020,1.065430,
-1.121310,1.087000,
-1.105800,1.105800,
-1.087000,1.121310,
-1.065430,1.133020,
-1.041590,1.140420,
-1.016000,1.143000,
1.016000,1.143000,
1.041590,1.140420,
1.065430,1.133020,
1.087000,1.121310,
1.105800,1.105800,
1.121310,1.087000,
1.133020,1.065430,
1.140420,1.041590,
1.143000,1.016000,
0*%
%TA.AperFunction,Material*%
%ADD74PPAD064*%
%AMPPAD087*
4,1,36,
-0.698500,-1.016000,
0.698500,-1.016000,
0.724090,-1.013420,
0.747930,-1.006020,
0.769500,-0.994310,
0.788300,-0.978800,
0.803810,-0.960000,
0.815520,-0.938430,
0.822920,-0.914590,
0.825500,-0.889000,
0.825500,0.889000,
0.822920,0.914590,
0.815520,0.938430,
0.803810,0.960000,
0.788300,0.978800,
0.769500,0.994310,
0.747930,1.006020,
0.724090,1.013420,
0.698500,1.016000,
-0.698500,1.016000,
-0.724090,1.013420,
-0.747930,1.006020,
-0.769500,0.994310,
-0.788300,0.978800,
-0.803810,0.960000,
-0.815520,0.938430,
-0.822920,0.914590,
-0.825500,0.889000,
-0.825500,-0.889000,
-0.822920,-0.914590,
-0.815520,-0.938430,
-0.803810,-0.960000,
-0.788300,-0.978800,
-0.769500,-0.994310,
-0.747930,-1.006020,
-0.724090,-1.013420,
-0.698500,-1.016000,
0*%
%ADD97PPAD087*%
%AMPPAD088*
4,1,36,
-0.889000,0.508000,
-0.889000,-0.508000,
-0.886420,-0.533590,
-0.879020,-0.557430,
-0.867310,-0.579000,
-0.851800,-0.597800,
-0.833000,-0.613310,
-0.811430,-0.625020,
-0.787590,-0.632420,
-0.762000,-0.635000,
0.762000,-0.635000,
0.787590,-0.632420,
0.811430,-0.625020,
0.833000,-0.613310,
0.851800,-0.597800,
0.867310,-0.579000,
0.879020,-0.557430,
0.886420,-0.533590,
0.889000,-0.508000,
0.889000,0.508000,
0.886420,0.533590,
0.879020,0.557430,
0.867310,0.579000,
0.851800,0.597800,
0.833000,0.613310,
0.811430,0.625020,
0.787590,0.632420,
0.762000,0.635000,
-0.762000,0.635000,
-0.787590,0.632420,
-0.811430,0.625020,
-0.833000,0.613310,
-0.851800,0.597800,
-0.867310,0.579000,
-0.879020,0.557430,
-0.886420,0.533590,
-0.889000,0.508000,
0*%
%ADD98PPAD088*%
%AMPPAD089*
4,1,36,
-0.508000,-0.889000,
0.508000,-0.889000,
0.533590,-0.886420,
0.557430,-0.879020,
0.579000,-0.867310,
0.597800,-0.851800,
0.613310,-0.833000,
0.625020,-0.811430,
0.632420,-0.787590,
0.635000,-0.762000,
0.635000,0.762000,
0.632420,0.787590,
0.625020,0.811430,
0.613310,0.833000,
0.597800,0.851800,
0.579000,0.867310,
0.557430,0.879020,
0.533590,0.886420,
0.508000,0.889000,
-0.508000,0.889000,
-0.533590,0.886420,
-0.557430,0.879020,
-0.579000,0.867310,
-0.597800,0.851800,
-0.613310,0.833000,
-0.625020,0.811430,
-0.632420,0.787590,
-0.635000,0.762000,
-0.635000,-0.762000,
-0.632420,-0.787590,
-0.625020,-0.811430,
-0.613310,-0.833000,
-0.597800,-0.851800,
-0.579000,-0.867310,
-0.557430,-0.879020,
-0.533590,-0.886420,
-0.508000,-0.889000,
0*%
%ADD99PPAD089*%
%AMPPAD090*
4,1,36,
-0.987830,-0.269410,
-0.269410,-0.987830,
-0.249490,-1.004100,
-0.227400,-1.015720,
-0.203870,-1.022700,
-0.179610,-1.025020,
-0.155340,-1.022700,
-0.131810,-1.015720,
-0.109720,-1.004100,
-0.089800,-0.987830,
0.987830,0.089800,
1.004100,0.109720,
1.015720,0.131810,
1.022700,0.155340,
1.025020,0.179610,
1.022700,0.203870,
1.015720,0.227400,
1.004100,0.249490,
0.987830,0.269410,
0.269410,0.987830,
0.249490,1.004100,
0.227400,1.015720,
0.203870,1.022700,
0.179610,1.025020,
0.155340,1.022700,
0.131810,1.015720,
0.109720,1.004100,
0.089800,0.987830,
-0.987830,-0.089800,
-1.004100,-0.109720,
-1.015720,-0.131810,
-1.022700,-0.155340,
-1.025020,-0.179610,
-1.022700,-0.203870,
-1.015720,-0.227400,
-1.004100,-0.249490,
-0.987830,-0.269410,
0*%
%ADD100PPAD090*%
%AMPPAD091*
4,1,36,
0.898030,0.179610,
0.179610,0.898030,
0.159690,0.914300,
0.137600,0.925920,
0.114060,0.932890,
0.089800,0.935220,
0.065540,0.932890,
0.042010,0.925920,
0.019920,0.914300,
0.000000,0.898030,
-0.898030,0.000000,
-0.914300,-0.019920,
-0.925920,-0.042010,
-0.932890,-0.065540,
-0.935220,-0.089800,
-0.932890,-0.114060,
-0.925920,-0.137600,
-0.914300,-0.159690,
-0.898030,-0.179610,
-0.179610,-0.898030,
-0.159690,-0.914300,
-0.137600,-0.925920,
-0.114060,-0.932890,
-0.089800,-0.935220,
-0.065540,-0.932890,
-0.042010,-0.925920,
-0.019920,-0.914300,
0.000000,-0.898030,
0.898030,0.000000,
0.914300,0.019920,
0.925920,0.042010,
0.932890,0.065540,
0.935220,0.089800,
0.932890,0.114060,
0.925920,0.137600,
0.914300,0.159690,
0.898030,0.179610,
0*%
%ADD101PPAD091*%
%AMPPAD073*
4,1,4,
-0.459610,0.459610,
0.459610,0.459610,
0.459610,-0.459610,
-0.459610,-0.459610,
-0.459610,0.459610,
0*%
%TA.AperFunction,Material*%
%ADD83PPAD073*%
%ADD84C,1.300000*%
%AMPPAD092*
4,1,4,
-0.500000,1.250000,
-0.500000,-1.250000,
0.500000,-1.250000,
0.500000,1.250000,
-0.500000,1.250000,
0*%
%TA.AperFunction,Material*%
%ADD102PPAD092*%
%AMPPAD093*
4,1,4,
-1.250000,3.000000,
-1.250000,-3.000000,
1.250000,-3.000000,
1.250000,3.000000,
-1.250000,3.000000,
0*%
%ADD103PPAD093*%
%TA.AperFunction,Material*%
%ADD85C,5.080000*%
%AMPPAD094*
4,1,36,
-0.635000,0.444500,
-0.635000,-0.444500,
-0.632420,-0.470090,
-0.625020,-0.493930,
-0.613310,-0.515500,
-0.597800,-0.534300,
-0.579000,-0.549810,
-0.557430,-0.561520,
-0.533590,-0.568920,
-0.508000,-0.571500,
0.508000,-0.571500,
0.533590,-0.568920,
0.557430,-0.561520,
0.579000,-0.549810,
0.597800,-0.534300,
0.613310,-0.515500,
0.625020,-0.493930,
0.632420,-0.470090,
0.635000,-0.444500,
0.635000,0.444500,
0.632420,0.470090,
0.625020,0.493930,
0.613310,0.515500,
0.597800,0.534300,
0.579000,0.549810,
0.557430,0.561520,
0.533590,0.568920,
0.508000,0.571500,
-0.508000,0.571500,
-0.533590,0.568920,
-0.557430,0.561520,
-0.579000,0.549810,
-0.597800,0.534300,
-0.613310,0.515500,
-0.625020,0.493930,
-0.632420,0.470090,
-0.635000,0.444500,
0*%
%TA.AperFunction,Material*%
%ADD104PPAD094*%
%AMPPAD095*
4,1,36,
-0.508000,-0.762000,
0.508000,-0.762000,
0.533590,-0.759420,
0.557430,-0.752020,
0.579000,-0.740310,
0.597800,-0.724800,
0.613310,-0.706000,
0.625020,-0.684430,
0.632420,-0.660590,
0.635000,-0.635000,
0.635000,0.635000,
0.632420,0.660590,
0.625020,0.684430,
0.613310,0.706000,
0.597800,0.724800,
0.579000,0.740310,
0.557430,0.752020,
0.533590,0.759420,
0.508000,0.762000,
-0.508000,0.762000,
-0.533590,0.759420,
-0.557430,0.752020,
-0.579000,0.740310,
-0.597800,0.724800,
-0.613310,0.706000,
-0.625020,0.684430,
-0.632420,0.660590,
-0.635000,0.635000,
-0.635000,-0.635000,
-0.632420,-0.660590,
-0.625020,-0.684430,
-0.613310,-0.706000,
-0.597800,-0.724800,
-0.579000,-0.740310,
-0.557430,-0.752020,
-0.533590,-0.759420,
-0.508000,-0.762000,
0*%
%TA.AperFunction,Material*%
%ADD105PPAD095*%
%AMPPAD096*
4,1,36,
0.762000,-0.508000,
0.762000,0.508000,
0.759420,0.533590,
0.752020,0.557430,
0.740310,0.579000,
0.724800,0.597800,
0.706000,0.613310,
0.684430,0.625020,
0.660590,0.632420,
0.635000,0.635000,
-0.635000,0.635000,
-0.660590,0.632420,
-0.684430,0.625020,
-0.706000,0.613310,
-0.724800,0.597800,
-0.740310,0.579000,
-0.752020,0.557430,
-0.759420,0.533590,
-0.762000,0.508000,
-0.762000,-0.508000,
-0.759420,-0.533590,
-0.752020,-0.557430,
-0.740310,-0.579000,
-0.724800,-0.597800,
-0.706000,-0.613310,
-0.684430,-0.625020,
-0.660590,-0.632420,
-0.635000,-0.635000,
0.635000,-0.635000,
0.660590,-0.632420,
0.684430,-0.625020,
0.706000,-0.613310,
0.724800,-0.597800,
0.740310,-0.579000,
0.752020,-0.557430,
0.759420,-0.533590,
0.762000,-0.508000,
0*%
%ADD106PPAD096*%
%TA.AperFunction,Profile*%
%ADD34C,0.101600*%
%TD.AperFunction*%
D60*
X-795355Y+1508605D03*
X-802301Y+229721D03*
X+975698Y-523395D03*
X-902723Y-464041D03*
X-1183302Y-15395D03*
X+273502Y-557667D03*
X+594632Y+1000407D03*
X+1090653Y+1078037D03*
X+1489407Y+2135718D03*
X-635000Y-1412395D03*
X+1268320Y-3484744D03*
X+492198Y+1373693D03*
X+1737698Y-2239395D03*
X+1143000Y-241000D03*
X+1143000Y-1016000D03*
D61*
X-1183302Y-269395D03*
D62*
X-1433302Y-269395D03*
D61*
X-1183302Y-2936395D03*
D62*
X-1433302Y-2936395D03*
D86*
X-121302Y+990226D03*
X-41302Y+990226D03*
X+38698Y+990226D03*
X+118698Y+990226D03*
X+198698Y+990226D03*
X+278698Y+990226D03*
X+358698Y+990226D03*
X+438698Y+990226D03*
D87*
X+578698Y+850226D03*
X+578698Y+770226D03*
X+578698Y+690226D03*
X+578698Y+610226D03*
X+578698Y+530226D03*
X+578698Y+450226D03*
X+578698Y+370226D03*
X+578698Y+290226D03*
D86*
X+438698Y+150226D03*
X+358698Y+150226D03*
X+278698Y+150226D03*
X+198698Y+150226D03*
X+118698Y+150226D03*
X+38698Y+150226D03*
X-41302Y+150226D03*
X-121302Y+150226D03*
D87*
X-261302Y+290226D03*
X-261302Y+370226D03*
X-261302Y+450226D03*
X-261302Y+530226D03*
X-261302Y+610226D03*
X-261302Y+690226D03*
X-261302Y+770226D03*
X-261302Y+850226D03*
D88*
X+164418Y+1245226D03*
X-8302Y+1245226D03*
X+462280Y-56036D03*
X+635000Y-56036D03*
D89*
X+508000Y-508000D03*
X+508000Y-182880D03*
D88*
X+118698Y+1372226D03*
X+291418Y+1372226D03*
X+1102698Y+1254605D03*
X+1102698Y+1427325D03*
X+1102698Y+1635605D03*
X+1102698Y+1462885D03*
D90*
X+847698Y+1578226D03*
X+847698Y+1146426D03*
D91*
X+1347525Y+1517778D03*
X+1474525Y+1517778D03*
X+1601525Y+1517778D03*
X+1728525Y+1517778D03*
X+1728525Y+997078D03*
X+1601525Y+997078D03*
X+1474525Y+997078D03*
X+1347525Y+997078D03*
D79*
X-676302Y+1959226D03*
D80*
X-476302Y+1959226D03*
X-276302Y+1959226D03*
X-76302Y+1959226D03*
X+123698Y+1959226D03*
X+323698Y+1959226D03*
D79*
X+882698Y+1959226D03*
D80*
X+1082698Y+1959226D03*
X+1282698Y+1959226D03*
X+1482698Y+1959226D03*
D79*
X-40302Y-1031395D03*
D80*
X-240302Y-1031395D03*
X-440302Y-1031395D03*
X-640302Y-1031395D03*
X-840302Y-1031395D03*
X-1040302Y-1031395D03*
X-1240302Y-1031395D03*
X-1440302Y-1031395D03*
D92*
X-725426Y-2406650D03*
X-660426Y-2406650D03*
X-595426Y-2406650D03*
X-530426Y-2406650D03*
X-465426Y-2406650D03*
X-399938Y-2406650D03*
X-334914Y-2406650D03*
X-269426Y-2406650D03*
X-204426Y-2406650D03*
X-139426Y-2406650D03*
X-74426Y-2406650D03*
X-9426Y-2406650D03*
X-9426Y-2980650D03*
X-74426Y-2980650D03*
X-139426Y-2980650D03*
X-204426Y-2980650D03*
X-269426Y-2980650D03*
X-334914Y-2980650D03*
X-399938Y-2980650D03*
X-465426Y-2980650D03*
X-530426Y-2980650D03*
X-595426Y-2980650D03*
X-660426Y-2980650D03*
X-725426Y-2980650D03*
D79*
X-1429334Y-1981140D03*
D80*
X-1229334Y-1981140D03*
X-1029334Y-1981140D03*
X-829334Y-1981140D03*
D79*
X-286426Y-1986650D03*
D80*
X-86426Y-1986650D03*
X+113574Y-1986650D03*
X+313574Y-1986650D03*
D79*
X+856574Y-1986650D03*
D80*
X+1056574Y-1986650D03*
X+1256574Y-1986650D03*
X+1456574Y-1986650D03*
D79*
X+1456574Y-3908650D03*
D80*
X+1256574Y-3908650D03*
X+1056574Y-3908650D03*
X+856574Y-3908650D03*
D79*
X+313574Y-3908650D03*
D80*
X+113574Y-3908650D03*
X-86426Y-3908650D03*
X-286426Y-3908650D03*
D79*
X-829426Y-3908650D03*
D80*
X-1029426Y-3908650D03*
X-1229426Y-3908650D03*
X-1429426Y-3908650D03*
D88*
X-802302Y+538325D03*
X-802302Y+365605D03*
D93*
X-1547868Y+1373132D03*
X-1397000Y+1524000D03*
D94*
X-1038302Y+562226D03*
X-1038302Y+222226D03*
X-1292302Y+562226D03*
X-1292302Y+222226D03*
X-1038302Y+730226D03*
X-1038302Y+1070226D03*
X-1292302Y+730226D03*
X-1292302Y+1070226D03*
D81*
X-1114302Y+2270605D03*
D82*
X-1114302Y+1620605D03*
X-1564302Y+2270605D03*
X-1564302Y+1620605D03*
D88*
X-682249Y+1374658D03*
X-682249Y+1201938D03*
D95*
X+1229698Y+2016605D03*
X+1107567Y+2138736D03*
D88*
X+213698Y+2951325D03*
X+213698Y+2778605D03*
X+1582423Y+2522538D03*
X+1582423Y+2349818D03*
D95*
X-548302Y+1762605D03*
X-670433Y+1640474D03*
X-299170Y+1757737D03*
X-421301Y+1635606D03*
X-40302Y+1762605D03*
X-162433Y+1640474D03*
X+213698Y+1762605D03*
X+91567Y+1640474D03*
D96*
X-27602Y+3032605D03*
X-27602Y+2905605D03*
X-27602Y+2778605D03*
X-27602Y+2651605D03*
X-27602Y+2524605D03*
X-27602Y+2397605D03*
X-27602Y+2270605D03*
X-548302Y+2270605D03*
X-548302Y+2397605D03*
X-548302Y+2524605D03*
X-548302Y+2651605D03*
X-548302Y+2778605D03*
X-548302Y+2905605D03*
X-548302Y+3032605D03*
D91*
X+1483698Y+2372205D03*
X+1356698Y+2372205D03*
X+1229698Y+2372205D03*
X+1102698Y+2372205D03*
X+975698Y+2372205D03*
X+848698Y+2372205D03*
X+721698Y+2372205D03*
X+721698Y+2892905D03*
X+848698Y+2892905D03*
X+975698Y+2892905D03*
X+1102698Y+2892905D03*
X+1229698Y+2892905D03*
X+1356698Y+2892905D03*
X+1483698Y+2892905D03*
D74*
X+886652Y+3540605D03*
X+886652Y+3286605D03*
X+1270000Y+3556000D03*
X+1270000Y+3302000D03*
D88*
X+975698Y+3205325D03*
X+975698Y+3032605D03*
X+1229698Y+3205325D03*
X+1229698Y+3032605D03*
X+1783418Y+2905605D03*
X+1610698Y+2905605D03*
X-6582Y+3131605D03*
X-179302Y+3131605D03*
D74*
X-635000Y+3286605D03*
X-635000Y+3540605D03*
X-381000Y+3429000D03*
X-127000Y+3429000D03*
X+127000Y+3302000D03*
X+127000Y+3556000D03*
X+508000Y+3302000D03*
X+508000Y+3556000D03*
D88*
X-807720Y+2286000D03*
X-635000Y+2286000D03*
X-381000Y+3347720D03*
X-381000Y+3175000D03*
X+340698Y+3093720D03*
X+340698Y+2921000D03*
X+594698Y+3159605D03*
X+594698Y+2986885D03*
D97*
X-1269302Y+1254605D03*
X-929302Y+1254605D03*
D88*
X-675302Y+2905605D03*
X-848022Y+2905605D03*
D98*
X-167302Y-1285395D03*
X-167302Y-1600355D03*
D99*
X-736262Y-1793395D03*
X-421302Y-1793395D03*
D98*
X+340698Y-1854355D03*
X+340698Y-1539395D03*
X+1483698Y-1793395D03*
X+1483698Y-1478435D03*
D100*
X-294302Y-4079395D03*
X-71592Y-4302106D03*
X-1437302Y-4079395D03*
X-1214592Y-4302106D03*
X+848698Y-4079395D03*
X+1071409Y-4302105D03*
D88*
X-1056302Y-3109115D03*
X-1056302Y-2936395D03*
D101*
X-869638Y-202059D03*
X-1020506Y-51191D03*
X-651434Y-166264D03*
X-802302Y-15395D03*
D83*
X+889000Y+127000D03*
D84*
X+889000Y+381000D03*
X+1143000Y+127000D03*
X+1143000Y+381000D03*
X+1397000Y+127000D03*
X+1397000Y+381000D03*
D88*
X+213699Y-315115D03*
X+213699Y-142395D03*
D95*
X-543434Y-899526D03*
X-421303Y-777395D03*
X-289433Y-518526D03*
X-167302Y-396395D03*
X-543433Y-518526D03*
X-421302Y-396395D03*
X-924433Y-772527D03*
X-802302Y-650396D03*
X-1392131Y-884132D03*
X-1270000Y-762000D03*
D88*
X-929302Y-2809395D03*
X-929302Y-2636675D03*
X+1229698Y+1000605D03*
X+1229698Y+1173325D03*
D74*
X+848698Y+873605D03*
X+1102698Y+873605D03*
X-1270000Y-1524000D03*
X-1016000Y-1524000D03*
X-1270000Y-3429000D03*
X-1016000Y-3429000D03*
D95*
X-884132Y-1392132D03*
X-762000Y-1270000D03*
D88*
X-1691302Y-4064000D03*
X-1691302Y-3891280D03*
D102*
X+1905000Y+1905000D03*
X+1655000Y+1905000D03*
D103*
X+1780000Y+2480000D03*
D85*
X-1778000Y+3302000D03*
X+1778000Y+3302000D03*
X-1778000Y-3429000D03*
X+1778000Y-3429000D03*
D104*
X-1778000Y+93980D03*
X-1968500Y+0D03*
X-1968500Y+187960D03*
X-1649680Y-287020D03*
X-1840180Y-381000D03*
X-1840180Y-193040D03*
D101*
X-1778000Y+254000D03*
X-1928868Y+404869D03*
D95*
X-1840180Y-572821D03*
X-1718048Y-694952D03*
D105*
X-1894793Y-1026207D03*
X-1681433Y-1026207D03*
D88*
X-1905000Y-762000D03*
X-1905000Y-934720D03*
D106*
X-1524000Y-40640D03*
X-1524000Y+172720D03*
D74*
X-1524000Y+2667000D03*
X-1524000Y+2921000D03*
X-1143000Y+2667000D03*
X-1143000Y+2921000D03*
D106*
X-1524001Y+802640D03*
X-1524000Y+1016000D03*
D34*
X-2077000Y-4450000D02*
X+2123000Y-4450000D01*
X+2123000Y+3750000D01*
X-2077000Y+3750000D01*
X-2077000Y-4450000D01*
M02*
