G04 PROTEUS GERBER X2 FILE*
%TF.GenerationSoftware,Labcenter,Proteus,8.16-SP3-Build36097*%
%TF.CreationDate,2024-05-04T02:13:19+00:00*%
%TF.FileFunction,AssemblyDrawing,Top*%
%TF.FilePolarity,Positive*%
%TF.Part,Single*%
%TF.SameCoordinates,{03efdd39-6268-421f-b844-547f2104f690}*%
%FSLAX45Y45*%
%MOMM*%
G01*
%TA.AperFunction,Material*%
%ADD53C,0.100000*%
%ADD135C,0.609600*%
%ADD136C,0.380560*%
%ADD137C,0.050000*%
%ADD138C,0.446880*%
%ADD139C,0.174810*%
%ADD54C,0.101600*%
%ADD140C,0.128180*%
%ADD141C,2.794000*%
%ADD142C,0.174240*%
%ADD143C,0.182880*%
%ADD144C,0.031060*%
%ADD145C,0.508000*%
%ADD146C,0.076200*%
%ADD147C,0.103120*%
%ADD148C,0.812800*%
%ADD149C,0.157480*%
%ADD150C,0.355600*%
%ADD151C,0.056890*%
%ADD152C,1.259840*%
%ADD153C,0.201560*%
%ADD154C,1.158240*%
%ADD155C,0.167550*%
%ADD156C,0.369980*%
%ADD157C,0.278950*%
%ADD158C,0.232500*%
%ADD159C,0.424260*%
%ADD160C,0.188260*%
%ADD161C,0.171190*%
%ADD162C,0.520000*%
%ADD163C,0.286720*%
%TA.AperFunction,Profile*%
%ADD34C,0.101600*%
%TD.AperFunction*%
D53*
X+308000Y-1851000D02*
X+1978000Y-1851000D01*
X+1978000Y-31000D01*
X+308000Y-31000D01*
X+308000Y-1851000D01*
D135*
X+1143000Y-241000D02*
X+1143000Y-241000D01*
D136*
X+800492Y-1177909D02*
X+800492Y-949570D01*
X+1014559Y-949570D01*
X+1057373Y-987627D01*
X+1057373Y-1025683D01*
X+1014559Y-1063740D01*
X+1057373Y-1101796D01*
X+1057373Y-1139853D01*
X+1014559Y-1177909D01*
X+800492Y-1177909D01*
X+800492Y-1063740D02*
X+1014559Y-1063740D01*
X+1228627Y-1025683D02*
X+1314254Y-949570D01*
X+1314254Y-1177909D01*
D137*
X-1703302Y+95605D02*
X-1703302Y-528395D01*
X-913302Y-528395D01*
X-913302Y+95605D01*
X-1703302Y+95605D01*
D138*
X-1183302Y-269395D02*
X-1183302Y-269395D01*
D139*
X-1438242Y-452393D02*
X-1420761Y-452393D01*
X-1403279Y-432727D01*
X-1403279Y-354061D01*
X-1420761Y-334394D01*
X-1508168Y-334394D01*
X-1473205Y-255728D02*
X-1508168Y-216395D01*
X-1403279Y-216395D01*
X-1473205Y-98396D02*
X-1508168Y-59063D01*
X-1403279Y-59063D01*
D137*
X-1703302Y-2571395D02*
X-1703302Y-3195395D01*
X-913302Y-3195395D01*
X-913302Y-2571395D01*
X-1703302Y-2571395D01*
D138*
X-1183302Y-2936395D02*
X-1183302Y-2936395D01*
D139*
X-1438242Y-3119393D02*
X-1420761Y-3119393D01*
X-1403279Y-3099727D01*
X-1403279Y-3021061D01*
X-1420761Y-3001394D01*
X-1508168Y-3001394D01*
X-1473205Y-2922728D02*
X-1508168Y-2883395D01*
X-1403279Y-2883395D01*
X-1490686Y-2785063D02*
X-1508168Y-2765396D01*
X-1508168Y-2706397D01*
X-1490686Y-2686730D01*
X-1473205Y-2686730D01*
X-1455724Y-2706397D01*
X-1455724Y-2765396D01*
X-1438242Y-2785063D01*
X-1403279Y-2785063D01*
X-1403279Y-2686730D01*
D54*
X-549622Y+624900D02*
X-87342Y+624900D01*
X-87342Y+1164650D01*
X-549622Y+1164650D01*
X-549622Y+624900D01*
D135*
X-168622Y+1088450D02*
X-168622Y+1088450D01*
D140*
X-433848Y+879891D02*
X-433848Y+815798D01*
X-419428Y+802980D01*
X-361745Y+802980D01*
X-347324Y+815798D01*
X-347324Y+879891D01*
X-231958Y+828617D02*
X-318482Y+828617D01*
X-260799Y+879891D01*
X-260799Y+802980D01*
D54*
X+310448Y-3666645D02*
X+1008948Y-3666645D01*
X+1008948Y-2499515D01*
X+310448Y-2499515D01*
X+310448Y-3666645D01*
D141*
X+659698Y-3317395D02*
X+659698Y-3317395D01*
D142*
X+502879Y-2786332D02*
X+502879Y-2873454D01*
X+522481Y-2890879D01*
X+600890Y-2890879D01*
X+620493Y-2873454D01*
X+620493Y-2786332D01*
X+777312Y-2786332D02*
X+679300Y-2786332D01*
X+679300Y-2821181D01*
X+757709Y-2821181D01*
X+777312Y-2838605D01*
X+777312Y-2873454D01*
X+757709Y-2890879D01*
X+698902Y-2890879D01*
X+679300Y-2873454D01*
D137*
X-1726302Y+1110605D02*
X-1726302Y+960605D01*
X-1656302Y+960605D01*
X-1656302Y+1110605D01*
X-1726302Y+1110605D01*
X-1666302Y+1035605D02*
X-1716302Y+1035605D01*
X-1691302Y+1010605D02*
X-1691302Y+1060605D01*
D143*
X-1691302Y+1070605D02*
X-1691302Y+1070605D01*
D144*
X-1700622Y+967846D02*
X-1691302Y+967846D01*
X-1681983Y+978330D01*
X-1691302Y+988814D01*
X-1700622Y+988814D01*
X-1681983Y+995804D02*
X-1700622Y+995804D01*
X-1700622Y+1013277D01*
X-1697515Y+1016772D01*
X-1694409Y+1016772D01*
X-1691302Y+1013277D01*
X-1691302Y+995804D01*
X-1691302Y+1013277D02*
X-1688196Y+1016772D01*
X-1681983Y+1016772D01*
X-1694409Y+1030751D02*
X-1700622Y+1037741D01*
X-1681983Y+1037741D01*
D137*
X-837302Y-2515395D02*
X-837302Y-2665395D01*
X-767302Y-2665395D01*
X-767302Y-2515395D01*
X-837302Y-2515395D01*
X-777302Y-2590395D02*
X-827302Y-2590395D01*
X-802302Y-2615395D02*
X-802302Y-2565395D01*
D143*
X-802302Y-2555395D02*
X-802302Y-2555395D01*
D144*
X-811622Y-2658154D02*
X-802302Y-2658154D01*
X-792983Y-2647670D01*
X-802302Y-2637186D01*
X-811622Y-2637186D01*
X-792983Y-2630196D02*
X-811622Y-2630196D01*
X-811622Y-2612723D01*
X-808515Y-2609228D01*
X-805409Y-2609228D01*
X-802302Y-2612723D01*
X-802302Y-2630196D01*
X-802302Y-2612723D02*
X-799196Y-2609228D01*
X-792983Y-2609228D01*
X-808515Y-2598744D02*
X-811622Y-2595249D01*
X-811622Y-2584765D01*
X-808515Y-2581270D01*
X-805409Y-2581270D01*
X-802302Y-2584765D01*
X-802302Y-2595249D01*
X-799196Y-2598744D01*
X-792983Y-2598744D01*
X-792983Y-2581270D01*
D54*
X-623282Y+1253550D02*
X-308322Y+1253550D01*
X-308322Y+1385630D01*
X-623282Y+1385630D01*
X-623282Y+1253550D01*
D145*
X-572482Y+1322130D02*
X-572482Y+1322130D01*
D146*
X-444847Y+1304350D02*
X-453420Y+1296730D01*
X-479137Y+1296730D01*
X-496282Y+1311970D01*
X-496282Y+1327210D01*
X-479137Y+1342450D01*
X-453420Y+1342450D01*
X-444847Y+1334830D01*
X-419130Y+1342450D02*
X-376267Y+1342450D01*
X-376267Y+1334830D01*
X-419130Y+1296730D01*
D54*
X-1422062Y-2507135D02*
X-1005502Y-2507135D01*
X-1005502Y-2349655D01*
X-1422062Y-2349655D01*
X-1422062Y-2507135D01*
D135*
X-1371262Y-2428395D02*
X-1371262Y-2428395D01*
D147*
X-1312358Y-2459333D02*
X-1312358Y-2397458D01*
X-1254352Y-2397458D01*
X-1242750Y-2407771D01*
X-1242750Y-2418083D01*
X-1254352Y-2428395D01*
X-1312358Y-2428395D01*
X-1254352Y-2428395D02*
X-1242750Y-2438708D01*
X-1242750Y-2459333D01*
X-1219547Y-2397458D02*
X-1149939Y-2397458D01*
X-1184743Y-2397458D02*
X-1184743Y-2459333D01*
X-1115135Y-2407771D02*
X-1103534Y-2397458D01*
X-1068730Y-2397458D01*
X-1057128Y-2407771D01*
X-1057128Y-2418083D01*
X-1068730Y-2428395D01*
X-1103534Y-2428395D01*
X-1115135Y-2438708D01*
X-1115135Y-2459333D01*
X-1057128Y-2459333D01*
D54*
X-595082Y+309050D02*
X+29758Y+309050D01*
X+29758Y+573210D01*
X-595082Y+573210D01*
X-595082Y+309050D01*
D148*
X-493482Y+441130D02*
X-493482Y+441130D01*
D149*
X-353274Y+393886D02*
X-353274Y+488374D01*
X-282408Y+488374D01*
X-246975Y+456878D01*
X-246975Y+425382D01*
X-282408Y+393886D01*
X-353274Y+393886D01*
X-193826Y+488374D02*
X-105243Y+488374D01*
X-105243Y+472626D01*
X-193826Y+393886D01*
D54*
X-1593562Y+544890D02*
X-1329402Y+544890D01*
X-1329402Y+1169730D01*
X-1593562Y+1169730D01*
X-1593562Y+544890D01*
D148*
X-1461482Y+1068130D02*
X-1461482Y+1068130D01*
D149*
X-1414238Y+644458D02*
X-1508726Y+644458D01*
X-1508726Y+715324D01*
X-1477230Y+750757D01*
X-1445734Y+750757D01*
X-1414238Y+715324D01*
X-1414238Y+644458D01*
X-1492978Y+892489D02*
X-1508726Y+874772D01*
X-1508726Y+821623D01*
X-1492978Y+803906D01*
X-1429986Y+803906D01*
X-1414238Y+821623D01*
X-1414238Y+874772D01*
X-1429986Y+892489D01*
X-1445734Y+892489D01*
X-1461482Y+874772D01*
X-1461482Y+803906D01*
D54*
X+328098Y-2571835D02*
X+952938Y-2571835D01*
X+952938Y-2307675D01*
X+328098Y-2307675D01*
X+328098Y-2571835D01*
D148*
X+429698Y-2439755D02*
X+429698Y-2439755D01*
D149*
X+569906Y-2486999D02*
X+569906Y-2392511D01*
X+640772Y-2392511D01*
X+676205Y-2424007D01*
X+676205Y-2455503D01*
X+640772Y-2486999D01*
X+569906Y-2486999D01*
X+817937Y-2424007D02*
X+800220Y-2439755D01*
X+747071Y-2439755D01*
X+729354Y-2424007D01*
X+729354Y-2408259D01*
X+747071Y-2392511D01*
X+800220Y-2392511D01*
X+817937Y-2408259D01*
X+817937Y-2471251D01*
X+800220Y-2486999D01*
X+747071Y-2486999D01*
D54*
X-742382Y-3078635D02*
X-478222Y-3078635D01*
X-478222Y-2453795D01*
X-742382Y-2453795D01*
X-742382Y-3078635D01*
D148*
X-610302Y-2555395D02*
X-610302Y-2555395D01*
D149*
X-563058Y-2979067D02*
X-657546Y-2979067D01*
X-657546Y-2908201D01*
X-626050Y-2872768D01*
X-594554Y-2872768D01*
X-563058Y-2908201D01*
X-563058Y-2979067D01*
X-610302Y-2801902D02*
X-626050Y-2819619D01*
X-641798Y-2819619D01*
X-657546Y-2801902D01*
X-657546Y-2748753D01*
X-641798Y-2731036D01*
X-626050Y-2731036D01*
X-610302Y-2748753D01*
X-610302Y-2801902D01*
X-594554Y-2819619D01*
X-578806Y-2819619D01*
X-563058Y-2801902D01*
X-563058Y-2748753D01*
X-578806Y-2731036D01*
X-594554Y-2731036D01*
X-610302Y-2748753D01*
D54*
X+931248Y-2474115D02*
X+1192868Y-2474115D01*
X+1192868Y-2382675D01*
X+931248Y-2382675D01*
X+931248Y-2474115D01*
D150*
X+975698Y-2428395D02*
X+975698Y-2428395D01*
D151*
X+1054768Y-2439775D02*
X+1048367Y-2445464D01*
X+1029165Y-2445464D01*
X+1016364Y-2434085D01*
X+1016364Y-2422706D01*
X+1029165Y-2411327D01*
X+1048367Y-2411327D01*
X+1054768Y-2417016D01*
X+1080371Y-2422706D02*
X+1093173Y-2411327D01*
X+1093173Y-2445464D01*
X+1125176Y-2417016D02*
X+1131577Y-2411327D01*
X+1150779Y-2411327D01*
X+1157180Y-2417016D01*
X+1157180Y-2422706D01*
X+1150779Y-2428395D01*
X+1131577Y-2428395D01*
X+1125176Y-2434085D01*
X+1125176Y-2445464D01*
X+1157180Y-2445464D01*
D54*
X+79178Y-2503255D02*
X+394138Y-2503255D01*
X+394138Y-2371175D01*
X+79178Y-2371175D01*
X+79178Y-2503255D01*
D145*
X+343338Y-2439755D02*
X+343338Y-2439755D01*
D146*
X+147123Y-2452455D02*
X+138550Y-2460075D01*
X+112833Y-2460075D01*
X+95688Y-2444835D01*
X+95688Y-2429595D01*
X+112833Y-2414355D01*
X+138550Y-2414355D01*
X+147123Y-2421975D01*
X+181413Y-2429595D02*
X+198558Y-2414355D01*
X+198558Y-2460075D01*
X+249993Y-2429595D02*
X+267138Y-2414355D01*
X+267138Y-2460075D01*
D137*
X-482302Y-2345395D02*
X-482302Y-3255395D01*
X+277698Y-3255395D01*
X+277698Y-2345395D01*
X-482302Y-2345395D01*
X-52302Y-2800395D02*
X-152302Y-2800395D01*
X-102302Y-2850395D02*
X-102302Y-2750395D01*
D152*
X-102302Y-2555395D02*
X-102302Y-2555395D01*
D153*
X-238360Y-2978454D02*
X-261036Y-2998611D01*
X-329065Y-2998611D01*
X-374417Y-2958298D01*
X-374417Y-2917984D01*
X-329065Y-2877671D01*
X-261036Y-2877671D01*
X-238360Y-2897828D01*
X-147655Y-2917984D02*
X-102302Y-2877671D01*
X-102302Y-2998611D01*
X-11597Y-2978454D02*
X-11597Y-2897828D01*
X+11079Y-2877671D01*
X+101784Y-2877671D01*
X+124460Y-2897828D01*
X+124460Y-2978454D01*
X+101784Y-2998611D01*
X+11079Y-2998611D01*
X-11597Y-2978454D01*
X-11597Y-2998611D02*
X+124460Y-2877671D01*
D137*
X+1041698Y-2345395D02*
X+1041698Y-3255395D01*
X+1801698Y-3255395D01*
X+1801698Y-2345395D01*
X+1041698Y-2345395D01*
X+1471698Y-2800395D02*
X+1371698Y-2800395D01*
X+1421698Y-2850395D02*
X+1421698Y-2750395D01*
D152*
X+1421698Y-2555395D02*
X+1421698Y-2555395D01*
D153*
X+1285640Y-2978454D02*
X+1262964Y-2998611D01*
X+1194935Y-2998611D01*
X+1149583Y-2958298D01*
X+1149583Y-2917984D01*
X+1194935Y-2877671D01*
X+1262964Y-2877671D01*
X+1285640Y-2897828D01*
X+1376345Y-2917984D02*
X+1421698Y-2877671D01*
X+1421698Y-2998611D01*
X+1535079Y-2897828D02*
X+1557755Y-2877671D01*
X+1625784Y-2877671D01*
X+1648460Y-2897828D01*
X+1648460Y-2917984D01*
X+1625784Y-2938141D01*
X+1648460Y-2958298D01*
X+1648460Y-2978454D01*
X+1625784Y-2998611D01*
X+1557755Y-2998611D01*
X+1535079Y-2978454D01*
X+1580431Y-2938141D02*
X+1625784Y-2938141D01*
D137*
X-1333482Y+1278130D02*
X-1333482Y+368130D01*
X-573482Y+368130D01*
X-573482Y+1278130D01*
X-1333482Y+1278130D01*
X-903482Y+823130D02*
X-1003482Y+823130D01*
X-953482Y+773130D02*
X-953482Y+873130D01*
D152*
X-953482Y+1068130D02*
X-953482Y+1068130D01*
D153*
X-998835Y+645071D02*
X-1021511Y+624914D01*
X-1089540Y+624914D01*
X-1134892Y+665227D01*
X-1134892Y+705541D01*
X-1089540Y+745854D01*
X-1021511Y+745854D01*
X-998835Y+725697D01*
X-817425Y+725697D02*
X-840101Y+745854D01*
X-908130Y+745854D01*
X-930806Y+725697D01*
X-930806Y+645071D01*
X-908130Y+624914D01*
X-840101Y+624914D01*
X-817425Y+645071D01*
X-817425Y+665227D01*
X-840101Y+685384D01*
X-930806Y+685384D01*
D137*
X-60555Y+1592000D02*
X-60555Y+772000D01*
X+569445Y+772000D01*
X+569445Y+1592000D01*
X-60555Y+1592000D01*
X+304445Y+1182000D02*
X+204445Y+1182000D01*
X+254445Y+1132000D02*
X+254445Y+1232000D01*
D154*
X+254445Y+1397000D02*
X+254445Y+1397000D01*
D155*
X+216745Y+1020782D02*
X+197895Y+1004027D01*
X+141345Y+1004027D01*
X+103645Y+1037538D01*
X+103645Y+1071049D01*
X+141345Y+1104560D01*
X+197895Y+1104560D01*
X+216745Y+1087805D01*
X+367545Y+1071049D02*
X+348695Y+1054294D01*
X+292145Y+1054294D01*
X+273295Y+1071049D01*
X+273295Y+1087805D01*
X+292145Y+1104560D01*
X+348695Y+1104560D01*
X+367545Y+1087805D01*
X+367545Y+1020782D01*
X+348695Y+1004027D01*
X+292145Y+1004027D01*
D54*
X-1692421Y+87246D02*
X-1534941Y+87246D01*
X-1534941Y+503806D01*
X-1692421Y+503806D01*
X-1692421Y+87246D01*
D135*
X-1613681Y+138046D02*
X-1613681Y+138046D01*
D147*
X-1582743Y+196950D02*
X-1644618Y+196950D01*
X-1644618Y+254956D01*
X-1634305Y+266558D01*
X-1623993Y+266558D01*
X-1613681Y+254956D01*
X-1613681Y+196950D01*
X-1613681Y+254956D02*
X-1603368Y+266558D01*
X-1582743Y+266558D01*
X-1644618Y+289761D02*
X-1644618Y+359369D01*
X-1644618Y+324565D02*
X-1582743Y+324565D01*
X-1623993Y+405774D02*
X-1644618Y+428977D01*
X-1582743Y+428977D01*
D137*
X+543698Y+1654226D02*
X-896302Y+1654226D01*
X-896302Y+2154226D01*
X+543698Y+2154226D01*
X+543698Y+1654226D01*
D156*
X-676302Y+1959226D02*
X-676302Y+1959226D01*
D157*
X-306859Y+1876330D02*
X-306859Y+1848435D01*
X-275477Y+1820540D01*
X-149949Y+1820540D01*
X-118567Y+1848435D01*
X-118567Y+1987911D01*
X-24421Y+1960016D02*
X+6961Y+1987911D01*
X+101107Y+1987911D01*
X+132489Y+1960016D01*
X+132489Y+1932121D01*
X+101107Y+1904226D01*
X+6961Y+1904226D01*
X-24421Y+1876330D01*
X-24421Y+1820540D01*
X+132489Y+1820540D01*
D137*
X+1702698Y+1654226D02*
X+662698Y+1654226D01*
X+662698Y+2154226D01*
X+1702698Y+2154226D01*
X+1702698Y+1654226D01*
D156*
X+882698Y+1959226D02*
X+882698Y+1959226D01*
D158*
X+1093947Y+1880976D02*
X+1093947Y+1857726D01*
X+1120103Y+1834476D01*
X+1224728Y+1834476D01*
X+1250884Y+1857726D01*
X+1250884Y+1973976D01*
X+1329353Y+1950726D02*
X+1355509Y+1973976D01*
X+1433978Y+1973976D01*
X+1460134Y+1950726D01*
X+1460134Y+1927476D01*
X+1433978Y+1904226D01*
X+1460134Y+1880976D01*
X+1460134Y+1857726D01*
X+1433978Y+1834476D01*
X+1355509Y+1834476D01*
X+1329353Y+1857726D01*
X+1381665Y+1904226D02*
X+1433978Y+1904226D01*
D137*
X-1660290Y-726395D02*
X+179686Y-726395D01*
X+179686Y-1226395D01*
X-1660290Y-1226395D01*
X-1660290Y-726395D01*
D156*
X-40302Y-1031395D02*
X-40302Y-1031395D01*
D157*
X-1111851Y-1004291D02*
X-1111851Y-1032186D01*
X-1080469Y-1060081D01*
X-954941Y-1060081D01*
X-923559Y-1032186D01*
X-923559Y-892710D01*
X-672503Y-1004291D02*
X-860795Y-1004291D01*
X-735267Y-892710D01*
X-735267Y-1060081D01*
D137*
X-609334Y-2286140D02*
X-1649334Y-2286140D01*
X-1649334Y-1786140D01*
X-609334Y-1786140D01*
X-609334Y-2286140D01*
D156*
X-1429334Y-1981140D02*
X-1429334Y-1981140D01*
D158*
X-1218085Y-2059390D02*
X-1218085Y-2082640D01*
X-1191929Y-2105890D01*
X-1087304Y-2105890D01*
X-1061148Y-2082640D01*
X-1061148Y-1966390D01*
X-851898Y-1966390D02*
X-982679Y-1966390D01*
X-982679Y-2012890D01*
X-878054Y-2012890D01*
X-851898Y-2036140D01*
X-851898Y-2082640D01*
X-878054Y-2105890D01*
X-956523Y-2105890D01*
X-982679Y-2082640D01*
D137*
X+533574Y-2291650D02*
X-506426Y-2291650D01*
X-506426Y-1791650D01*
X+533574Y-1791650D01*
X+533574Y-2291650D01*
D156*
X-286426Y-1986650D02*
X-286426Y-1986650D01*
D158*
X-75177Y-2064900D02*
X-75177Y-2088150D01*
X-49021Y-2111400D01*
X+55604Y-2111400D01*
X+81760Y-2088150D01*
X+81760Y-1971900D01*
X+291010Y-1995150D02*
X+264854Y-1971900D01*
X+186385Y-1971900D01*
X+160229Y-1995150D01*
X+160229Y-2088150D01*
X+186385Y-2111400D01*
X+264854Y-2111400D01*
X+291010Y-2088150D01*
X+291010Y-2064900D01*
X+264854Y-2041650D01*
X+160229Y-2041650D01*
D137*
X+1676574Y-2291650D02*
X+636574Y-2291650D01*
X+636574Y-1791650D01*
X+1676574Y-1791650D01*
X+1676574Y-2291650D01*
D156*
X+856574Y-1986650D02*
X+856574Y-1986650D01*
D158*
X+1067823Y-2064900D02*
X+1067823Y-2088150D01*
X+1093979Y-2111400D01*
X+1198604Y-2111400D01*
X+1224760Y-2088150D01*
X+1224760Y-1971900D01*
X+1303229Y-1971900D02*
X+1434010Y-1971900D01*
X+1434010Y-1995150D01*
X+1303229Y-2111400D01*
D137*
X+636574Y-3603650D02*
X+1676574Y-3603650D01*
X+1676574Y-4103650D01*
X+636574Y-4103650D01*
X+636574Y-3603650D01*
D156*
X+1456574Y-3908650D02*
X+1456574Y-3908650D01*
D158*
X+826825Y-3876900D02*
X+826825Y-3900150D01*
X+852981Y-3923400D01*
X+957606Y-3923400D01*
X+983762Y-3900150D01*
X+983762Y-3783900D01*
X+1088387Y-3853650D02*
X+1062231Y-3830400D01*
X+1062231Y-3807150D01*
X+1088387Y-3783900D01*
X+1166856Y-3783900D01*
X+1193012Y-3807150D01*
X+1193012Y-3830400D01*
X+1166856Y-3853650D01*
X+1088387Y-3853650D01*
X+1062231Y-3876900D01*
X+1062231Y-3900150D01*
X+1088387Y-3923400D01*
X+1166856Y-3923400D01*
X+1193012Y-3900150D01*
X+1193012Y-3876900D01*
X+1166856Y-3853650D01*
D137*
X-506426Y-3603650D02*
X+533574Y-3603650D01*
X+533574Y-4103650D01*
X-506426Y-4103650D01*
X-506426Y-3603650D01*
D156*
X+313574Y-3908650D02*
X+313574Y-3908650D01*
D158*
X-316175Y-3876900D02*
X-316175Y-3900150D01*
X-290019Y-3923400D01*
X-185394Y-3923400D01*
X-159238Y-3900150D01*
X-159238Y-3783900D01*
X+50012Y-3830400D02*
X+23856Y-3853650D01*
X-54613Y-3853650D01*
X-80769Y-3830400D01*
X-80769Y-3807150D01*
X-54613Y-3783900D01*
X+23856Y-3783900D01*
X+50012Y-3807150D01*
X+50012Y-3900150D01*
X+23856Y-3923400D01*
X-54613Y-3923400D01*
D137*
X-1649426Y-3603650D02*
X-609426Y-3603650D01*
X-609426Y-4103650D01*
X-1649426Y-4103650D01*
X-1649426Y-3603650D01*
D156*
X-829426Y-3908650D02*
X-829426Y-3908650D01*
D158*
X-1563800Y-3876900D02*
X-1563800Y-3900150D01*
X-1537644Y-3923400D01*
X-1433019Y-3923400D01*
X-1406863Y-3900150D01*
X-1406863Y-3783900D01*
X-1302238Y-3830400D02*
X-1249925Y-3783900D01*
X-1249925Y-3923400D01*
X-1145300Y-3900150D02*
X-1145300Y-3807150D01*
X-1119144Y-3783900D01*
X-1014519Y-3783900D01*
X-988363Y-3807150D01*
X-988363Y-3900150D01*
X-1014519Y-3923400D01*
X-1119144Y-3923400D01*
X-1145300Y-3900150D01*
X-1145300Y-3923400D02*
X-988363Y-3783900D01*
D137*
X-1014302Y+2370605D02*
X-1664302Y+2370605D01*
X-1664302Y+1520605D01*
X-1014302Y+1520605D01*
X-1014302Y+2370605D01*
D159*
X-1114302Y+2270605D02*
X-1114302Y+2270605D01*
D160*
X-1301649Y+1629595D02*
X-1282823Y+1650774D01*
X-1282823Y+1735492D01*
X-1301649Y+1756672D01*
X-1320476Y+1756672D01*
X-1339302Y+1735492D01*
X-1339302Y+1650774D01*
X-1358128Y+1629595D01*
X-1376955Y+1629595D01*
X-1395781Y+1650774D01*
X-1395781Y+1735492D01*
X-1376955Y+1756672D01*
X-1395781Y+1799031D02*
X-1282823Y+1799031D01*
X-1339302Y+1862569D01*
X-1282823Y+1926108D01*
X-1395781Y+1926108D01*
X-1358128Y+2010826D02*
X-1395781Y+2053185D01*
X-1282823Y+2053185D01*
D54*
X+627572Y+3154525D02*
X+1209232Y+3154525D01*
X+1209232Y+3736185D01*
X+627572Y+3736185D01*
X+627572Y+3154525D01*
D148*
X+886652Y+3286605D02*
X+886652Y+3286605D01*
D161*
X+687288Y+3480356D02*
X+687288Y+3583073D01*
X+764326Y+3583073D01*
X+802845Y+3548834D01*
X+802845Y+3514595D01*
X+764326Y+3480356D01*
X+687288Y+3480356D01*
X+879883Y+3548834D02*
X+918402Y+3583073D01*
X+918402Y+3480356D01*
X+1110997Y+3583073D02*
X+1014699Y+3583073D01*
X+1014699Y+3548834D01*
X+1091737Y+3548834D01*
X+1110997Y+3531715D01*
X+1110997Y+3497475D01*
X+1091737Y+3480356D01*
X+1033959Y+3480356D01*
X+1014699Y+3497475D01*
D54*
X+1010920Y+3169920D02*
X+1592580Y+3169920D01*
X+1592580Y+3751580D01*
X+1010920Y+3751580D01*
X+1010920Y+3169920D01*
D148*
X+1270000Y+3302000D02*
X+1270000Y+3302000D01*
D161*
X+1070636Y+3495751D02*
X+1070636Y+3598468D01*
X+1147674Y+3598468D01*
X+1186193Y+3564229D01*
X+1186193Y+3529990D01*
X+1147674Y+3495751D01*
X+1070636Y+3495751D01*
X+1263231Y+3564229D02*
X+1301750Y+3598468D01*
X+1301750Y+3495751D01*
X+1494345Y+3581349D02*
X+1475085Y+3598468D01*
X+1417307Y+3598468D01*
X+1398047Y+3581349D01*
X+1398047Y+3512870D01*
X+1417307Y+3495751D01*
X+1475085Y+3495751D01*
X+1494345Y+3512870D01*
X+1494345Y+3529990D01*
X+1475085Y+3547110D01*
X+1398047Y+3547110D01*
D54*
X-283932Y+1284410D02*
X-22312Y+1284410D01*
X-22312Y+1375850D01*
X-283932Y+1375850D01*
X-283932Y+1284410D01*
D150*
X-66762Y+1330130D02*
X-66762Y+1330130D01*
D151*
X-197039Y+1318750D02*
X-203440Y+1313061D01*
X-222642Y+1313061D01*
X-235443Y+1324440D01*
X-235443Y+1335819D01*
X-222642Y+1347198D01*
X-203440Y+1347198D01*
X-197039Y+1341509D01*
X-171436Y+1330130D02*
X-177837Y+1335819D01*
X-177837Y+1341509D01*
X-171436Y+1347198D01*
X-152234Y+1347198D01*
X-145833Y+1341509D01*
X-145833Y+1335819D01*
X-152234Y+1330130D01*
X-171436Y+1330130D01*
X-177837Y+1324440D01*
X-177837Y+1318750D01*
X-171436Y+1313061D01*
X-152234Y+1313061D01*
X-145833Y+1318750D01*
X-145833Y+1324440D01*
X-152234Y+1330130D01*
D54*
X-957580Y+3091025D02*
X-375920Y+3091025D01*
X-375920Y+3672685D01*
X-957580Y+3672685D01*
X-957580Y+3091025D01*
D148*
X-635000Y+3540605D02*
X-635000Y+3540605D01*
D161*
X-897864Y+3244136D02*
X-897864Y+3346853D01*
X-820826Y+3346853D01*
X-782307Y+3312614D01*
X-782307Y+3278375D01*
X-820826Y+3244136D01*
X-897864Y+3244136D01*
X-705269Y+3312614D02*
X-666750Y+3346853D01*
X-666750Y+3244136D01*
X-570453Y+3346853D02*
X-474155Y+3346853D01*
X-474155Y+3329734D01*
X-570453Y+3244136D01*
D54*
X-576580Y+3169920D02*
X+5080Y+3169920D01*
X+5080Y+3751580D01*
X-576580Y+3751580D01*
X-576580Y+3169920D01*
D148*
X-127000Y+3429000D02*
X-127000Y+3429000D01*
D161*
X-320751Y+3229636D02*
X-423468Y+3229636D01*
X-423468Y+3306674D01*
X-389229Y+3345193D01*
X-354990Y+3345193D01*
X-320751Y+3306674D01*
X-320751Y+3229636D01*
X-389229Y+3422231D02*
X-423468Y+3460750D01*
X-320751Y+3460750D01*
X-372110Y+3576307D02*
X-389229Y+3557047D01*
X-406349Y+3557047D01*
X-423468Y+3576307D01*
X-423468Y+3634085D01*
X-406349Y+3653345D01*
X-389229Y+3653345D01*
X-372110Y+3634085D01*
X-372110Y+3576307D01*
X-354990Y+3557047D01*
X-337870Y+3557047D01*
X-320751Y+3576307D01*
X-320751Y+3634085D01*
X-337870Y+3653345D01*
X-354990Y+3653345D01*
X-372110Y+3634085D01*
D54*
X-195580Y+3106420D02*
X+386080Y+3106420D01*
X+386080Y+3688080D01*
X-195580Y+3688080D01*
X-195580Y+3106420D01*
D148*
X+127000Y+3556000D02*
X+127000Y+3556000D01*
D161*
X-135864Y+3259531D02*
X-135864Y+3362248D01*
X-58826Y+3362248D01*
X-20307Y+3328009D01*
X-20307Y+3293770D01*
X-58826Y+3259531D01*
X-135864Y+3259531D01*
X+56731Y+3328009D02*
X+95250Y+3362248D01*
X+95250Y+3259531D01*
X+287845Y+3328009D02*
X+268585Y+3310890D01*
X+210807Y+3310890D01*
X+191547Y+3328009D01*
X+191547Y+3345129D01*
X+210807Y+3362248D01*
X+268585Y+3362248D01*
X+287845Y+3345129D01*
X+287845Y+3276650D01*
X+268585Y+3259531D01*
X+210807Y+3259531D01*
D54*
X+185420Y+3106420D02*
X+767080Y+3106420D01*
X+767080Y+3688080D01*
X+185420Y+3688080D01*
X+185420Y+3106420D01*
D148*
X+508000Y+3556000D02*
X+508000Y+3556000D01*
D161*
X+245136Y+3259531D02*
X+245136Y+3362248D01*
X+322174Y+3362248D01*
X+360693Y+3328009D01*
X+360693Y+3293770D01*
X+322174Y+3259531D01*
X+245136Y+3259531D01*
X+418471Y+3345129D02*
X+437731Y+3362248D01*
X+495509Y+3362248D01*
X+514769Y+3345129D01*
X+514769Y+3328009D01*
X+495509Y+3310890D01*
X+437731Y+3310890D01*
X+418471Y+3293770D01*
X+418471Y+3259531D01*
X+514769Y+3259531D01*
X+553288Y+3276650D02*
X+553288Y+3345129D01*
X+572547Y+3362248D01*
X+649585Y+3362248D01*
X+668845Y+3345129D01*
X+668845Y+3276650D01*
X+649585Y+3259531D01*
X+572547Y+3259531D01*
X+553288Y+3276650D01*
X+553288Y+3259531D02*
X+668845Y+3362248D01*
D54*
X+990938Y+2191865D02*
X+1407498Y+2191865D01*
X+1407498Y+2349345D01*
X+990938Y+2349345D01*
X+990938Y+2191865D01*
D135*
X+1041738Y+2270605D02*
X+1041738Y+2270605D01*
D147*
X+1100642Y+2239667D02*
X+1100642Y+2301542D01*
X+1158648Y+2301542D01*
X+1170250Y+2291229D01*
X+1170250Y+2280917D01*
X+1158648Y+2270605D01*
X+1100642Y+2270605D01*
X+1158648Y+2270605D02*
X+1170250Y+2260292D01*
X+1170250Y+2239667D01*
X+1193453Y+2301542D02*
X+1263061Y+2301542D01*
X+1228257Y+2301542D02*
X+1228257Y+2239667D01*
X+1355872Y+2260292D02*
X+1286264Y+2260292D01*
X+1332669Y+2301542D01*
X+1332669Y+2239667D01*
D137*
X+194000Y-166000D02*
X+2036000Y-166000D01*
X+2036000Y+674000D01*
X+194000Y+674000D01*
X+194000Y-166000D01*
D162*
X+889000Y+127000D02*
X+889000Y+127000D01*
D163*
X+856951Y+386077D02*
X+856951Y+357405D01*
X+889207Y+328733D01*
X+1018231Y+328733D01*
X+1050487Y+357405D01*
X+1050487Y+500766D01*
X+1179512Y+443422D02*
X+1244024Y+500766D01*
X+1244024Y+328733D01*
D54*
X+653118Y+614525D02*
X+1234778Y+614525D01*
X+1234778Y+1196185D01*
X+653118Y+1196185D01*
X+653118Y+614525D01*
D148*
X+1102698Y+873605D02*
X+1102698Y+873605D01*
D161*
X+908947Y+674241D02*
X+806230Y+674241D01*
X+806230Y+751279D01*
X+840469Y+789798D01*
X+874708Y+789798D01*
X+908947Y+751279D01*
X+908947Y+674241D01*
X+840469Y+866836D02*
X+806230Y+905355D01*
X+908947Y+905355D01*
X+891828Y+982393D02*
X+823349Y+982393D01*
X+806230Y+1001652D01*
X+806230Y+1078690D01*
X+823349Y+1097950D01*
X+891828Y+1097950D01*
X+908947Y+1078690D01*
X+908947Y+1001652D01*
X+891828Y+982393D01*
X+908947Y+982393D02*
X+806230Y+1097950D01*
D54*
X-1465580Y-1783080D02*
X-883920Y-1783080D01*
X-883920Y-1201420D01*
X-1465580Y-1201420D01*
X-1465580Y-1783080D01*
D148*
X-1016000Y-1524000D02*
X-1016000Y-1524000D01*
D161*
X-1209751Y-1723364D02*
X-1312468Y-1723364D01*
X-1312468Y-1646326D01*
X-1278229Y-1607807D01*
X-1243990Y-1607807D01*
X-1209751Y-1646326D01*
X-1209751Y-1723364D01*
X-1278229Y-1530769D02*
X-1312468Y-1492250D01*
X-1209751Y-1492250D01*
X-1295349Y-1395953D02*
X-1312468Y-1376693D01*
X-1312468Y-1318915D01*
X-1295349Y-1299655D01*
X-1278229Y-1299655D01*
X-1261110Y-1318915D01*
X-1261110Y-1376693D01*
X-1243990Y-1395953D01*
X-1209751Y-1395953D01*
X-1209751Y-1299655D01*
D54*
X-1465580Y-3688080D02*
X-883920Y-3688080D01*
X-883920Y-3106420D01*
X-1465580Y-3106420D01*
X-1465580Y-3688080D01*
D148*
X-1016000Y-3429000D02*
X-1016000Y-3429000D01*
D161*
X-1209751Y-3628364D02*
X-1312468Y-3628364D01*
X-1312468Y-3551326D01*
X-1278229Y-3512807D01*
X-1243990Y-3512807D01*
X-1209751Y-3551326D01*
X-1209751Y-3628364D01*
X-1278229Y-3435769D02*
X-1312468Y-3397250D01*
X-1209751Y-3397250D01*
X-1278229Y-3281693D02*
X-1312468Y-3243174D01*
X-1209751Y-3243174D01*
D34*
X-2077000Y-4450000D02*
X+2123000Y-4450000D01*
X+2123000Y+3750000D01*
X-2077000Y+3750000D01*
X-2077000Y-4450000D01*
D54*
X-1846580Y+2471420D02*
X-1264920Y+2471420D01*
X-1264920Y+3053080D01*
X-1846580Y+3053080D01*
X-1846580Y+2471420D01*
D148*
X-1524000Y+2921000D02*
X-1524000Y+2921000D01*
D161*
X-1786864Y+2624531D02*
X-1786864Y+2727248D01*
X-1709826Y+2727248D01*
X-1671307Y+2693009D01*
X-1671307Y+2658770D01*
X-1709826Y+2624531D01*
X-1786864Y+2624531D01*
X-1594269Y+2693009D02*
X-1555750Y+2727248D01*
X-1555750Y+2624531D01*
X-1459453Y+2710129D02*
X-1440193Y+2727248D01*
X-1382415Y+2727248D01*
X-1363155Y+2710129D01*
X-1363155Y+2693009D01*
X-1382415Y+2675890D01*
X-1363155Y+2658770D01*
X-1363155Y+2641650D01*
X-1382415Y+2624531D01*
X-1440193Y+2624531D01*
X-1459453Y+2641650D01*
X-1420934Y+2675890D02*
X-1382415Y+2675890D01*
D54*
X-1465580Y+2471420D02*
X-883920Y+2471420D01*
X-883920Y+3053080D01*
X-1465580Y+3053080D01*
X-1465580Y+2471420D01*
D148*
X-1143000Y+2921000D02*
X-1143000Y+2921000D01*
D161*
X-1405864Y+2624531D02*
X-1405864Y+2727248D01*
X-1328826Y+2727248D01*
X-1290307Y+2693009D01*
X-1290307Y+2658770D01*
X-1328826Y+2624531D01*
X-1405864Y+2624531D01*
X-1213269Y+2693009D02*
X-1174750Y+2727248D01*
X-1174750Y+2624531D01*
X-982155Y+2658770D02*
X-1097712Y+2658770D01*
X-1020674Y+2727248D01*
X-1020674Y+2624531D01*
M02*
