G04 PROTEUS GERBER X2 FILE*
%TF.GenerationSoftware,Labcenter,Proteus,8.16-SP3-Build36097*%
%TF.CreationDate,2024-05-04T02:13:19+00:00*%
%TF.FileFunction,Paste,Bot*%
%TF.FilePolarity,Positive*%
%TF.Part,Single*%
%TF.SameCoordinates,{03efdd39-6268-421f-b844-547f2104f690}*%
%FSLAX45Y45*%
%MOMM*%
G01*
%TA.AperFunction,Material*%
%ADD119R,0.558800X1.498600*%
%ADD120R,1.498600X0.558800*%
%TA.AperFunction,Material*%
%ADD115R,0.889000X0.889000*%
%ADD121R,2.692400X1.143000*%
%ADD122R,2.032000X1.778000*%
%TA.AperFunction,Material*%
%ADD123R,0.635000X2.032000*%
%AMPPAD114*
4,1,36,
0.203980,-0.745080,
0.201070,-0.754460,
0.196460,-0.762950,
0.190350,-0.770350,
0.182950,-0.776460,
0.174460,-0.781070,
0.165080,-0.783980,
0.155000,-0.785000,
-0.155000,-0.785000,
-0.165080,-0.783980,
-0.174460,-0.781070,
-0.182950,-0.776460,
-0.190350,-0.770350,
-0.196460,-0.762950,
-0.201070,-0.754460,
-0.203980,-0.745080,
-0.205000,-0.735000,
-0.205000,0.735000,
-0.203980,0.745080,
-0.201070,0.754460,
-0.196460,0.762950,
-0.190350,0.770350,
-0.182950,0.776460,
-0.174460,0.781070,
-0.165080,0.783980,
-0.155000,0.785000,
0.155000,0.785000,
0.165080,0.783980,
0.174460,0.781070,
0.182950,0.776460,
0.190350,0.770350,
0.196460,0.762950,
0.201070,0.754460,
0.203980,0.745080,
0.205000,0.735000,
0.205000,-0.735000,
0.203980,-0.745080,
0*%
%TA.AperFunction,Material*%
%ADD124PPAD114*%
%AMPPAD115*
4,1,4,
0.808220,-0.089800,
0.089800,-0.808220,
-0.808220,0.089800,
-0.089800,0.808220,
0.808220,-0.089800,
0*%
%TA.AperFunction,Material*%
%ADD125PPAD115*%
%ADD126R,1.778000X1.397000*%
%AMPPAD117*
4,1,4,
0.000000,0.628620,
0.628620,0.000000,
0.000000,-0.628620,
-0.628620,0.000000,
0.000000,0.628620,
0*%
%ADD127PPAD117*%
%TA.AperFunction,Material*%
%ADD128R,2.032000X0.635000*%
%TA.AperFunction,Material*%
%ADD129R,1.397000X1.778000*%
%ADD118R,1.524000X1.016000*%
%ADD107R,1.016000X1.524000*%
%AMPPAD120*
4,1,4,
-0.179610,-0.898030,
-0.898030,-0.179610,
0.179610,0.898030,
0.898030,0.179610,
-0.179610,-0.898030,
0*%
%ADD130PPAD120*%
%AMPPAD121*
4,1,4,
0.089800,0.808220,
0.808220,0.089800,
-0.089800,-0.808220,
-0.808220,-0.089800,
0.089800,0.808220,
0*%
%ADD131PPAD121*%
%TA.AperFunction,Material*%
%ADD132R,1.000000X2.500000*%
%ADD133R,2.500000X6.000000*%
%ADD109R,1.016000X0.889000*%
%TA.AperFunction,Material*%
%ADD113R,1.016000X1.270000*%
%ADD134R,1.270000X1.016000*%
%TA.AperFunction,Profile*%
%ADD34C,0.101600*%
%TD.AperFunction*%
D119*
X-121302Y+990226D03*
X-41302Y+990226D03*
X+38698Y+990226D03*
X+118698Y+990226D03*
X+198698Y+990226D03*
X+278698Y+990226D03*
X+358698Y+990226D03*
X+438698Y+990226D03*
D120*
X+578698Y+850226D03*
X+578698Y+770226D03*
X+578698Y+690226D03*
X+578698Y+610226D03*
X+578698Y+530226D03*
X+578698Y+450226D03*
X+578698Y+370226D03*
X+578698Y+290226D03*
D119*
X+438698Y+150226D03*
X+358698Y+150226D03*
X+278698Y+150226D03*
X+198698Y+150226D03*
X+118698Y+150226D03*
X+38698Y+150226D03*
X-41302Y+150226D03*
X-121302Y+150226D03*
D120*
X-261302Y+290226D03*
X-261302Y+370226D03*
X-261302Y+450226D03*
X-261302Y+530226D03*
X-261302Y+610226D03*
X-261302Y+690226D03*
X-261302Y+770226D03*
X-261302Y+850226D03*
D115*
X+164418Y+1245226D03*
X-8302Y+1245226D03*
X+462280Y-56036D03*
X+635000Y-56036D03*
D121*
X+508000Y-508000D03*
X+508000Y-182880D03*
D115*
X+118698Y+1372226D03*
X+291418Y+1372226D03*
X+1102698Y+1254605D03*
X+1102698Y+1427325D03*
X+1102698Y+1635605D03*
X+1102698Y+1462885D03*
D122*
X+847698Y+1578226D03*
X+847698Y+1146426D03*
D123*
X+1347525Y+1517778D03*
X+1474525Y+1517778D03*
X+1601525Y+1517778D03*
X+1728525Y+1517778D03*
X+1728525Y+997078D03*
X+1601525Y+997078D03*
X+1474525Y+997078D03*
X+1347525Y+997078D03*
D124*
X-725426Y-2406650D03*
X-660426Y-2406650D03*
X-595426Y-2406650D03*
X-530426Y-2406650D03*
X-465426Y-2406650D03*
X-399938Y-2406650D03*
X-334914Y-2406650D03*
X-269426Y-2406650D03*
X-204426Y-2406650D03*
X-139426Y-2406650D03*
X-74426Y-2406650D03*
X-9426Y-2406650D03*
X-9426Y-2980650D03*
X-74426Y-2980650D03*
X-139426Y-2980650D03*
X-204426Y-2980650D03*
X-269426Y-2980650D03*
X-334914Y-2980650D03*
X-399938Y-2980650D03*
X-465426Y-2980650D03*
X-530426Y-2980650D03*
X-595426Y-2980650D03*
X-660426Y-2980650D03*
X-725426Y-2980650D03*
D115*
X-802302Y+538325D03*
X-802302Y+365605D03*
D125*
X-1547868Y+1373132D03*
X-1397000Y+1524000D03*
D126*
X-1038302Y+562226D03*
X-1038302Y+222226D03*
X-1292302Y+562226D03*
X-1292302Y+222226D03*
X-1038302Y+730226D03*
X-1038302Y+1070226D03*
X-1292302Y+730226D03*
X-1292302Y+1070226D03*
D115*
X-682249Y+1374658D03*
X-682249Y+1201938D03*
D127*
X+1229698Y+2016605D03*
X+1107567Y+2138736D03*
D115*
X+213698Y+2951325D03*
X+213698Y+2778605D03*
X+1582423Y+2522538D03*
X+1582423Y+2349818D03*
D127*
X-548302Y+1762605D03*
X-670433Y+1640474D03*
X-299170Y+1757737D03*
X-421301Y+1635606D03*
X-40302Y+1762605D03*
X-162433Y+1640474D03*
X+213698Y+1762605D03*
X+91567Y+1640474D03*
D128*
X-27602Y+3032605D03*
X-27602Y+2905605D03*
X-27602Y+2778605D03*
X-27602Y+2651605D03*
X-27602Y+2524605D03*
X-27602Y+2397605D03*
X-27602Y+2270605D03*
X-548302Y+2270605D03*
X-548302Y+2397605D03*
X-548302Y+2524605D03*
X-548302Y+2651605D03*
X-548302Y+2778605D03*
X-548302Y+2905605D03*
X-548302Y+3032605D03*
D123*
X+1483698Y+2372205D03*
X+1356698Y+2372205D03*
X+1229698Y+2372205D03*
X+1102698Y+2372205D03*
X+975698Y+2372205D03*
X+848698Y+2372205D03*
X+721698Y+2372205D03*
X+721698Y+2892905D03*
X+848698Y+2892905D03*
X+975698Y+2892905D03*
X+1102698Y+2892905D03*
X+1229698Y+2892905D03*
X+1356698Y+2892905D03*
X+1483698Y+2892905D03*
D115*
X+975698Y+3205325D03*
X+975698Y+3032605D03*
X+1229698Y+3205325D03*
X+1229698Y+3032605D03*
X+1783418Y+2905605D03*
X+1610698Y+2905605D03*
X-6582Y+3131605D03*
X-179302Y+3131605D03*
X-807720Y+2286000D03*
X-635000Y+2286000D03*
X-381000Y+3347720D03*
X-381000Y+3175000D03*
X+340698Y+3093720D03*
X+340698Y+2921000D03*
X+594698Y+3159605D03*
X+594698Y+2986885D03*
D129*
X-1269302Y+1254605D03*
X-929302Y+1254605D03*
D115*
X-675302Y+2905605D03*
X-848022Y+2905605D03*
D118*
X-167302Y-1285395D03*
X-167302Y-1600355D03*
D107*
X-736262Y-1793395D03*
X-421302Y-1793395D03*
D118*
X+340698Y-1854355D03*
X+340698Y-1539395D03*
X+1483698Y-1793395D03*
X+1483698Y-1478435D03*
D130*
X-294302Y-4079395D03*
X-71592Y-4302106D03*
X-1437302Y-4079395D03*
X-1214592Y-4302106D03*
X+848698Y-4079395D03*
X+1071409Y-4302105D03*
D115*
X-1056302Y-3109115D03*
X-1056302Y-2936395D03*
D131*
X-869638Y-202059D03*
X-1020506Y-51191D03*
X-651434Y-166264D03*
X-802302Y-15395D03*
D115*
X+213699Y-315115D03*
X+213699Y-142395D03*
D127*
X-543434Y-899526D03*
X-421303Y-777395D03*
X-289433Y-518526D03*
X-167302Y-396395D03*
X-543433Y-518526D03*
X-421302Y-396395D03*
X-924433Y-772527D03*
X-802302Y-650396D03*
X-1392131Y-884132D03*
X-1270000Y-762000D03*
D115*
X-929302Y-2809395D03*
X-929302Y-2636675D03*
X+1229698Y+1000605D03*
X+1229698Y+1173325D03*
D127*
X-884132Y-1392132D03*
X-762000Y-1270000D03*
D115*
X-1691302Y-4064000D03*
X-1691302Y-3891280D03*
D132*
X+1905000Y+1905000D03*
X+1655000Y+1905000D03*
D133*
X+1780000Y+2480000D03*
D109*
X-1778000Y+93980D03*
X-1968500Y+0D03*
X-1968500Y+187960D03*
X-1649680Y-287020D03*
X-1840180Y-381000D03*
X-1840180Y-193040D03*
D131*
X-1778000Y+254000D03*
X-1928868Y+404869D03*
D127*
X-1840180Y-572821D03*
X-1718048Y-694952D03*
D113*
X-1894793Y-1026207D03*
X-1681433Y-1026207D03*
D115*
X-1905000Y-762000D03*
X-1905000Y-934720D03*
D134*
X-1524000Y-40640D03*
X-1524000Y+172720D03*
X-1524001Y+802640D03*
X-1524000Y+1016000D03*
D34*
X-2077000Y-4450000D02*
X+2123000Y-4450000D01*
X+2123000Y+3750000D01*
X-2077000Y+3750000D01*
X-2077000Y-4450000D01*
M02*
